G04 #@! TF.GenerationSoftware,KiCad,Pcbnew,7.0.10*
G04 #@! TF.CreationDate,2024-04-22T09:57:33-04:00*
G04 #@! TF.ProjectId,reflow_oven_board_rev_2,7265666c-6f77-45f6-9f76-656e5f626f61,1.0*
G04 #@! TF.SameCoordinates,Original*
G04 #@! TF.FileFunction,Soldermask,Bot*
G04 #@! TF.FilePolarity,Negative*
%FSLAX46Y46*%
G04 Gerber Fmt 4.6, Leading zero omitted, Abs format (unit mm)*
G04 Created by KiCad (PCBNEW 7.0.10) date 2024-04-22 09:57:33*
%MOMM*%
%LPD*%
G01*
G04 APERTURE LIST*
G04 Aperture macros list*
%AMRoundRect*
0 Rectangle with rounded corners*
0 $1 Rounding radius*
0 $2 $3 $4 $5 $6 $7 $8 $9 X,Y pos of 4 corners*
0 Add a 4 corners polygon primitive as box body*
4,1,4,$2,$3,$4,$5,$6,$7,$8,$9,$2,$3,0*
0 Add four circle primitives for the rounded corners*
1,1,$1+$1,$2,$3*
1,1,$1+$1,$4,$5*
1,1,$1+$1,$6,$7*
1,1,$1+$1,$8,$9*
0 Add four rect primitives between the rounded corners*
20,1,$1+$1,$2,$3,$4,$5,0*
20,1,$1+$1,$4,$5,$6,$7,0*
20,1,$1+$1,$6,$7,$8,$9,0*
20,1,$1+$1,$8,$9,$2,$3,0*%
G04 Aperture macros list end*
%ADD10R,2.600000X2.600000*%
%ADD11C,2.600000*%
%ADD12RoundRect,0.102000X-1.000000X-1.000000X1.000000X-1.000000X1.000000X1.000000X-1.000000X1.000000X0*%
%ADD13C,2.204000*%
%ADD14R,1.700000X1.700000*%
%ADD15O,1.700000X1.700000*%
%ADD16R,2.000000X2.000000*%
%ADD17C,2.000000*%
G04 APERTURE END LIST*
D10*
X113050000Y-82600000D03*
D11*
X113050000Y-87600000D03*
D12*
X130722500Y-86485000D03*
D13*
X130722500Y-89025000D03*
X130722500Y-91565000D03*
X130722500Y-94105000D03*
X130722500Y-96645000D03*
X130722500Y-99185000D03*
X130722500Y-101725000D03*
X130722500Y-104265000D03*
X130722500Y-106805000D03*
X130722500Y-109345000D03*
X130722500Y-111885000D03*
X130722500Y-114425000D03*
X130722500Y-116965000D03*
X130722500Y-119505000D03*
X130722500Y-122045000D03*
X156122500Y-122045000D03*
X156122500Y-119505000D03*
X156122500Y-116965000D03*
X156122500Y-114425000D03*
X156122500Y-111885000D03*
X156122500Y-109345000D03*
X156122500Y-106805000D03*
X156122500Y-104265000D03*
X156122500Y-101725000D03*
X156122500Y-99185000D03*
X156122500Y-96645000D03*
X156122500Y-94105000D03*
X156122500Y-91565000D03*
X156122500Y-89025000D03*
X156122500Y-86485000D03*
D10*
X113050000Y-111000000D03*
D11*
X113050000Y-116000000D03*
X113050000Y-121000000D03*
D10*
X113050000Y-68400000D03*
D11*
X113050000Y-73400000D03*
D10*
X145745000Y-52945000D03*
D11*
X140745000Y-52945000D03*
D10*
X173500000Y-87600000D03*
D11*
X173500000Y-82600000D03*
D10*
X173595000Y-104300000D03*
D11*
X173595000Y-99300000D03*
D14*
X120500000Y-129210000D03*
D15*
X120500000Y-131750000D03*
D16*
X171150000Y-55462500D03*
D17*
X171150000Y-63062500D03*
D10*
X113050000Y-96800000D03*
D11*
X113050000Y-101800000D03*
D10*
X173500000Y-121000000D03*
D11*
X173500000Y-116000000D03*
D14*
X126780000Y-131800000D03*
D15*
X129320000Y-131800000D03*
X131860000Y-131800000D03*
X134400000Y-131800000D03*
X136940000Y-131800000D03*
X139480000Y-131800000D03*
X142020000Y-131800000D03*
X144560000Y-131800000D03*
X147100000Y-131800000D03*
X149640000Y-131800000D03*
X152180000Y-131800000D03*
X154720000Y-131800000D03*
X157260000Y-131800000D03*
X159800000Y-131800000D03*
M02*
