G04 #@! TF.GenerationSoftware,KiCad,Pcbnew,7.0.10*
G04 #@! TF.CreationDate,2024-04-22T09:57:33-04:00*
G04 #@! TF.ProjectId,reflow_oven_board_rev_2,7265666c-6f77-45f6-9f76-656e5f626f61,1.0*
G04 #@! TF.SameCoordinates,Original*
G04 #@! TF.FileFunction,Legend,Top*
G04 #@! TF.FilePolarity,Positive*
%FSLAX46Y46*%
G04 Gerber Fmt 4.6, Leading zero omitted, Abs format (unit mm)*
G04 Created by KiCad (PCBNEW 7.0.10) date 2024-04-22 09:57:33*
%MOMM*%
%LPD*%
G01*
G04 APERTURE LIST*
G04 Aperture macros list*
%AMRoundRect*
0 Rectangle with rounded corners*
0 $1 Rounding radius*
0 $2 $3 $4 $5 $6 $7 $8 $9 X,Y pos of 4 corners*
0 Add a 4 corners polygon primitive as box body*
4,1,4,$2,$3,$4,$5,$6,$7,$8,$9,$2,$3,0*
0 Add four circle primitives for the rounded corners*
1,1,$1+$1,$2,$3*
1,1,$1+$1,$4,$5*
1,1,$1+$1,$6,$7*
1,1,$1+$1,$8,$9*
0 Add four rect primitives between the rounded corners*
20,1,$1+$1,$2,$3,$4,$5,0*
20,1,$1+$1,$4,$5,$6,$7,0*
20,1,$1+$1,$6,$7,$8,$9,0*
20,1,$1+$1,$8,$9,$2,$3,0*%
G04 Aperture macros list end*
%ADD10C,0.150000*%
%ADD11C,0.500000*%
%ADD12C,0.300000*%
%ADD13C,0.120000*%
%ADD14C,0.127000*%
%ADD15C,0.200000*%
%ADD16R,2.600000X2.600000*%
%ADD17C,2.600000*%
%ADD18R,7.500000X1.800000*%
%ADD19R,1.560000X0.650000*%
%ADD20RoundRect,0.102000X-1.000000X-1.000000X1.000000X-1.000000X1.000000X1.000000X-1.000000X1.000000X0*%
%ADD21C,2.204000*%
%ADD22RoundRect,0.237500X0.237500X-0.250000X0.237500X0.250000X-0.237500X0.250000X-0.237500X-0.250000X0*%
%ADD23RoundRect,0.237500X-0.237500X0.250000X-0.237500X-0.250000X0.237500X-0.250000X0.237500X0.250000X0*%
%ADD24RoundRect,0.237500X-0.237500X0.300000X-0.237500X-0.300000X0.237500X-0.300000X0.237500X0.300000X0*%
%ADD25RoundRect,0.237500X0.300000X0.237500X-0.300000X0.237500X-0.300000X-0.237500X0.300000X-0.237500X0*%
%ADD26RoundRect,0.237500X0.237500X-0.300000X0.237500X0.300000X-0.237500X0.300000X-0.237500X-0.300000X0*%
%ADD27RoundRect,0.150000X0.587500X0.150000X-0.587500X0.150000X-0.587500X-0.150000X0.587500X-0.150000X0*%
%ADD28RoundRect,0.200000X0.275000X-0.200000X0.275000X0.200000X-0.275000X0.200000X-0.275000X-0.200000X0*%
%ADD29RoundRect,0.237500X0.250000X0.237500X-0.250000X0.237500X-0.250000X-0.237500X0.250000X-0.237500X0*%
%ADD30RoundRect,0.237500X-0.300000X-0.237500X0.300000X-0.237500X0.300000X0.237500X-0.300000X0.237500X0*%
%ADD31RoundRect,0.218750X0.256250X-0.218750X0.256250X0.218750X-0.256250X0.218750X-0.256250X-0.218750X0*%
%ADD32RoundRect,0.150000X-0.587500X-0.150000X0.587500X-0.150000X0.587500X0.150000X-0.587500X0.150000X0*%
%ADD33C,1.000000*%
%ADD34RoundRect,0.237500X-0.250000X-0.237500X0.250000X-0.237500X0.250000X0.237500X-0.250000X0.237500X0*%
%ADD35R,1.700000X1.700000*%
%ADD36O,1.700000X1.700000*%
%ADD37R,2.000000X2.000000*%
%ADD38C,2.000000*%
%ADD39RoundRect,0.150000X0.825000X0.150000X-0.825000X0.150000X-0.825000X-0.150000X0.825000X-0.150000X0*%
G04 APERTURE END LIST*
D10*
X179169819Y-88406077D02*
X179169819Y-87834649D01*
X180169819Y-88120363D02*
X179169819Y-88120363D01*
X179788866Y-87501315D02*
X179788866Y-86739411D01*
X145441791Y-46130180D02*
X145441791Y-47130180D01*
X145441791Y-47130180D02*
X145060839Y-47130180D01*
X145060839Y-47130180D02*
X144965601Y-47082561D01*
X144965601Y-47082561D02*
X144917982Y-47034942D01*
X144917982Y-47034942D02*
X144870363Y-46939704D01*
X144870363Y-46939704D02*
X144870363Y-46796847D01*
X144870363Y-46796847D02*
X144917982Y-46701609D01*
X144917982Y-46701609D02*
X144965601Y-46653990D01*
X144965601Y-46653990D02*
X145060839Y-46606371D01*
X145060839Y-46606371D02*
X145441791Y-46606371D01*
X144251315Y-47130180D02*
X144060839Y-47130180D01*
X144060839Y-47130180D02*
X143965601Y-47082561D01*
X143965601Y-47082561D02*
X143870363Y-46987323D01*
X143870363Y-46987323D02*
X143822744Y-46796847D01*
X143822744Y-46796847D02*
X143822744Y-46463514D01*
X143822744Y-46463514D02*
X143870363Y-46273038D01*
X143870363Y-46273038D02*
X143965601Y-46177800D01*
X143965601Y-46177800D02*
X144060839Y-46130180D01*
X144060839Y-46130180D02*
X144251315Y-46130180D01*
X144251315Y-46130180D02*
X144346553Y-46177800D01*
X144346553Y-46177800D02*
X144441791Y-46273038D01*
X144441791Y-46273038D02*
X144489410Y-46463514D01*
X144489410Y-46463514D02*
X144489410Y-46796847D01*
X144489410Y-46796847D02*
X144441791Y-46987323D01*
X144441791Y-46987323D02*
X144346553Y-47082561D01*
X144346553Y-47082561D02*
X144251315Y-47130180D01*
X143489410Y-47130180D02*
X143251315Y-46130180D01*
X143251315Y-46130180D02*
X143060839Y-46844466D01*
X143060839Y-46844466D02*
X142870363Y-46130180D01*
X142870363Y-46130180D02*
X142632268Y-47130180D01*
X142251315Y-46653990D02*
X141917982Y-46653990D01*
X141775125Y-46130180D02*
X142251315Y-46130180D01*
X142251315Y-46130180D02*
X142251315Y-47130180D01*
X142251315Y-47130180D02*
X141775125Y-47130180D01*
X140775125Y-46130180D02*
X141108458Y-46606371D01*
X141346553Y-46130180D02*
X141346553Y-47130180D01*
X141346553Y-47130180D02*
X140965601Y-47130180D01*
X140965601Y-47130180D02*
X140870363Y-47082561D01*
X140870363Y-47082561D02*
X140822744Y-47034942D01*
X140822744Y-47034942D02*
X140775125Y-46939704D01*
X140775125Y-46939704D02*
X140775125Y-46796847D01*
X140775125Y-46796847D02*
X140822744Y-46701609D01*
X140822744Y-46701609D02*
X140870363Y-46653990D01*
X140870363Y-46653990D02*
X140965601Y-46606371D01*
X140965601Y-46606371D02*
X141346553Y-46606371D01*
X179488866Y-104763220D02*
X179488866Y-104001316D01*
X179869819Y-104382268D02*
X179107914Y-104382268D01*
X107422200Y-111310839D02*
X107469819Y-111167982D01*
X107469819Y-111167982D02*
X107469819Y-110929887D01*
X107469819Y-110929887D02*
X107422200Y-110834649D01*
X107422200Y-110834649D02*
X107374580Y-110787030D01*
X107374580Y-110787030D02*
X107279342Y-110739411D01*
X107279342Y-110739411D02*
X107184104Y-110739411D01*
X107184104Y-110739411D02*
X107088866Y-110787030D01*
X107088866Y-110787030D02*
X107041247Y-110834649D01*
X107041247Y-110834649D02*
X106993628Y-110929887D01*
X106993628Y-110929887D02*
X106946009Y-111120363D01*
X106946009Y-111120363D02*
X106898390Y-111215601D01*
X106898390Y-111215601D02*
X106850771Y-111263220D01*
X106850771Y-111263220D02*
X106755533Y-111310839D01*
X106755533Y-111310839D02*
X106660295Y-111310839D01*
X106660295Y-111310839D02*
X106565057Y-111263220D01*
X106565057Y-111263220D02*
X106517438Y-111215601D01*
X106517438Y-111215601D02*
X106469819Y-111120363D01*
X106469819Y-111120363D02*
X106469819Y-110882268D01*
X106469819Y-110882268D02*
X106517438Y-110739411D01*
X144036779Y-74538866D02*
X144798684Y-74538866D01*
X144417731Y-74919819D02*
X144417731Y-74157914D01*
X145179636Y-73919819D02*
X145798683Y-73919819D01*
X145798683Y-73919819D02*
X145465350Y-74300771D01*
X145465350Y-74300771D02*
X145608207Y-74300771D01*
X145608207Y-74300771D02*
X145703445Y-74348390D01*
X145703445Y-74348390D02*
X145751064Y-74396009D01*
X145751064Y-74396009D02*
X145798683Y-74491247D01*
X145798683Y-74491247D02*
X145798683Y-74729342D01*
X145798683Y-74729342D02*
X145751064Y-74824580D01*
X145751064Y-74824580D02*
X145703445Y-74872200D01*
X145703445Y-74872200D02*
X145608207Y-74919819D01*
X145608207Y-74919819D02*
X145322493Y-74919819D01*
X145322493Y-74919819D02*
X145227255Y-74872200D01*
X145227255Y-74872200D02*
X145179636Y-74824580D01*
X146084398Y-73919819D02*
X146417731Y-74919819D01*
X146417731Y-74919819D02*
X146751064Y-73919819D01*
X146989160Y-73919819D02*
X147608207Y-73919819D01*
X147608207Y-73919819D02*
X147274874Y-74300771D01*
X147274874Y-74300771D02*
X147417731Y-74300771D01*
X147417731Y-74300771D02*
X147512969Y-74348390D01*
X147512969Y-74348390D02*
X147560588Y-74396009D01*
X147560588Y-74396009D02*
X147608207Y-74491247D01*
X147608207Y-74491247D02*
X147608207Y-74729342D01*
X147608207Y-74729342D02*
X147560588Y-74824580D01*
X147560588Y-74824580D02*
X147512969Y-74872200D01*
X147512969Y-74872200D02*
X147417731Y-74919819D01*
X147417731Y-74919819D02*
X147132017Y-74919819D01*
X147132017Y-74919819D02*
X147036779Y-74872200D01*
X147036779Y-74872200D02*
X146989160Y-74824580D01*
X179488866Y-116263220D02*
X179488866Y-115501316D01*
X106961133Y-96286779D02*
X106961133Y-97048684D01*
X106580180Y-96667731D02*
X107342085Y-96667731D01*
X135591792Y-47380180D02*
X135925125Y-47856371D01*
X136163220Y-47380180D02*
X136163220Y-48380180D01*
X136163220Y-48380180D02*
X135782268Y-48380180D01*
X135782268Y-48380180D02*
X135687030Y-48332561D01*
X135687030Y-48332561D02*
X135639411Y-48284942D01*
X135639411Y-48284942D02*
X135591792Y-48189704D01*
X135591792Y-48189704D02*
X135591792Y-48046847D01*
X135591792Y-48046847D02*
X135639411Y-47951609D01*
X135639411Y-47951609D02*
X135687030Y-47903990D01*
X135687030Y-47903990D02*
X135782268Y-47856371D01*
X135782268Y-47856371D02*
X136163220Y-47856371D01*
X134782268Y-47427800D02*
X134877506Y-47380180D01*
X134877506Y-47380180D02*
X135067982Y-47380180D01*
X135067982Y-47380180D02*
X135163220Y-47427800D01*
X135163220Y-47427800D02*
X135210839Y-47523038D01*
X135210839Y-47523038D02*
X135210839Y-47903990D01*
X135210839Y-47903990D02*
X135163220Y-47999228D01*
X135163220Y-47999228D02*
X135067982Y-48046847D01*
X135067982Y-48046847D02*
X134877506Y-48046847D01*
X134877506Y-48046847D02*
X134782268Y-47999228D01*
X134782268Y-47999228D02*
X134734649Y-47903990D01*
X134734649Y-47903990D02*
X134734649Y-47808752D01*
X134734649Y-47808752D02*
X135210839Y-47713514D01*
X134401315Y-48046847D02*
X134163220Y-47380180D01*
X134163220Y-47380180D02*
X133925125Y-48046847D01*
X132829886Y-48284942D02*
X132782267Y-48332561D01*
X132782267Y-48332561D02*
X132687029Y-48380180D01*
X132687029Y-48380180D02*
X132448934Y-48380180D01*
X132448934Y-48380180D02*
X132353696Y-48332561D01*
X132353696Y-48332561D02*
X132306077Y-48284942D01*
X132306077Y-48284942D02*
X132258458Y-48189704D01*
X132258458Y-48189704D02*
X132258458Y-48094466D01*
X132258458Y-48094466D02*
X132306077Y-47951609D01*
X132306077Y-47951609D02*
X132877505Y-47380180D01*
X132877505Y-47380180D02*
X132258458Y-47380180D01*
X131829886Y-47475419D02*
X131782267Y-47427800D01*
X131782267Y-47427800D02*
X131829886Y-47380180D01*
X131829886Y-47380180D02*
X131877505Y-47427800D01*
X131877505Y-47427800D02*
X131829886Y-47475419D01*
X131829886Y-47475419D02*
X131829886Y-47380180D01*
X131163220Y-48380180D02*
X131067982Y-48380180D01*
X131067982Y-48380180D02*
X130972744Y-48332561D01*
X130972744Y-48332561D02*
X130925125Y-48284942D01*
X130925125Y-48284942D02*
X130877506Y-48189704D01*
X130877506Y-48189704D02*
X130829887Y-47999228D01*
X130829887Y-47999228D02*
X130829887Y-47761133D01*
X130829887Y-47761133D02*
X130877506Y-47570657D01*
X130877506Y-47570657D02*
X130925125Y-47475419D01*
X130925125Y-47475419D02*
X130972744Y-47427800D01*
X130972744Y-47427800D02*
X131067982Y-47380180D01*
X131067982Y-47380180D02*
X131163220Y-47380180D01*
X131163220Y-47380180D02*
X131258458Y-47427800D01*
X131258458Y-47427800D02*
X131306077Y-47475419D01*
X131306077Y-47475419D02*
X131353696Y-47570657D01*
X131353696Y-47570657D02*
X131401315Y-47761133D01*
X131401315Y-47761133D02*
X131401315Y-47999228D01*
X131401315Y-47999228D02*
X131353696Y-48189704D01*
X131353696Y-48189704D02*
X131306077Y-48284942D01*
X131306077Y-48284942D02*
X131258458Y-48332561D01*
X131258458Y-48332561D02*
X131163220Y-48380180D01*
X179488866Y-121363220D02*
X179488866Y-120601316D01*
X179869819Y-120982268D02*
X179107914Y-120982268D01*
X107011133Y-120736779D02*
X107011133Y-121498684D01*
X181619819Y-119860840D02*
X181143628Y-120194173D01*
X181619819Y-120432268D02*
X180619819Y-120432268D01*
X180619819Y-120432268D02*
X180619819Y-120051316D01*
X180619819Y-120051316D02*
X180667438Y-119956078D01*
X180667438Y-119956078D02*
X180715057Y-119908459D01*
X180715057Y-119908459D02*
X180810295Y-119860840D01*
X180810295Y-119860840D02*
X180953152Y-119860840D01*
X180953152Y-119860840D02*
X181048390Y-119908459D01*
X181048390Y-119908459D02*
X181096009Y-119956078D01*
X181096009Y-119956078D02*
X181143628Y-120051316D01*
X181143628Y-120051316D02*
X181143628Y-120432268D01*
X181715057Y-119670364D02*
X181715057Y-118908459D01*
X181619819Y-118194173D02*
X181619819Y-118670363D01*
X181619819Y-118670363D02*
X180619819Y-118670363D01*
X181096009Y-117860839D02*
X181096009Y-117527506D01*
X181619819Y-117384649D02*
X181619819Y-117860839D01*
X181619819Y-117860839D02*
X180619819Y-117860839D01*
X180619819Y-117860839D02*
X180619819Y-117384649D01*
X181619819Y-116956077D02*
X180619819Y-116956077D01*
X180619819Y-116956077D02*
X180619819Y-116717982D01*
X180619819Y-116717982D02*
X180667438Y-116575125D01*
X180667438Y-116575125D02*
X180762676Y-116479887D01*
X180762676Y-116479887D02*
X180857914Y-116432268D01*
X180857914Y-116432268D02*
X181048390Y-116384649D01*
X181048390Y-116384649D02*
X181191247Y-116384649D01*
X181191247Y-116384649D02*
X181381723Y-116432268D01*
X181381723Y-116432268D02*
X181476961Y-116479887D01*
X181476961Y-116479887D02*
X181572200Y-116575125D01*
X181572200Y-116575125D02*
X181619819Y-116717982D01*
X181619819Y-116717982D02*
X181619819Y-116956077D01*
X161536779Y-92069819D02*
X161536779Y-91069819D01*
X161536779Y-91069819D02*
X161774874Y-91069819D01*
X161774874Y-91069819D02*
X161917731Y-91117438D01*
X161917731Y-91117438D02*
X162012969Y-91212676D01*
X162012969Y-91212676D02*
X162060588Y-91307914D01*
X162060588Y-91307914D02*
X162108207Y-91498390D01*
X162108207Y-91498390D02*
X162108207Y-91641247D01*
X162108207Y-91641247D02*
X162060588Y-91831723D01*
X162060588Y-91831723D02*
X162012969Y-91926961D01*
X162012969Y-91926961D02*
X161917731Y-92022200D01*
X161917731Y-92022200D02*
X161774874Y-92069819D01*
X161774874Y-92069819D02*
X161536779Y-92069819D01*
X163060588Y-92069819D02*
X162489160Y-92069819D01*
X162774874Y-92069819D02*
X162774874Y-91069819D01*
X162774874Y-91069819D02*
X162679636Y-91212676D01*
X162679636Y-91212676D02*
X162584398Y-91307914D01*
X162584398Y-91307914D02*
X162489160Y-91355533D01*
X163393922Y-91069819D02*
X164012969Y-91069819D01*
X164012969Y-91069819D02*
X163679636Y-91450771D01*
X163679636Y-91450771D02*
X163822493Y-91450771D01*
X163822493Y-91450771D02*
X163917731Y-91498390D01*
X163917731Y-91498390D02*
X163965350Y-91546009D01*
X163965350Y-91546009D02*
X164012969Y-91641247D01*
X164012969Y-91641247D02*
X164012969Y-91879342D01*
X164012969Y-91879342D02*
X163965350Y-91974580D01*
X163965350Y-91974580D02*
X163917731Y-92022200D01*
X163917731Y-92022200D02*
X163822493Y-92069819D01*
X163822493Y-92069819D02*
X163536779Y-92069819D01*
X163536779Y-92069819D02*
X163441541Y-92022200D01*
X163441541Y-92022200D02*
X163393922Y-91974580D01*
X180469819Y-90606077D02*
X180469819Y-90034649D01*
X181469819Y-90320363D02*
X180469819Y-90320363D01*
X181469819Y-89701315D02*
X180469819Y-89701315D01*
X180946009Y-89701315D02*
X180946009Y-89129887D01*
X181469819Y-89129887D02*
X180469819Y-89129887D01*
X180946009Y-88653696D02*
X180946009Y-88320363D01*
X181469819Y-88177506D02*
X181469819Y-88653696D01*
X181469819Y-88653696D02*
X180469819Y-88653696D01*
X180469819Y-88653696D02*
X180469819Y-88177506D01*
X181469819Y-87177506D02*
X180993628Y-87510839D01*
X181469819Y-87748934D02*
X180469819Y-87748934D01*
X180469819Y-87748934D02*
X180469819Y-87367982D01*
X180469819Y-87367982D02*
X180517438Y-87272744D01*
X180517438Y-87272744D02*
X180565057Y-87225125D01*
X180565057Y-87225125D02*
X180660295Y-87177506D01*
X180660295Y-87177506D02*
X180803152Y-87177506D01*
X180803152Y-87177506D02*
X180898390Y-87225125D01*
X180898390Y-87225125D02*
X180946009Y-87272744D01*
X180946009Y-87272744D02*
X180993628Y-87367982D01*
X180993628Y-87367982D02*
X180993628Y-87748934D01*
X181469819Y-86748934D02*
X180469819Y-86748934D01*
X180469819Y-86748934D02*
X181184104Y-86415601D01*
X181184104Y-86415601D02*
X180469819Y-86082268D01*
X180469819Y-86082268D02*
X181469819Y-86082268D01*
X180469819Y-85415601D02*
X180469819Y-85225125D01*
X180469819Y-85225125D02*
X180517438Y-85129887D01*
X180517438Y-85129887D02*
X180612676Y-85034649D01*
X180612676Y-85034649D02*
X180803152Y-84987030D01*
X180803152Y-84987030D02*
X181136485Y-84987030D01*
X181136485Y-84987030D02*
X181326961Y-85034649D01*
X181326961Y-85034649D02*
X181422200Y-85129887D01*
X181422200Y-85129887D02*
X181469819Y-85225125D01*
X181469819Y-85225125D02*
X181469819Y-85415601D01*
X181469819Y-85415601D02*
X181422200Y-85510839D01*
X181422200Y-85510839D02*
X181326961Y-85606077D01*
X181326961Y-85606077D02*
X181136485Y-85653696D01*
X181136485Y-85653696D02*
X180803152Y-85653696D01*
X180803152Y-85653696D02*
X180612676Y-85606077D01*
X180612676Y-85606077D02*
X180517438Y-85510839D01*
X180517438Y-85510839D02*
X180469819Y-85415601D01*
X181374580Y-83987030D02*
X181422200Y-84034649D01*
X181422200Y-84034649D02*
X181469819Y-84177506D01*
X181469819Y-84177506D02*
X181469819Y-84272744D01*
X181469819Y-84272744D02*
X181422200Y-84415601D01*
X181422200Y-84415601D02*
X181326961Y-84510839D01*
X181326961Y-84510839D02*
X181231723Y-84558458D01*
X181231723Y-84558458D02*
X181041247Y-84606077D01*
X181041247Y-84606077D02*
X180898390Y-84606077D01*
X180898390Y-84606077D02*
X180707914Y-84558458D01*
X180707914Y-84558458D02*
X180612676Y-84510839D01*
X180612676Y-84510839D02*
X180517438Y-84415601D01*
X180517438Y-84415601D02*
X180469819Y-84272744D01*
X180469819Y-84272744D02*
X180469819Y-84177506D01*
X180469819Y-84177506D02*
X180517438Y-84034649D01*
X180517438Y-84034649D02*
X180565057Y-83987030D01*
X180469819Y-83367982D02*
X180469819Y-83177506D01*
X180469819Y-83177506D02*
X180517438Y-83082268D01*
X180517438Y-83082268D02*
X180612676Y-82987030D01*
X180612676Y-82987030D02*
X180803152Y-82939411D01*
X180803152Y-82939411D02*
X181136485Y-82939411D01*
X181136485Y-82939411D02*
X181326961Y-82987030D01*
X181326961Y-82987030D02*
X181422200Y-83082268D01*
X181422200Y-83082268D02*
X181469819Y-83177506D01*
X181469819Y-83177506D02*
X181469819Y-83367982D01*
X181469819Y-83367982D02*
X181422200Y-83463220D01*
X181422200Y-83463220D02*
X181326961Y-83558458D01*
X181326961Y-83558458D02*
X181136485Y-83606077D01*
X181136485Y-83606077D02*
X180803152Y-83606077D01*
X180803152Y-83606077D02*
X180612676Y-83558458D01*
X180612676Y-83558458D02*
X180517438Y-83463220D01*
X180517438Y-83463220D02*
X180469819Y-83367982D01*
X180469819Y-82510839D02*
X181279342Y-82510839D01*
X181279342Y-82510839D02*
X181374580Y-82463220D01*
X181374580Y-82463220D02*
X181422200Y-82415601D01*
X181422200Y-82415601D02*
X181469819Y-82320363D01*
X181469819Y-82320363D02*
X181469819Y-82129887D01*
X181469819Y-82129887D02*
X181422200Y-82034649D01*
X181422200Y-82034649D02*
X181374580Y-81987030D01*
X181374580Y-81987030D02*
X181279342Y-81939411D01*
X181279342Y-81939411D02*
X180469819Y-81939411D01*
X181469819Y-81463220D02*
X180469819Y-81463220D01*
X180469819Y-81463220D02*
X180469819Y-81082268D01*
X180469819Y-81082268D02*
X180517438Y-80987030D01*
X180517438Y-80987030D02*
X180565057Y-80939411D01*
X180565057Y-80939411D02*
X180660295Y-80891792D01*
X180660295Y-80891792D02*
X180803152Y-80891792D01*
X180803152Y-80891792D02*
X180898390Y-80939411D01*
X180898390Y-80939411D02*
X180946009Y-80987030D01*
X180946009Y-80987030D02*
X180993628Y-81082268D01*
X180993628Y-81082268D02*
X180993628Y-81463220D01*
X181469819Y-79987030D02*
X181469819Y-80463220D01*
X181469819Y-80463220D02*
X180469819Y-80463220D01*
X180946009Y-79653696D02*
X180946009Y-79320363D01*
X181469819Y-79177506D02*
X181469819Y-79653696D01*
X181469819Y-79653696D02*
X180469819Y-79653696D01*
X180469819Y-79653696D02*
X180469819Y-79177506D01*
D11*
G36*
X115412133Y-51633213D02*
G01*
X115443677Y-51635281D01*
X115474366Y-51638727D01*
X115504200Y-51643552D01*
X115533180Y-51649755D01*
X115561304Y-51657336D01*
X115588574Y-51666296D01*
X115614989Y-51676635D01*
X115640549Y-51688351D01*
X115665254Y-51701447D01*
X115689105Y-51715920D01*
X115712100Y-51731772D01*
X115734241Y-51749003D01*
X115755526Y-51767612D01*
X115775957Y-51787599D01*
X115795533Y-51808965D01*
X115814001Y-51831937D01*
X115831277Y-51856741D01*
X115847361Y-51883377D01*
X115862254Y-51911846D01*
X115875956Y-51942148D01*
X115888466Y-51974283D01*
X115899785Y-52008250D01*
X115909912Y-52044049D01*
X115918848Y-52081681D01*
X115926593Y-52121146D01*
X115933145Y-52162443D01*
X115938507Y-52205573D01*
X115942677Y-52250535D01*
X115945656Y-52297330D01*
X115947443Y-52345958D01*
X115948039Y-52396418D01*
X115947438Y-52447375D01*
X115945634Y-52496468D01*
X115942629Y-52543695D01*
X115938422Y-52589059D01*
X115933012Y-52632557D01*
X115926400Y-52674191D01*
X115918586Y-52713960D01*
X115909570Y-52751865D01*
X115899352Y-52787905D01*
X115887932Y-52822080D01*
X115875310Y-52854391D01*
X115861485Y-52884837D01*
X115846458Y-52913418D01*
X115830230Y-52940135D01*
X115812799Y-52964987D01*
X115794166Y-52987974D01*
X115774544Y-53009340D01*
X115754148Y-53029328D01*
X115732977Y-53047937D01*
X115711031Y-53065167D01*
X115688311Y-53081019D01*
X115664816Y-53095493D01*
X115640546Y-53108588D01*
X115615502Y-53120305D01*
X115589683Y-53130643D01*
X115563089Y-53139603D01*
X115535720Y-53147185D01*
X115507577Y-53153388D01*
X115478659Y-53158212D01*
X115448966Y-53161659D01*
X115418499Y-53163726D01*
X115387257Y-53164415D01*
X115354522Y-53163737D01*
X115322652Y-53161701D01*
X115291647Y-53158309D01*
X115261509Y-53153559D01*
X115232235Y-53147452D01*
X115203828Y-53139988D01*
X115176285Y-53131167D01*
X115149609Y-53120989D01*
X115123798Y-53109454D01*
X115098852Y-53096562D01*
X115074772Y-53082312D01*
X115051557Y-53066706D01*
X115029208Y-53049743D01*
X115007725Y-53031422D01*
X114987107Y-53011745D01*
X114967355Y-52990710D01*
X114948639Y-52968179D01*
X114931130Y-52944014D01*
X114914830Y-52918213D01*
X114899736Y-52890778D01*
X114885850Y-52861708D01*
X114873172Y-52831003D01*
X114861701Y-52798663D01*
X114851437Y-52764688D01*
X114842381Y-52729078D01*
X114834532Y-52691833D01*
X114827891Y-52652953D01*
X114822458Y-52612439D01*
X114818231Y-52570289D01*
X114815213Y-52526505D01*
X114813402Y-52481086D01*
X114812798Y-52434032D01*
X114812943Y-52405799D01*
X114813378Y-52378119D01*
X114815117Y-52324418D01*
X114818015Y-52272930D01*
X114822073Y-52223653D01*
X114827290Y-52176588D01*
X114833667Y-52131735D01*
X114841203Y-52089094D01*
X114849898Y-52048665D01*
X114859753Y-52010448D01*
X114870767Y-51974443D01*
X114882941Y-51940650D01*
X114896274Y-51909068D01*
X114910766Y-51879699D01*
X114926418Y-51852541D01*
X114943229Y-51827596D01*
X114961200Y-51804862D01*
X114980145Y-51783993D01*
X115000053Y-51764470D01*
X115020922Y-51746294D01*
X115042752Y-51729464D01*
X115065545Y-51713981D01*
X115089299Y-51699844D01*
X115114015Y-51687053D01*
X115139692Y-51675609D01*
X115166332Y-51665511D01*
X115193933Y-51656759D01*
X115222495Y-51649354D01*
X115252020Y-51643295D01*
X115282506Y-51638583D01*
X115313954Y-51635217D01*
X115346363Y-51633197D01*
X115379734Y-51632524D01*
X115412133Y-51633213D01*
G37*
G36*
X123801973Y-51633213D02*
G01*
X123833517Y-51635281D01*
X123864206Y-51638727D01*
X123894040Y-51643552D01*
X123923019Y-51649755D01*
X123951144Y-51657336D01*
X123978414Y-51666296D01*
X124004829Y-51676635D01*
X124030389Y-51688351D01*
X124055094Y-51701447D01*
X124078944Y-51715920D01*
X124101939Y-51731772D01*
X124124080Y-51749003D01*
X124145366Y-51767612D01*
X124165797Y-51787599D01*
X124185373Y-51808965D01*
X124203840Y-51831937D01*
X124221116Y-51856741D01*
X124237201Y-51883377D01*
X124252094Y-51911846D01*
X124265796Y-51942148D01*
X124278306Y-51974283D01*
X124289624Y-52008250D01*
X124299752Y-52044049D01*
X124308688Y-52081681D01*
X124316432Y-52121146D01*
X124322985Y-52162443D01*
X124328346Y-52205573D01*
X124332517Y-52250535D01*
X124335495Y-52297330D01*
X124337282Y-52345958D01*
X124337878Y-52396418D01*
X124337277Y-52447375D01*
X124335474Y-52496468D01*
X124332468Y-52543695D01*
X124328261Y-52589059D01*
X124322851Y-52632557D01*
X124316240Y-52674191D01*
X124308426Y-52713960D01*
X124299410Y-52751865D01*
X124289192Y-52787905D01*
X124277771Y-52822080D01*
X124265149Y-52854391D01*
X124251325Y-52884837D01*
X124236298Y-52913418D01*
X124220069Y-52940135D01*
X124202638Y-52964987D01*
X124184005Y-52987974D01*
X124164384Y-53009340D01*
X124143987Y-53029328D01*
X124122817Y-53047937D01*
X124100871Y-53065167D01*
X124078151Y-53081019D01*
X124054656Y-53095493D01*
X124030386Y-53108588D01*
X124005341Y-53120305D01*
X123979522Y-53130643D01*
X123952928Y-53139603D01*
X123925560Y-53147185D01*
X123897417Y-53153388D01*
X123868499Y-53158212D01*
X123838806Y-53161659D01*
X123808339Y-53163726D01*
X123777096Y-53164415D01*
X123744361Y-53163737D01*
X123712491Y-53161701D01*
X123681487Y-53158309D01*
X123651348Y-53153559D01*
X123622075Y-53147452D01*
X123593667Y-53139988D01*
X123566125Y-53131167D01*
X123539448Y-53120989D01*
X123513637Y-53109454D01*
X123488691Y-53096562D01*
X123464611Y-53082312D01*
X123441397Y-53066706D01*
X123419048Y-53049743D01*
X123397564Y-53031422D01*
X123376947Y-53011745D01*
X123357194Y-52990710D01*
X123338478Y-52968179D01*
X123320970Y-52944014D01*
X123304669Y-52918213D01*
X123289576Y-52890778D01*
X123275690Y-52861708D01*
X123263011Y-52831003D01*
X123251540Y-52798663D01*
X123241277Y-52764688D01*
X123232220Y-52729078D01*
X123224372Y-52691833D01*
X123217731Y-52652953D01*
X123212297Y-52612439D01*
X123208071Y-52570289D01*
X123205052Y-52526505D01*
X123203241Y-52481086D01*
X123202637Y-52434032D01*
X123202782Y-52405799D01*
X123203217Y-52378119D01*
X123204956Y-52324418D01*
X123207855Y-52272930D01*
X123211912Y-52223653D01*
X123217130Y-52176588D01*
X123223506Y-52131735D01*
X123231042Y-52089094D01*
X123239738Y-52048665D01*
X123249593Y-52010448D01*
X123260607Y-51974443D01*
X123272780Y-51940650D01*
X123286113Y-51909068D01*
X123300606Y-51879699D01*
X123316258Y-51852541D01*
X123333069Y-51827596D01*
X123351039Y-51804862D01*
X123369985Y-51783993D01*
X123389892Y-51764470D01*
X123410761Y-51746294D01*
X123432592Y-51729464D01*
X123455384Y-51713981D01*
X123479139Y-51699844D01*
X123503854Y-51687053D01*
X123529532Y-51675609D01*
X123556171Y-51665511D01*
X123583772Y-51656759D01*
X123612335Y-51649354D01*
X123641859Y-51643295D01*
X123672345Y-51638583D01*
X123703793Y-51635217D01*
X123736203Y-51633197D01*
X123769574Y-51632524D01*
X123801973Y-51633213D01*
G37*
G36*
X135281325Y-53208184D02*
G01*
X134920237Y-53208184D01*
X134905980Y-53208118D01*
X134864981Y-53207137D01*
X134826639Y-53204977D01*
X134790954Y-53201639D01*
X134757925Y-53197123D01*
X134727554Y-53191429D01*
X134699838Y-53184556D01*
X134667018Y-53173561D01*
X134638920Y-53160471D01*
X134610439Y-53141163D01*
X134587388Y-53118997D01*
X134568244Y-53093960D01*
X134553007Y-53066050D01*
X134541677Y-53035269D01*
X134535426Y-53008576D01*
X134531675Y-52980046D01*
X134530425Y-52949677D01*
X134530620Y-52939237D01*
X134533545Y-52908815D01*
X134539981Y-52879740D01*
X134549926Y-52852010D01*
X134563382Y-52825628D01*
X134580348Y-52800591D01*
X134586704Y-52792745D01*
X134607148Y-52771484D01*
X134629660Y-52753636D01*
X134654240Y-52739202D01*
X134680887Y-52728183D01*
X134709602Y-52720577D01*
X134720050Y-52718263D01*
X134750090Y-52711762D01*
X134778169Y-52705921D01*
X134812561Y-52699163D01*
X134843469Y-52693579D01*
X134877206Y-52688253D01*
X134905499Y-52684764D01*
X134935966Y-52682964D01*
X135281325Y-52682964D01*
X135281325Y-53208184D01*
G37*
G36*
X136599776Y-54264709D02*
G01*
X104632630Y-54264709D01*
X104632630Y-50976000D01*
X105032630Y-50976000D01*
X105032630Y-53820940D01*
X105897055Y-53820940D01*
X105897055Y-52292468D01*
X106925610Y-53820940D01*
X107772937Y-53820940D01*
X107772937Y-50976000D01*
X108188053Y-50976000D01*
X108188053Y-51676293D01*
X109691905Y-51676293D01*
X109691905Y-52157744D01*
X108335771Y-52157744D01*
X108335771Y-52770501D01*
X109691905Y-52770501D01*
X109691905Y-53120647D01*
X108230453Y-53120647D01*
X108230453Y-53820940D01*
X110608988Y-53820940D01*
X110741660Y-53820940D01*
X111674473Y-53820940D01*
X112283126Y-51856153D01*
X112902037Y-53820940D01*
X113860837Y-53820940D01*
X113327950Y-52419670D01*
X113897766Y-52419670D01*
X113897894Y-52434032D01*
X113898145Y-52462075D01*
X113899281Y-52503889D01*
X113901174Y-52545113D01*
X113903825Y-52585746D01*
X113907233Y-52625789D01*
X113911399Y-52665242D01*
X113916321Y-52704104D01*
X113922001Y-52742376D01*
X113928439Y-52780058D01*
X113935634Y-52817149D01*
X113943586Y-52853649D01*
X113952295Y-52889560D01*
X113961762Y-52924880D01*
X113971986Y-52959609D01*
X113982968Y-52993749D01*
X113994706Y-53027297D01*
X114007203Y-53060256D01*
X114020456Y-53092624D01*
X114034467Y-53124402D01*
X114049235Y-53155589D01*
X114064761Y-53186186D01*
X114081044Y-53216193D01*
X114098084Y-53245609D01*
X114115881Y-53274435D01*
X114134436Y-53302670D01*
X114153749Y-53330315D01*
X114173818Y-53357370D01*
X114194645Y-53383834D01*
X114216229Y-53409708D01*
X114238571Y-53434991D01*
X114261670Y-53459685D01*
X114285526Y-53483787D01*
X114310037Y-53507223D01*
X114335182Y-53529915D01*
X114360964Y-53551862D01*
X114387382Y-53573066D01*
X114414435Y-53593525D01*
X114442124Y-53613241D01*
X114470449Y-53632213D01*
X114499410Y-53650440D01*
X114529006Y-53667924D01*
X114559239Y-53684664D01*
X114590107Y-53700659D01*
X114621611Y-53715911D01*
X114653750Y-53730419D01*
X114686526Y-53744183D01*
X114719937Y-53757202D01*
X114753984Y-53769478D01*
X114788667Y-53781010D01*
X114823986Y-53791798D01*
X114859940Y-53801842D01*
X114896530Y-53811141D01*
X114933756Y-53819697D01*
X114971618Y-53827509D01*
X115010116Y-53834577D01*
X115049249Y-53840901D01*
X115089019Y-53846481D01*
X115129424Y-53851317D01*
X115170464Y-53855409D01*
X115212141Y-53858757D01*
X115254453Y-53861361D01*
X115297402Y-53863221D01*
X115340986Y-53864337D01*
X115385205Y-53864709D01*
X115428377Y-53864330D01*
X115470955Y-53863194D01*
X115512938Y-53861300D01*
X115554327Y-53858650D01*
X115595121Y-53855242D01*
X115635321Y-53851076D01*
X115674927Y-53846154D01*
X115713938Y-53840474D01*
X115752355Y-53834036D01*
X115790177Y-53826841D01*
X115817803Y-53820940D01*
X118243824Y-53820940D01*
X119112351Y-53820940D01*
X119396845Y-52365644D01*
X119812644Y-53820940D01*
X120670914Y-53820940D01*
X121084661Y-52384792D01*
X121369155Y-53820940D01*
X122241786Y-53820940D01*
X121928185Y-52419670D01*
X122287606Y-52419670D01*
X122287734Y-52434032D01*
X122287985Y-52462075D01*
X122289121Y-52503889D01*
X122291014Y-52545113D01*
X122293665Y-52585746D01*
X122297073Y-52625789D01*
X122301238Y-52665242D01*
X122306161Y-52704104D01*
X122311841Y-52742376D01*
X122318278Y-52780058D01*
X122325473Y-52817149D01*
X122333425Y-52853649D01*
X122342135Y-52889560D01*
X122351601Y-52924880D01*
X122361826Y-52959609D01*
X122372807Y-52993749D01*
X122384546Y-53027297D01*
X122397042Y-53060256D01*
X122410296Y-53092624D01*
X122424306Y-53124402D01*
X122439075Y-53155589D01*
X122454600Y-53186186D01*
X122470883Y-53216193D01*
X122487923Y-53245609D01*
X122505721Y-53274435D01*
X122524276Y-53302670D01*
X122543588Y-53330315D01*
X122563658Y-53357370D01*
X122584485Y-53383834D01*
X122606069Y-53409708D01*
X122628411Y-53434991D01*
X122651510Y-53459685D01*
X122675366Y-53483787D01*
X122699876Y-53507223D01*
X122725022Y-53529915D01*
X122750804Y-53551862D01*
X122777221Y-53573066D01*
X122804275Y-53593525D01*
X122831964Y-53613241D01*
X122860289Y-53632213D01*
X122889249Y-53650440D01*
X122918846Y-53667924D01*
X122949078Y-53684664D01*
X122979946Y-53700659D01*
X123011450Y-53715911D01*
X123043590Y-53730419D01*
X123076365Y-53744183D01*
X123109777Y-53757202D01*
X123143824Y-53769478D01*
X123178507Y-53781010D01*
X123213825Y-53791798D01*
X123249780Y-53801842D01*
X123286370Y-53811141D01*
X123323596Y-53819697D01*
X123361458Y-53827509D01*
X123399955Y-53834577D01*
X123439089Y-53840901D01*
X123478858Y-53846481D01*
X123519263Y-53851317D01*
X123560304Y-53855409D01*
X123601980Y-53858757D01*
X123644293Y-53861361D01*
X123687241Y-53863221D01*
X123730825Y-53864337D01*
X123775045Y-53864709D01*
X123818217Y-53864330D01*
X123860794Y-53863194D01*
X123902777Y-53861300D01*
X123944166Y-53858650D01*
X123984961Y-53855242D01*
X124025161Y-53851076D01*
X124064766Y-53846154D01*
X124103777Y-53840474D01*
X124142194Y-53834036D01*
X124180017Y-53826841D01*
X124217245Y-53818889D01*
X124253878Y-53810180D01*
X124289918Y-53800713D01*
X124325363Y-53790489D01*
X124360213Y-53779507D01*
X124394469Y-53767769D01*
X124428131Y-53755272D01*
X124461198Y-53742019D01*
X124493671Y-53728008D01*
X124525550Y-53713240D01*
X124556834Y-53697714D01*
X124587524Y-53681431D01*
X124617619Y-53664391D01*
X124647120Y-53646594D01*
X124676027Y-53628039D01*
X124704339Y-53608726D01*
X124732057Y-53588657D01*
X124759180Y-53567830D01*
X124785709Y-53546246D01*
X124811644Y-53523904D01*
X124836984Y-53500805D01*
X124861730Y-53476949D01*
X124885797Y-53452416D01*
X124909100Y-53427287D01*
X124931638Y-53401563D01*
X124953413Y-53375243D01*
X124974423Y-53348327D01*
X124994670Y-53320816D01*
X125014153Y-53292708D01*
X125032871Y-53264005D01*
X125050826Y-53234707D01*
X125068016Y-53204812D01*
X125084443Y-53174322D01*
X125100105Y-53143237D01*
X125115003Y-53111555D01*
X125129138Y-53079278D01*
X125142508Y-53046405D01*
X125155115Y-53012936D01*
X125166957Y-52978872D01*
X125178035Y-52944211D01*
X125188350Y-52908956D01*
X125197900Y-52873104D01*
X125206686Y-52836657D01*
X125214708Y-52799614D01*
X125221967Y-52761975D01*
X125228461Y-52723740D01*
X125234191Y-52684910D01*
X125239157Y-52645484D01*
X125243359Y-52605462D01*
X125246797Y-52564845D01*
X125249471Y-52523632D01*
X125251381Y-52481823D01*
X125252527Y-52439418D01*
X125252909Y-52396418D01*
X125252717Y-52365590D01*
X125252140Y-52335083D01*
X125251178Y-52304896D01*
X125249832Y-52275030D01*
X125248101Y-52245484D01*
X125245985Y-52216259D01*
X125243485Y-52187354D01*
X125240600Y-52158770D01*
X125237330Y-52130506D01*
X125233675Y-52102564D01*
X125229636Y-52074941D01*
X125225212Y-52047639D01*
X125215211Y-51993998D01*
X125203670Y-51941638D01*
X125190591Y-51890561D01*
X125175973Y-51840766D01*
X125159816Y-51792253D01*
X125142121Y-51745023D01*
X125122887Y-51699074D01*
X125102114Y-51654408D01*
X125079802Y-51611025D01*
X125055952Y-51568923D01*
X125030777Y-51528243D01*
X125004661Y-51488952D01*
X124977605Y-51451050D01*
X124949609Y-51414538D01*
X124920672Y-51379414D01*
X124890795Y-51345679D01*
X124859978Y-51313334D01*
X124828220Y-51282378D01*
X124795522Y-51252811D01*
X124761884Y-51224633D01*
X124727305Y-51197844D01*
X124691786Y-51172444D01*
X124655327Y-51148433D01*
X124617927Y-51125812D01*
X124579587Y-51104580D01*
X124540307Y-51084736D01*
X124520271Y-51075354D01*
X124479238Y-51057482D01*
X124436923Y-51040802D01*
X124393326Y-51025313D01*
X124348446Y-51011016D01*
X124302284Y-50997910D01*
X124254840Y-50985995D01*
X124209422Y-50976000D01*
X125448499Y-50976000D01*
X125448499Y-51720061D01*
X126808053Y-51720061D01*
X126808053Y-53820940D01*
X127723084Y-53820940D01*
X128133412Y-53820940D01*
X130331402Y-53820940D01*
X130331402Y-50976000D01*
X130745150Y-50976000D01*
X130745150Y-51676293D01*
X132249002Y-51676293D01*
X132249002Y-52157744D01*
X130892868Y-52157744D01*
X130892868Y-52770501D01*
X132249002Y-52770501D01*
X132249002Y-53120647D01*
X130787550Y-53120647D01*
X130787550Y-53820940D01*
X133166085Y-53820940D01*
X133166085Y-50976000D01*
X133368513Y-50976000D01*
X133806196Y-51813069D01*
X133820389Y-51838770D01*
X133835486Y-51863017D01*
X133853555Y-51889834D01*
X133870150Y-51913139D01*
X133888647Y-51938090D01*
X133909045Y-51964687D01*
X133931346Y-51992929D01*
X133948407Y-52014159D01*
X133969976Y-52040296D01*
X133990198Y-52063954D01*
X134009074Y-52085133D01*
X134030776Y-52108120D01*
X134050374Y-52127234D01*
X134074277Y-52147486D01*
X134083555Y-52154140D01*
X134107147Y-52169912D01*
X134131306Y-52184447D01*
X134156034Y-52197748D01*
X134181328Y-52209812D01*
X134207191Y-52220642D01*
X134233621Y-52230235D01*
X134203306Y-52237726D01*
X134173226Y-52246520D01*
X134143381Y-52256618D01*
X134113771Y-52268020D01*
X134084397Y-52280725D01*
X134055257Y-52294734D01*
X134026352Y-52310046D01*
X133997683Y-52326662D01*
X133975499Y-52340426D01*
X133943346Y-52362032D01*
X133912540Y-52384792D01*
X133883079Y-52408707D01*
X133854965Y-52433775D01*
X133828198Y-52459998D01*
X133802777Y-52487374D01*
X133778702Y-52515905D01*
X133755974Y-52545590D01*
X133734592Y-52576428D01*
X133714556Y-52608421D01*
X133702052Y-52630391D01*
X133684807Y-52664307D01*
X133669378Y-52699377D01*
X133655763Y-52735601D01*
X133643964Y-52772980D01*
X133633981Y-52811512D01*
X133625812Y-52851198D01*
X133621375Y-52878297D01*
X133617745Y-52905909D01*
X133614921Y-52934033D01*
X133613819Y-52949677D01*
X133612904Y-52962671D01*
X133611694Y-52991821D01*
X133611290Y-53021484D01*
X133611819Y-53055443D01*
X133613406Y-53088761D01*
X133616051Y-53121438D01*
X133619754Y-53153473D01*
X133624514Y-53184868D01*
X133630332Y-53215621D01*
X133637208Y-53245733D01*
X133645143Y-53275204D01*
X133654135Y-53304034D01*
X133664184Y-53332222D01*
X133675292Y-53359770D01*
X133687458Y-53386676D01*
X133700681Y-53412942D01*
X133714962Y-53438566D01*
X133730302Y-53463549D01*
X133746699Y-53487891D01*
X133763868Y-53511436D01*
X133781694Y-53534031D01*
X133800178Y-53555675D01*
X133819318Y-53576368D01*
X133839116Y-53596109D01*
X133859571Y-53614900D01*
X133880683Y-53632740D01*
X133902452Y-53649628D01*
X133924879Y-53665566D01*
X133947962Y-53680552D01*
X133971703Y-53694588D01*
X133996101Y-53707673D01*
X134021156Y-53719806D01*
X134046869Y-53730989D01*
X134073238Y-53741220D01*
X134100265Y-53750501D01*
X134128274Y-53759030D01*
X134157764Y-53767010D01*
X134188734Y-53774439D01*
X134221183Y-53781318D01*
X134255113Y-53787646D01*
X134290522Y-53793425D01*
X134327412Y-53798653D01*
X134365781Y-53803330D01*
X134405630Y-53807458D01*
X134446960Y-53811035D01*
X134489769Y-53814061D01*
X134534058Y-53816538D01*
X134579827Y-53818464D01*
X134627077Y-53819840D01*
X134675806Y-53820665D01*
X134726015Y-53820940D01*
X136199776Y-53820940D01*
X136199776Y-50976000D01*
X135281325Y-50976000D01*
X135281325Y-52113976D01*
X135225931Y-52113976D01*
X135212002Y-52113738D01*
X135177975Y-52111063D01*
X135145084Y-52105417D01*
X135113327Y-52096798D01*
X135082706Y-52085207D01*
X135053221Y-52070645D01*
X135024870Y-52053110D01*
X135016747Y-52046766D01*
X134995666Y-52027001D01*
X134973483Y-52001659D01*
X134954944Y-51977371D01*
X134935699Y-51949513D01*
X134920802Y-51926278D01*
X134905509Y-51901035D01*
X134889819Y-51873785D01*
X134873733Y-51844527D01*
X134402540Y-50976000D01*
X133368513Y-50976000D01*
X133166085Y-50976000D01*
X130745150Y-50976000D01*
X130331402Y-50976000D01*
X129412951Y-50976000D01*
X129412951Y-52113976D01*
X128320111Y-52113976D01*
X128320111Y-52726732D01*
X129412951Y-52726732D01*
X129412951Y-53120647D01*
X128133412Y-53120647D01*
X128133412Y-53820940D01*
X127723084Y-53820940D01*
X127723084Y-50976000D01*
X125448499Y-50976000D01*
X124209422Y-50976000D01*
X124206114Y-50975272D01*
X124156105Y-50965741D01*
X124104814Y-50957401D01*
X124052241Y-50950252D01*
X123998385Y-50944295D01*
X123970976Y-50941763D01*
X123943247Y-50939529D01*
X123915198Y-50937593D01*
X123886827Y-50935954D01*
X123858136Y-50934614D01*
X123829125Y-50933572D01*
X123799793Y-50932827D01*
X123770140Y-50932380D01*
X123740167Y-50932231D01*
X123710655Y-50932404D01*
X123681447Y-50932923D01*
X123652542Y-50933788D01*
X123623939Y-50934999D01*
X123595641Y-50936556D01*
X123567645Y-50938458D01*
X123539952Y-50940707D01*
X123512563Y-50943301D01*
X123458694Y-50949529D01*
X123406038Y-50957139D01*
X123354595Y-50966134D01*
X123304364Y-50976512D01*
X123255347Y-50988275D01*
X123207542Y-51001421D01*
X123160950Y-51015950D01*
X123115571Y-51031864D01*
X123071404Y-51049161D01*
X123028451Y-51067842D01*
X122986710Y-51087907D01*
X122946182Y-51109356D01*
X122906766Y-51132133D01*
X122868530Y-51156010D01*
X122831475Y-51180987D01*
X122795601Y-51207065D01*
X122760907Y-51234244D01*
X122727394Y-51262524D01*
X122695062Y-51291904D01*
X122663911Y-51322385D01*
X122633940Y-51353966D01*
X122605151Y-51386648D01*
X122577542Y-51420431D01*
X122551113Y-51455314D01*
X122525866Y-51491298D01*
X122501799Y-51528382D01*
X122478913Y-51566567D01*
X122457208Y-51605853D01*
X122446774Y-51625943D01*
X122426898Y-51667158D01*
X122408348Y-51709751D01*
X122391123Y-51753722D01*
X122375223Y-51799072D01*
X122360648Y-51845800D01*
X122347397Y-51893907D01*
X122335472Y-51943392D01*
X122324872Y-51994255D01*
X122315597Y-52046497D01*
X122307647Y-52100118D01*
X122304169Y-52127445D01*
X122301022Y-52155117D01*
X122298206Y-52183133D01*
X122295722Y-52211494D01*
X122293568Y-52240200D01*
X122291747Y-52269250D01*
X122290256Y-52298645D01*
X122289097Y-52328384D01*
X122288268Y-52358468D01*
X122287772Y-52388897D01*
X122287606Y-52419670D01*
X121928185Y-52419670D01*
X121605094Y-50976000D01*
X120716734Y-50976000D01*
X120240753Y-52680228D01*
X119762721Y-50976000D01*
X118875045Y-50976000D01*
X118243824Y-53820940D01*
X115817803Y-53820940D01*
X115827405Y-53818889D01*
X115864039Y-53810180D01*
X115900078Y-53800713D01*
X115935523Y-53790489D01*
X115970374Y-53779507D01*
X116004630Y-53767769D01*
X116038291Y-53755272D01*
X116071359Y-53742019D01*
X116103832Y-53728008D01*
X116135710Y-53713240D01*
X116166994Y-53697714D01*
X116197684Y-53681431D01*
X116227780Y-53664391D01*
X116257281Y-53646594D01*
X116286187Y-53628039D01*
X116314499Y-53608726D01*
X116342217Y-53588657D01*
X116369341Y-53567830D01*
X116395870Y-53546246D01*
X116421804Y-53523904D01*
X116447145Y-53500805D01*
X116471891Y-53476949D01*
X116495957Y-53452416D01*
X116519260Y-53427287D01*
X116541799Y-53401563D01*
X116563573Y-53375243D01*
X116584584Y-53348327D01*
X116604830Y-53320816D01*
X116624313Y-53292708D01*
X116643032Y-53264005D01*
X116660986Y-53234707D01*
X116678177Y-53204812D01*
X116694603Y-53174322D01*
X116710266Y-53143237D01*
X116725164Y-53111555D01*
X116739298Y-53079278D01*
X116752669Y-53046405D01*
X116765275Y-53012936D01*
X116777117Y-52978872D01*
X116788196Y-52944211D01*
X116798510Y-52908956D01*
X116808060Y-52873104D01*
X116816847Y-52836657D01*
X116824869Y-52799614D01*
X116832127Y-52761975D01*
X116838621Y-52723740D01*
X116844351Y-52684910D01*
X116849318Y-52645484D01*
X116853520Y-52605462D01*
X116856958Y-52564845D01*
X116859632Y-52523632D01*
X116861542Y-52481823D01*
X116862688Y-52439418D01*
X116863070Y-52396418D01*
X116862878Y-52365590D01*
X116862301Y-52335083D01*
X116861339Y-52304896D01*
X116859993Y-52275030D01*
X116858261Y-52245484D01*
X116856146Y-52216259D01*
X116853645Y-52187354D01*
X116850760Y-52158770D01*
X116847490Y-52130506D01*
X116843836Y-52102564D01*
X116839797Y-52074941D01*
X116835373Y-52047639D01*
X116825371Y-51993998D01*
X116813831Y-51941638D01*
X116800751Y-51890561D01*
X116786133Y-51840766D01*
X116769977Y-51792253D01*
X116752281Y-51745023D01*
X116733047Y-51699074D01*
X116712274Y-51654408D01*
X116689963Y-51611025D01*
X116666113Y-51568923D01*
X116640937Y-51528243D01*
X116614822Y-51488952D01*
X116587766Y-51451050D01*
X116559769Y-51414538D01*
X116530833Y-51379414D01*
X116500956Y-51345679D01*
X116470138Y-51313334D01*
X116438381Y-51282378D01*
X116405683Y-51252811D01*
X116372044Y-51224633D01*
X116337465Y-51197844D01*
X116301946Y-51172444D01*
X116265487Y-51148433D01*
X116228087Y-51125812D01*
X116189747Y-51104580D01*
X116150467Y-51084736D01*
X116130432Y-51075354D01*
X116089399Y-51057482D01*
X116047084Y-51040802D01*
X116003486Y-51025313D01*
X115958607Y-51011016D01*
X115912445Y-50997910D01*
X115865001Y-50985995D01*
X115816274Y-50975272D01*
X115766265Y-50965741D01*
X115714974Y-50957401D01*
X115662401Y-50950252D01*
X115608546Y-50944295D01*
X115581137Y-50941763D01*
X115553408Y-50939529D01*
X115525358Y-50937593D01*
X115496988Y-50935954D01*
X115468297Y-50934614D01*
X115439285Y-50933572D01*
X115409953Y-50932827D01*
X115380301Y-50932380D01*
X115350327Y-50932231D01*
X115320816Y-50932404D01*
X115291607Y-50932923D01*
X115262702Y-50933788D01*
X115234100Y-50934999D01*
X115205801Y-50936556D01*
X115177805Y-50938458D01*
X115150113Y-50940707D01*
X115122724Y-50943301D01*
X115068855Y-50949529D01*
X115016199Y-50957139D01*
X114964755Y-50966134D01*
X114914525Y-50976512D01*
X114865507Y-50988275D01*
X114817703Y-51001421D01*
X114771111Y-51015950D01*
X114725731Y-51031864D01*
X114681565Y-51049161D01*
X114638611Y-51067842D01*
X114596871Y-51087907D01*
X114556343Y-51109356D01*
X114516926Y-51132133D01*
X114478690Y-51156010D01*
X114441635Y-51180987D01*
X114405761Y-51207065D01*
X114371067Y-51234244D01*
X114337555Y-51262524D01*
X114305223Y-51291904D01*
X114274071Y-51322385D01*
X114244101Y-51353966D01*
X114215311Y-51386648D01*
X114187702Y-51420431D01*
X114161274Y-51455314D01*
X114136026Y-51491298D01*
X114111960Y-51528382D01*
X114089074Y-51566567D01*
X114067369Y-51605853D01*
X114056934Y-51625943D01*
X114037059Y-51667158D01*
X114018509Y-51709751D01*
X114001283Y-51753722D01*
X113985383Y-51799072D01*
X113970808Y-51845800D01*
X113957558Y-51893907D01*
X113945633Y-51943392D01*
X113935033Y-51994255D01*
X113925757Y-52046497D01*
X113917807Y-52100118D01*
X113914329Y-52127445D01*
X113911182Y-52155117D01*
X113908367Y-52183133D01*
X113905882Y-52211494D01*
X113903729Y-52240200D01*
X113901907Y-52269250D01*
X113900416Y-52298645D01*
X113899257Y-52328384D01*
X113898429Y-52358468D01*
X113897932Y-52388897D01*
X113897766Y-52419670D01*
X113327950Y-52419670D01*
X112778939Y-50976000D01*
X111804410Y-50976000D01*
X110741660Y-53820940D01*
X110608988Y-53820940D01*
X110608988Y-50976000D01*
X108188053Y-50976000D01*
X107772937Y-50976000D01*
X106909881Y-50976000D01*
X106909881Y-52496265D01*
X105886796Y-50976000D01*
X105032630Y-50976000D01*
X104632630Y-50976000D01*
X104632630Y-50532231D01*
X136599776Y-50532231D01*
X136599776Y-54264709D01*
G37*
D10*
X104930180Y-114036779D02*
X105930180Y-114036779D01*
X105453990Y-114036779D02*
X105453990Y-114608207D01*
X104930180Y-114608207D02*
X105930180Y-114608207D01*
X104834942Y-114846303D02*
X104834942Y-115608207D01*
X105453990Y-116179636D02*
X105453990Y-115846303D01*
X104930180Y-115846303D02*
X105930180Y-115846303D01*
X105930180Y-115846303D02*
X105930180Y-116322493D01*
X105215895Y-116655827D02*
X105215895Y-117132017D01*
X104930180Y-116560589D02*
X105930180Y-116893922D01*
X105930180Y-116893922D02*
X104930180Y-117227255D01*
X104930180Y-117560589D02*
X105930180Y-117560589D01*
X105930180Y-117560589D02*
X104930180Y-118132017D01*
X104930180Y-118132017D02*
X105930180Y-118132017D01*
X179069819Y-83206077D02*
X179069819Y-82634649D01*
X180069819Y-82920363D02*
X179069819Y-82920363D01*
X179688866Y-82301315D02*
X179688866Y-81539411D01*
X180069819Y-81920363D02*
X179307914Y-81920363D01*
X122336779Y-122271569D02*
X122336779Y-121271569D01*
X122336779Y-121271569D02*
X122574874Y-121271569D01*
X122574874Y-121271569D02*
X122717731Y-121319188D01*
X122717731Y-121319188D02*
X122812969Y-121414426D01*
X122812969Y-121414426D02*
X122860588Y-121509664D01*
X122860588Y-121509664D02*
X122908207Y-121700140D01*
X122908207Y-121700140D02*
X122908207Y-121842997D01*
X122908207Y-121842997D02*
X122860588Y-122033473D01*
X122860588Y-122033473D02*
X122812969Y-122128711D01*
X122812969Y-122128711D02*
X122717731Y-122223950D01*
X122717731Y-122223950D02*
X122574874Y-122271569D01*
X122574874Y-122271569D02*
X122336779Y-122271569D01*
X123289160Y-121366807D02*
X123336779Y-121319188D01*
X123336779Y-121319188D02*
X123432017Y-121271569D01*
X123432017Y-121271569D02*
X123670112Y-121271569D01*
X123670112Y-121271569D02*
X123765350Y-121319188D01*
X123765350Y-121319188D02*
X123812969Y-121366807D01*
X123812969Y-121366807D02*
X123860588Y-121462045D01*
X123860588Y-121462045D02*
X123860588Y-121557283D01*
X123860588Y-121557283D02*
X123812969Y-121700140D01*
X123812969Y-121700140D02*
X123241541Y-122271569D01*
X123241541Y-122271569D02*
X123860588Y-122271569D01*
X124241541Y-121366807D02*
X124289160Y-121319188D01*
X124289160Y-121319188D02*
X124384398Y-121271569D01*
X124384398Y-121271569D02*
X124622493Y-121271569D01*
X124622493Y-121271569D02*
X124717731Y-121319188D01*
X124717731Y-121319188D02*
X124765350Y-121366807D01*
X124765350Y-121366807D02*
X124812969Y-121462045D01*
X124812969Y-121462045D02*
X124812969Y-121557283D01*
X124812969Y-121557283D02*
X124765350Y-121700140D01*
X124765350Y-121700140D02*
X124193922Y-122271569D01*
X124193922Y-122271569D02*
X124812969Y-122271569D01*
X104975419Y-83658207D02*
X104927800Y-83610588D01*
X104927800Y-83610588D02*
X104880180Y-83467731D01*
X104880180Y-83467731D02*
X104880180Y-83372493D01*
X104880180Y-83372493D02*
X104927800Y-83229636D01*
X104927800Y-83229636D02*
X105023038Y-83134398D01*
X105023038Y-83134398D02*
X105118276Y-83086779D01*
X105118276Y-83086779D02*
X105308752Y-83039160D01*
X105308752Y-83039160D02*
X105451609Y-83039160D01*
X105451609Y-83039160D02*
X105642085Y-83086779D01*
X105642085Y-83086779D02*
X105737323Y-83134398D01*
X105737323Y-83134398D02*
X105832561Y-83229636D01*
X105832561Y-83229636D02*
X105880180Y-83372493D01*
X105880180Y-83372493D02*
X105880180Y-83467731D01*
X105880180Y-83467731D02*
X105832561Y-83610588D01*
X105832561Y-83610588D02*
X105784942Y-83658207D01*
X104784942Y-83848684D02*
X104784942Y-84610588D01*
X105403990Y-85182017D02*
X105403990Y-84848684D01*
X104880180Y-84848684D02*
X105880180Y-84848684D01*
X105880180Y-84848684D02*
X105880180Y-85324874D01*
X105165895Y-85658208D02*
X105165895Y-86134398D01*
X104880180Y-85562970D02*
X105880180Y-85896303D01*
X105880180Y-85896303D02*
X104880180Y-86229636D01*
X104880180Y-86562970D02*
X105880180Y-86562970D01*
X105880180Y-86562970D02*
X104880180Y-87134398D01*
X104880180Y-87134398D02*
X105880180Y-87134398D01*
X105832561Y-69660588D02*
X105880180Y-69565350D01*
X105880180Y-69565350D02*
X105880180Y-69422493D01*
X105880180Y-69422493D02*
X105832561Y-69279636D01*
X105832561Y-69279636D02*
X105737323Y-69184398D01*
X105737323Y-69184398D02*
X105642085Y-69136779D01*
X105642085Y-69136779D02*
X105451609Y-69089160D01*
X105451609Y-69089160D02*
X105308752Y-69089160D01*
X105308752Y-69089160D02*
X105118276Y-69136779D01*
X105118276Y-69136779D02*
X105023038Y-69184398D01*
X105023038Y-69184398D02*
X104927800Y-69279636D01*
X104927800Y-69279636D02*
X104880180Y-69422493D01*
X104880180Y-69422493D02*
X104880180Y-69517731D01*
X104880180Y-69517731D02*
X104927800Y-69660588D01*
X104927800Y-69660588D02*
X104975419Y-69708207D01*
X104975419Y-69708207D02*
X105308752Y-69708207D01*
X105308752Y-69708207D02*
X105308752Y-69517731D01*
X104784942Y-69898684D02*
X104784942Y-70660588D01*
X104880180Y-71374874D02*
X104880180Y-70898684D01*
X104880180Y-70898684D02*
X105880180Y-70898684D01*
X105403990Y-71708208D02*
X105403990Y-72041541D01*
X104880180Y-72184398D02*
X104880180Y-71708208D01*
X104880180Y-71708208D02*
X105880180Y-71708208D01*
X105880180Y-71708208D02*
X105880180Y-72184398D01*
X104880180Y-72612970D02*
X105880180Y-72612970D01*
X105880180Y-72612970D02*
X105880180Y-72851065D01*
X105880180Y-72851065D02*
X105832561Y-72993922D01*
X105832561Y-72993922D02*
X105737323Y-73089160D01*
X105737323Y-73089160D02*
X105642085Y-73136779D01*
X105642085Y-73136779D02*
X105451609Y-73184398D01*
X105451609Y-73184398D02*
X105308752Y-73184398D01*
X105308752Y-73184398D02*
X105118276Y-73136779D01*
X105118276Y-73136779D02*
X105023038Y-73089160D01*
X105023038Y-73089160D02*
X104927800Y-72993922D01*
X104927800Y-72993922D02*
X104880180Y-72851065D01*
X104880180Y-72851065D02*
X104880180Y-72612970D01*
X140963220Y-47611133D02*
X140201316Y-47611133D01*
X179488866Y-99663220D02*
X179488866Y-98901316D01*
D12*
G36*
X151665114Y-53809775D02*
G01*
X149436542Y-53809775D01*
X149436542Y-52874060D01*
X150007971Y-52874060D01*
X150028067Y-52949060D01*
X150082971Y-53003964D01*
X150157971Y-53024060D01*
X150579400Y-53024060D01*
X150579400Y-53445489D01*
X150599496Y-53520489D01*
X150654400Y-53575393D01*
X150729400Y-53595489D01*
X150804400Y-53575393D01*
X150859304Y-53520489D01*
X150879400Y-53445489D01*
X150879400Y-53024060D01*
X151300828Y-53024060D01*
X151375828Y-53003964D01*
X151430732Y-52949060D01*
X151450828Y-52874060D01*
X151430732Y-52799060D01*
X151375828Y-52744156D01*
X151300828Y-52724060D01*
X150879400Y-52724060D01*
X150879400Y-52302632D01*
X150859304Y-52227632D01*
X150804400Y-52172728D01*
X150729400Y-52152632D01*
X150654400Y-52172728D01*
X150599496Y-52227632D01*
X150579400Y-52302632D01*
X150579400Y-52724060D01*
X150157971Y-52724060D01*
X150082971Y-52744156D01*
X150028067Y-52799060D01*
X150007971Y-52874060D01*
X149436542Y-52874060D01*
X149436542Y-51231203D01*
X149650828Y-51231203D01*
X149659669Y-51264199D01*
X149666367Y-51297687D01*
X149669640Y-51301411D01*
X149670924Y-51306203D01*
X149695077Y-51330356D01*
X149717623Y-51356011D01*
X149919552Y-51490630D01*
X150034693Y-51605771D01*
X150095236Y-51726856D01*
X150146752Y-51784951D01*
X150220413Y-51809505D01*
X150296482Y-51793938D01*
X150354577Y-51742422D01*
X150379131Y-51668761D01*
X150363564Y-51592691D01*
X150292135Y-51449835D01*
X150276112Y-51431766D01*
X150264037Y-51410851D01*
X150234389Y-51381203D01*
X151150828Y-51381203D01*
X151150828Y-51659774D01*
X151170924Y-51734774D01*
X151225828Y-51789678D01*
X151300828Y-51809774D01*
X151375828Y-51789678D01*
X151430732Y-51734774D01*
X151450828Y-51659774D01*
X151450828Y-50802631D01*
X151430732Y-50727631D01*
X151375828Y-50672727D01*
X151300828Y-50652631D01*
X151225828Y-50672727D01*
X151170924Y-50727631D01*
X151150828Y-50802631D01*
X151150828Y-51081203D01*
X149800828Y-51081203D01*
X149767831Y-51090044D01*
X149734344Y-51096742D01*
X149730619Y-51100015D01*
X149725828Y-51101299D01*
X149701674Y-51125452D01*
X149676020Y-51147998D01*
X149674430Y-51152696D01*
X149670924Y-51156203D01*
X149662084Y-51189193D01*
X149651139Y-51221549D01*
X149652111Y-51226412D01*
X149650828Y-51231203D01*
X149436542Y-51231203D01*
X149436542Y-50016918D01*
X149650828Y-50016918D01*
X149659751Y-50050219D01*
X149666664Y-50084000D01*
X149738093Y-50226857D01*
X149754115Y-50244925D01*
X149766191Y-50265841D01*
X149837619Y-50337269D01*
X149904862Y-50376092D01*
X149982508Y-50376092D01*
X150049751Y-50337269D01*
X150088574Y-50270026D01*
X150088574Y-50192380D01*
X150049751Y-50125137D01*
X149995535Y-50070921D01*
X149950828Y-49981507D01*
X149950828Y-49695185D01*
X149995535Y-49605770D01*
X150032539Y-49568766D01*
X150121952Y-49524060D01*
X150205059Y-49524060D01*
X150362657Y-49576593D01*
X151194762Y-50408698D01*
X151211863Y-50418571D01*
X151225828Y-50432536D01*
X151244902Y-50437647D01*
X151262005Y-50447521D01*
X151281753Y-50447521D01*
X151300828Y-50452632D01*
X151319903Y-50447521D01*
X151339651Y-50447521D01*
X151356753Y-50437647D01*
X151375828Y-50432536D01*
X151389792Y-50418571D01*
X151406894Y-50408698D01*
X151416767Y-50391596D01*
X151430732Y-50377632D01*
X151435843Y-50358557D01*
X151445717Y-50341455D01*
X151445717Y-50321706D01*
X151450828Y-50302632D01*
X151450828Y-49374060D01*
X151430732Y-49299060D01*
X151375828Y-49244156D01*
X151300828Y-49224060D01*
X151225828Y-49244156D01*
X151170924Y-49299060D01*
X151150828Y-49374060D01*
X151150828Y-49940500D01*
X150549751Y-49339423D01*
X150519882Y-49322178D01*
X150491119Y-49303187D01*
X150276835Y-49231758D01*
X150252728Y-49230310D01*
X150229400Y-49224060D01*
X150086542Y-49224060D01*
X150053241Y-49232982D01*
X150019459Y-49239896D01*
X149876603Y-49311325D01*
X149858534Y-49327347D01*
X149837618Y-49339424D01*
X149766190Y-49410853D01*
X149754115Y-49431767D01*
X149738093Y-49449836D01*
X149666664Y-49592693D01*
X149659751Y-49626473D01*
X149650828Y-49659775D01*
X149650828Y-50016918D01*
X149436542Y-50016918D01*
X149436542Y-48915417D01*
X149653873Y-48915417D01*
X149658526Y-48992923D01*
X149701307Y-49057719D01*
X149770756Y-49092444D01*
X149848262Y-49087791D01*
X151348262Y-48587791D01*
X151373398Y-48571194D01*
X151400349Y-48557720D01*
X151405403Y-48550064D01*
X151413059Y-48545010D01*
X151426532Y-48518063D01*
X151443131Y-48492923D01*
X151443680Y-48483765D01*
X151447783Y-48475561D01*
X151445978Y-48445489D01*
X151447783Y-48415417D01*
X151443680Y-48407212D01*
X151443131Y-48398055D01*
X151426532Y-48372914D01*
X151413059Y-48345968D01*
X151405403Y-48340913D01*
X151400349Y-48333258D01*
X151373398Y-48319783D01*
X151348262Y-48303187D01*
X149848262Y-47803187D01*
X149770756Y-47798534D01*
X149701307Y-47833259D01*
X149658526Y-47898055D01*
X149653873Y-47975561D01*
X149688598Y-48045010D01*
X149753394Y-48087791D01*
X150826485Y-48445489D01*
X149753394Y-48803187D01*
X149688598Y-48845968D01*
X149653873Y-48915417D01*
X149436542Y-48915417D01*
X149436542Y-47584248D01*
X151665114Y-47584248D01*
X151665114Y-53809775D01*
G37*
D10*
X146063220Y-47611133D02*
X145301316Y-47611133D01*
X145682268Y-47230180D02*
X145682268Y-47992085D01*
X107261133Y-68236779D02*
X107261133Y-68998684D01*
X106880180Y-68617731D02*
X107642085Y-68617731D01*
X107261133Y-73336779D02*
X107261133Y-74098684D01*
X107011133Y-115636779D02*
X107011133Y-116398684D01*
X106630180Y-116017731D02*
X107392085Y-116017731D01*
X181572200Y-103094172D02*
X181619819Y-102951315D01*
X181619819Y-102951315D02*
X181619819Y-102713220D01*
X181619819Y-102713220D02*
X181572200Y-102617982D01*
X181572200Y-102617982D02*
X181524580Y-102570363D01*
X181524580Y-102570363D02*
X181429342Y-102522744D01*
X181429342Y-102522744D02*
X181334104Y-102522744D01*
X181334104Y-102522744D02*
X181238866Y-102570363D01*
X181238866Y-102570363D02*
X181191247Y-102617982D01*
X181191247Y-102617982D02*
X181143628Y-102713220D01*
X181143628Y-102713220D02*
X181096009Y-102903696D01*
X181096009Y-102903696D02*
X181048390Y-102998934D01*
X181048390Y-102998934D02*
X181000771Y-103046553D01*
X181000771Y-103046553D02*
X180905533Y-103094172D01*
X180905533Y-103094172D02*
X180810295Y-103094172D01*
X180810295Y-103094172D02*
X180715057Y-103046553D01*
X180715057Y-103046553D02*
X180667438Y-102998934D01*
X180667438Y-102998934D02*
X180619819Y-102903696D01*
X180619819Y-102903696D02*
X180619819Y-102665601D01*
X180619819Y-102665601D02*
X180667438Y-102522744D01*
X181572200Y-102141791D02*
X181619819Y-101998934D01*
X181619819Y-101998934D02*
X181619819Y-101760839D01*
X181619819Y-101760839D02*
X181572200Y-101665601D01*
X181572200Y-101665601D02*
X181524580Y-101617982D01*
X181524580Y-101617982D02*
X181429342Y-101570363D01*
X181429342Y-101570363D02*
X181334104Y-101570363D01*
X181334104Y-101570363D02*
X181238866Y-101617982D01*
X181238866Y-101617982D02*
X181191247Y-101665601D01*
X181191247Y-101665601D02*
X181143628Y-101760839D01*
X181143628Y-101760839D02*
X181096009Y-101951315D01*
X181096009Y-101951315D02*
X181048390Y-102046553D01*
X181048390Y-102046553D02*
X181000771Y-102094172D01*
X181000771Y-102094172D02*
X180905533Y-102141791D01*
X180905533Y-102141791D02*
X180810295Y-102141791D01*
X180810295Y-102141791D02*
X180715057Y-102094172D01*
X180715057Y-102094172D02*
X180667438Y-102046553D01*
X180667438Y-102046553D02*
X180619819Y-101951315D01*
X180619819Y-101951315D02*
X180619819Y-101713220D01*
X180619819Y-101713220D02*
X180667438Y-101570363D01*
X181619819Y-100570363D02*
X181143628Y-100903696D01*
X181619819Y-101141791D02*
X180619819Y-101141791D01*
X180619819Y-101141791D02*
X180619819Y-100760839D01*
X180619819Y-100760839D02*
X180667438Y-100665601D01*
X180667438Y-100665601D02*
X180715057Y-100617982D01*
X180715057Y-100617982D02*
X180810295Y-100570363D01*
X180810295Y-100570363D02*
X180953152Y-100570363D01*
X180953152Y-100570363D02*
X181048390Y-100617982D01*
X181048390Y-100617982D02*
X181096009Y-100665601D01*
X181096009Y-100665601D02*
X181143628Y-100760839D01*
X181143628Y-100760839D02*
X181143628Y-101141791D01*
X104880180Y-96408207D02*
X105356371Y-96074874D01*
X104880180Y-95836779D02*
X105880180Y-95836779D01*
X105880180Y-95836779D02*
X105880180Y-96217731D01*
X105880180Y-96217731D02*
X105832561Y-96312969D01*
X105832561Y-96312969D02*
X105784942Y-96360588D01*
X105784942Y-96360588D02*
X105689704Y-96408207D01*
X105689704Y-96408207D02*
X105546847Y-96408207D01*
X105546847Y-96408207D02*
X105451609Y-96360588D01*
X105451609Y-96360588D02*
X105403990Y-96312969D01*
X105403990Y-96312969D02*
X105356371Y-96217731D01*
X105356371Y-96217731D02*
X105356371Y-95836779D01*
X105403990Y-96836779D02*
X105403990Y-97170112D01*
X104880180Y-97312969D02*
X104880180Y-96836779D01*
X104880180Y-96836779D02*
X105880180Y-96836779D01*
X105880180Y-96836779D02*
X105880180Y-97312969D01*
X105403990Y-98074874D02*
X105403990Y-97741541D01*
X104880180Y-97741541D02*
X105880180Y-97741541D01*
X105880180Y-97741541D02*
X105880180Y-98217731D01*
X104880180Y-99074874D02*
X104880180Y-98598684D01*
X104880180Y-98598684D02*
X105880180Y-98598684D01*
X105880180Y-99598684D02*
X105880180Y-99789160D01*
X105880180Y-99789160D02*
X105832561Y-99884398D01*
X105832561Y-99884398D02*
X105737323Y-99979636D01*
X105737323Y-99979636D02*
X105546847Y-100027255D01*
X105546847Y-100027255D02*
X105213514Y-100027255D01*
X105213514Y-100027255D02*
X105023038Y-99979636D01*
X105023038Y-99979636D02*
X104927800Y-99884398D01*
X104927800Y-99884398D02*
X104880180Y-99789160D01*
X104880180Y-99789160D02*
X104880180Y-99598684D01*
X104880180Y-99598684D02*
X104927800Y-99503446D01*
X104927800Y-99503446D02*
X105023038Y-99408208D01*
X105023038Y-99408208D02*
X105213514Y-99360589D01*
X105213514Y-99360589D02*
X105546847Y-99360589D01*
X105546847Y-99360589D02*
X105737323Y-99408208D01*
X105737323Y-99408208D02*
X105832561Y-99503446D01*
X105832561Y-99503446D02*
X105880180Y-99598684D01*
X105880180Y-100360589D02*
X104880180Y-100598684D01*
X104880180Y-100598684D02*
X105594466Y-100789160D01*
X105594466Y-100789160D02*
X104880180Y-100979636D01*
X104880180Y-100979636D02*
X105880180Y-101217732D01*
X105403990Y-102693922D02*
X105403990Y-102360589D01*
X104880180Y-102360589D02*
X105880180Y-102360589D01*
X105880180Y-102360589D02*
X105880180Y-102836779D01*
X105165895Y-103170113D02*
X105165895Y-103646303D01*
X104880180Y-103074875D02*
X105880180Y-103408208D01*
X105880180Y-103408208D02*
X104880180Y-103741541D01*
X104880180Y-104074875D02*
X105880180Y-104074875D01*
X105880180Y-104074875D02*
X104880180Y-104646303D01*
X104880180Y-104646303D02*
X105880180Y-104646303D01*
D12*
G36*
X163165114Y-72059775D02*
G01*
X160936542Y-72059775D01*
X160936542Y-71124060D01*
X161507971Y-71124060D01*
X161528067Y-71199060D01*
X161582971Y-71253964D01*
X161657971Y-71274060D01*
X162079400Y-71274060D01*
X162079400Y-71695489D01*
X162099496Y-71770489D01*
X162154400Y-71825393D01*
X162229400Y-71845489D01*
X162304400Y-71825393D01*
X162359304Y-71770489D01*
X162379400Y-71695489D01*
X162379400Y-71274060D01*
X162800828Y-71274060D01*
X162875828Y-71253964D01*
X162930732Y-71199060D01*
X162950828Y-71124060D01*
X162930732Y-71049060D01*
X162875828Y-70994156D01*
X162800828Y-70974060D01*
X162379400Y-70974060D01*
X162379400Y-70552632D01*
X162359304Y-70477632D01*
X162304400Y-70422728D01*
X162229400Y-70402632D01*
X162154400Y-70422728D01*
X162099496Y-70477632D01*
X162079400Y-70552632D01*
X162079400Y-70974060D01*
X161657971Y-70974060D01*
X161582971Y-70994156D01*
X161528067Y-71049060D01*
X161507971Y-71124060D01*
X160936542Y-71124060D01*
X160936542Y-69981203D01*
X161150828Y-69981203D01*
X161170924Y-70056203D01*
X161225828Y-70111107D01*
X161300828Y-70131203D01*
X161375828Y-70111107D01*
X161430732Y-70056203D01*
X161450828Y-69981203D01*
X161450828Y-69383196D01*
X161773481Y-69665517D01*
X161786777Y-69672055D01*
X161797257Y-69682535D01*
X161821054Y-69688911D01*
X161843158Y-69699781D01*
X161857942Y-69698795D01*
X161872257Y-69702631D01*
X161896054Y-69696254D01*
X161920632Y-69694616D01*
X161932942Y-69686370D01*
X161947257Y-69682535D01*
X161964679Y-69665112D01*
X161985143Y-69651406D01*
X161991680Y-69638111D01*
X162002161Y-69627631D01*
X162008537Y-69603832D01*
X162019407Y-69581730D01*
X162018421Y-69566945D01*
X162022257Y-69552631D01*
X162022257Y-69373755D01*
X162066962Y-69284343D01*
X162103968Y-69247337D01*
X162193381Y-69202631D01*
X162479704Y-69202631D01*
X162569117Y-69247338D01*
X162606121Y-69284342D01*
X162650828Y-69373755D01*
X162650828Y-69731507D01*
X162606121Y-69820920D01*
X162551905Y-69875137D01*
X162513082Y-69942380D01*
X162513082Y-70020026D01*
X162551905Y-70087269D01*
X162619148Y-70126092D01*
X162696794Y-70126092D01*
X162764037Y-70087269D01*
X162835466Y-70015840D01*
X162847540Y-69994925D01*
X162863564Y-69976856D01*
X162934992Y-69833998D01*
X162941903Y-69800222D01*
X162950828Y-69766917D01*
X162950828Y-69338346D01*
X162941903Y-69305040D01*
X162934992Y-69271265D01*
X162863564Y-69128407D01*
X162847540Y-69110337D01*
X162835466Y-69089423D01*
X162764037Y-69017994D01*
X162743121Y-69005918D01*
X162725053Y-68989896D01*
X162582196Y-68918467D01*
X162548415Y-68911554D01*
X162515114Y-68902631D01*
X162157971Y-68902631D01*
X162124670Y-68911553D01*
X162090888Y-68918467D01*
X161948032Y-68989896D01*
X161929963Y-69005918D01*
X161909048Y-69017994D01*
X161837619Y-69089423D01*
X161825544Y-69110337D01*
X161809521Y-69128407D01*
X161750385Y-69246678D01*
X161399604Y-68939744D01*
X161386305Y-68933204D01*
X161375828Y-68922727D01*
X161352035Y-68916351D01*
X161329927Y-68905480D01*
X161315139Y-68906465D01*
X161300828Y-68902631D01*
X161277035Y-68909006D01*
X161252453Y-68910645D01*
X161240140Y-68918892D01*
X161225828Y-68922727D01*
X161208410Y-68940144D01*
X161187941Y-68953855D01*
X161181401Y-68967153D01*
X161170924Y-68977631D01*
X161164548Y-69001423D01*
X161153677Y-69023532D01*
X161154662Y-69038319D01*
X161150828Y-69052631D01*
X161150828Y-69981203D01*
X160936542Y-69981203D01*
X160936542Y-68593988D01*
X161153873Y-68593988D01*
X161158526Y-68671494D01*
X161201307Y-68736290D01*
X161270756Y-68771015D01*
X161348262Y-68766362D01*
X162848262Y-68266362D01*
X162873398Y-68249765D01*
X162900349Y-68236291D01*
X162905403Y-68228635D01*
X162913059Y-68223581D01*
X162926532Y-68196634D01*
X162943131Y-68171494D01*
X162943680Y-68162336D01*
X162947783Y-68154132D01*
X162945978Y-68124060D01*
X162947783Y-68093988D01*
X162943680Y-68085783D01*
X162943131Y-68076626D01*
X162926532Y-68051485D01*
X162913059Y-68024539D01*
X162905403Y-68019484D01*
X162900349Y-68011829D01*
X162873398Y-67998354D01*
X162848262Y-67981758D01*
X161348262Y-67481758D01*
X161270756Y-67477105D01*
X161201307Y-67511830D01*
X161158526Y-67576626D01*
X161153873Y-67654132D01*
X161188598Y-67723581D01*
X161253394Y-67766362D01*
X162326485Y-68124060D01*
X161253394Y-68481758D01*
X161188598Y-68524539D01*
X161153873Y-68593988D01*
X160936542Y-68593988D01*
X160936542Y-67266918D01*
X161150828Y-67266918D01*
X161170924Y-67341918D01*
X161225828Y-67396822D01*
X161300828Y-67416918D01*
X161375828Y-67396822D01*
X161430732Y-67341918D01*
X161450828Y-67266918D01*
X161450828Y-66668911D01*
X161773481Y-66951232D01*
X161786777Y-66957770D01*
X161797257Y-66968250D01*
X161821054Y-66974626D01*
X161843158Y-66985496D01*
X161857942Y-66984510D01*
X161872257Y-66988346D01*
X161896054Y-66981969D01*
X161920632Y-66980331D01*
X161932942Y-66972085D01*
X161947257Y-66968250D01*
X161964679Y-66950827D01*
X161985143Y-66937121D01*
X161991680Y-66923826D01*
X162002161Y-66913346D01*
X162008537Y-66889547D01*
X162019407Y-66867445D01*
X162018421Y-66852660D01*
X162022257Y-66838346D01*
X162022257Y-66659470D01*
X162066962Y-66570058D01*
X162103968Y-66533052D01*
X162193381Y-66488346D01*
X162479704Y-66488346D01*
X162569117Y-66533053D01*
X162606121Y-66570057D01*
X162650828Y-66659470D01*
X162650828Y-67017222D01*
X162606121Y-67106635D01*
X162551905Y-67160852D01*
X162513082Y-67228095D01*
X162513082Y-67305741D01*
X162551905Y-67372984D01*
X162619148Y-67411807D01*
X162696794Y-67411807D01*
X162764037Y-67372984D01*
X162835466Y-67301555D01*
X162847540Y-67280640D01*
X162863564Y-67262571D01*
X162934992Y-67119713D01*
X162941903Y-67085937D01*
X162950828Y-67052632D01*
X162950828Y-66624061D01*
X162941903Y-66590755D01*
X162934992Y-66556980D01*
X162863564Y-66414122D01*
X162847540Y-66396052D01*
X162835466Y-66375138D01*
X162764037Y-66303709D01*
X162743121Y-66291633D01*
X162725053Y-66275611D01*
X162582196Y-66204182D01*
X162548415Y-66197269D01*
X162515114Y-66188346D01*
X162157971Y-66188346D01*
X162124670Y-66197268D01*
X162090888Y-66204182D01*
X161948032Y-66275611D01*
X161929963Y-66291633D01*
X161909048Y-66303709D01*
X161837619Y-66375138D01*
X161825544Y-66396052D01*
X161809521Y-66414122D01*
X161750385Y-66532393D01*
X161399604Y-66225459D01*
X161386305Y-66218919D01*
X161375828Y-66208442D01*
X161352035Y-66202066D01*
X161329927Y-66191195D01*
X161315139Y-66192180D01*
X161300828Y-66188346D01*
X161277035Y-66194721D01*
X161252453Y-66196360D01*
X161240140Y-66204607D01*
X161225828Y-66208442D01*
X161208410Y-66225859D01*
X161187941Y-66239570D01*
X161181401Y-66252868D01*
X161170924Y-66263346D01*
X161164548Y-66287138D01*
X161153677Y-66309247D01*
X161154662Y-66324034D01*
X161150828Y-66338346D01*
X161150828Y-67266918D01*
X160936542Y-67266918D01*
X160936542Y-65974060D01*
X163165114Y-65974060D01*
X163165114Y-72059775D01*
G37*
D10*
X107011133Y-87236779D02*
X107011133Y-87998684D01*
X107011133Y-82136779D02*
X107011133Y-82898684D01*
X106630180Y-82517731D02*
X107392085Y-82517731D01*
X107011133Y-101736779D02*
X107011133Y-102498684D01*
X136163220Y-49130180D02*
X136163220Y-50130180D01*
X136163220Y-50130180D02*
X135925125Y-50130180D01*
X135925125Y-50130180D02*
X135782268Y-50082561D01*
X135782268Y-50082561D02*
X135687030Y-49987323D01*
X135687030Y-49987323D02*
X135639411Y-49892085D01*
X135639411Y-49892085D02*
X135591792Y-49701609D01*
X135591792Y-49701609D02*
X135591792Y-49558752D01*
X135591792Y-49558752D02*
X135639411Y-49368276D01*
X135639411Y-49368276D02*
X135687030Y-49273038D01*
X135687030Y-49273038D02*
X135782268Y-49177800D01*
X135782268Y-49177800D02*
X135925125Y-49130180D01*
X135925125Y-49130180D02*
X136163220Y-49130180D01*
X134782268Y-49177800D02*
X134877506Y-49130180D01*
X134877506Y-49130180D02*
X135067982Y-49130180D01*
X135067982Y-49130180D02*
X135163220Y-49177800D01*
X135163220Y-49177800D02*
X135210839Y-49273038D01*
X135210839Y-49273038D02*
X135210839Y-49653990D01*
X135210839Y-49653990D02*
X135163220Y-49749228D01*
X135163220Y-49749228D02*
X135067982Y-49796847D01*
X135067982Y-49796847D02*
X134877506Y-49796847D01*
X134877506Y-49796847D02*
X134782268Y-49749228D01*
X134782268Y-49749228D02*
X134734649Y-49653990D01*
X134734649Y-49653990D02*
X134734649Y-49558752D01*
X134734649Y-49558752D02*
X135210839Y-49463514D01*
X134353696Y-49177800D02*
X134258458Y-49130180D01*
X134258458Y-49130180D02*
X134067982Y-49130180D01*
X134067982Y-49130180D02*
X133972744Y-49177800D01*
X133972744Y-49177800D02*
X133925125Y-49273038D01*
X133925125Y-49273038D02*
X133925125Y-49320657D01*
X133925125Y-49320657D02*
X133972744Y-49415895D01*
X133972744Y-49415895D02*
X134067982Y-49463514D01*
X134067982Y-49463514D02*
X134210839Y-49463514D01*
X134210839Y-49463514D02*
X134306077Y-49511133D01*
X134306077Y-49511133D02*
X134353696Y-49606371D01*
X134353696Y-49606371D02*
X134353696Y-49653990D01*
X134353696Y-49653990D02*
X134306077Y-49749228D01*
X134306077Y-49749228D02*
X134210839Y-49796847D01*
X134210839Y-49796847D02*
X134067982Y-49796847D01*
X134067982Y-49796847D02*
X133972744Y-49749228D01*
X133496553Y-49130180D02*
X133496553Y-49796847D01*
X133496553Y-50130180D02*
X133544172Y-50082561D01*
X133544172Y-50082561D02*
X133496553Y-50034942D01*
X133496553Y-50034942D02*
X133448934Y-50082561D01*
X133448934Y-50082561D02*
X133496553Y-50130180D01*
X133496553Y-50130180D02*
X133496553Y-50034942D01*
X132591792Y-49796847D02*
X132591792Y-48987323D01*
X132591792Y-48987323D02*
X132639411Y-48892085D01*
X132639411Y-48892085D02*
X132687030Y-48844466D01*
X132687030Y-48844466D02*
X132782268Y-48796847D01*
X132782268Y-48796847D02*
X132925125Y-48796847D01*
X132925125Y-48796847D02*
X133020363Y-48844466D01*
X132591792Y-49177800D02*
X132687030Y-49130180D01*
X132687030Y-49130180D02*
X132877506Y-49130180D01*
X132877506Y-49130180D02*
X132972744Y-49177800D01*
X132972744Y-49177800D02*
X133020363Y-49225419D01*
X133020363Y-49225419D02*
X133067982Y-49320657D01*
X133067982Y-49320657D02*
X133067982Y-49606371D01*
X133067982Y-49606371D02*
X133020363Y-49701609D01*
X133020363Y-49701609D02*
X132972744Y-49749228D01*
X132972744Y-49749228D02*
X132877506Y-49796847D01*
X132877506Y-49796847D02*
X132687030Y-49796847D01*
X132687030Y-49796847D02*
X132591792Y-49749228D01*
X132115601Y-49796847D02*
X132115601Y-49130180D01*
X132115601Y-49701609D02*
X132067982Y-49749228D01*
X132067982Y-49749228D02*
X131972744Y-49796847D01*
X131972744Y-49796847D02*
X131829887Y-49796847D01*
X131829887Y-49796847D02*
X131734649Y-49749228D01*
X131734649Y-49749228D02*
X131687030Y-49653990D01*
X131687030Y-49653990D02*
X131687030Y-49130180D01*
X130829887Y-49177800D02*
X130925125Y-49130180D01*
X130925125Y-49130180D02*
X131115601Y-49130180D01*
X131115601Y-49130180D02*
X131210839Y-49177800D01*
X131210839Y-49177800D02*
X131258458Y-49273038D01*
X131258458Y-49273038D02*
X131258458Y-49653990D01*
X131258458Y-49653990D02*
X131210839Y-49749228D01*
X131210839Y-49749228D02*
X131115601Y-49796847D01*
X131115601Y-49796847D02*
X130925125Y-49796847D01*
X130925125Y-49796847D02*
X130829887Y-49749228D01*
X130829887Y-49749228D02*
X130782268Y-49653990D01*
X130782268Y-49653990D02*
X130782268Y-49558752D01*
X130782268Y-49558752D02*
X131258458Y-49463514D01*
X129925125Y-49130180D02*
X129925125Y-50130180D01*
X129925125Y-49177800D02*
X130020363Y-49130180D01*
X130020363Y-49130180D02*
X130210839Y-49130180D01*
X130210839Y-49130180D02*
X130306077Y-49177800D01*
X130306077Y-49177800D02*
X130353696Y-49225419D01*
X130353696Y-49225419D02*
X130401315Y-49320657D01*
X130401315Y-49320657D02*
X130401315Y-49606371D01*
X130401315Y-49606371D02*
X130353696Y-49701609D01*
X130353696Y-49701609D02*
X130306077Y-49749228D01*
X130306077Y-49749228D02*
X130210839Y-49796847D01*
X130210839Y-49796847D02*
X130020363Y-49796847D01*
X130020363Y-49796847D02*
X129925125Y-49749228D01*
X128687029Y-49130180D02*
X128687029Y-50130180D01*
X128687029Y-49749228D02*
X128591791Y-49796847D01*
X128591791Y-49796847D02*
X128401315Y-49796847D01*
X128401315Y-49796847D02*
X128306077Y-49749228D01*
X128306077Y-49749228D02*
X128258458Y-49701609D01*
X128258458Y-49701609D02*
X128210839Y-49606371D01*
X128210839Y-49606371D02*
X128210839Y-49320657D01*
X128210839Y-49320657D02*
X128258458Y-49225419D01*
X128258458Y-49225419D02*
X128306077Y-49177800D01*
X128306077Y-49177800D02*
X128401315Y-49130180D01*
X128401315Y-49130180D02*
X128591791Y-49130180D01*
X128591791Y-49130180D02*
X128687029Y-49177800D01*
X127877505Y-49796847D02*
X127639410Y-49130180D01*
X127401315Y-49796847D02*
X127639410Y-49130180D01*
X127639410Y-49130180D02*
X127734648Y-48892085D01*
X127734648Y-48892085D02*
X127782267Y-48844466D01*
X127782267Y-48844466D02*
X127877505Y-48796847D01*
X126306076Y-49177800D02*
X126163219Y-49130180D01*
X126163219Y-49130180D02*
X125925124Y-49130180D01*
X125925124Y-49130180D02*
X125829886Y-49177800D01*
X125829886Y-49177800D02*
X125782267Y-49225419D01*
X125782267Y-49225419D02*
X125734648Y-49320657D01*
X125734648Y-49320657D02*
X125734648Y-49415895D01*
X125734648Y-49415895D02*
X125782267Y-49511133D01*
X125782267Y-49511133D02*
X125829886Y-49558752D01*
X125829886Y-49558752D02*
X125925124Y-49606371D01*
X125925124Y-49606371D02*
X126115600Y-49653990D01*
X126115600Y-49653990D02*
X126210838Y-49701609D01*
X126210838Y-49701609D02*
X126258457Y-49749228D01*
X126258457Y-49749228D02*
X126306076Y-49844466D01*
X126306076Y-49844466D02*
X126306076Y-49939704D01*
X126306076Y-49939704D02*
X126258457Y-50034942D01*
X126258457Y-50034942D02*
X126210838Y-50082561D01*
X126210838Y-50082561D02*
X126115600Y-50130180D01*
X126115600Y-50130180D02*
X125877505Y-50130180D01*
X125877505Y-50130180D02*
X125734648Y-50082561D01*
X125448933Y-49796847D02*
X125067981Y-49796847D01*
X125306076Y-50130180D02*
X125306076Y-49273038D01*
X125306076Y-49273038D02*
X125258457Y-49177800D01*
X125258457Y-49177800D02*
X125163219Y-49130180D01*
X125163219Y-49130180D02*
X125067981Y-49130180D01*
X124353695Y-49177800D02*
X124448933Y-49130180D01*
X124448933Y-49130180D02*
X124639409Y-49130180D01*
X124639409Y-49130180D02*
X124734647Y-49177800D01*
X124734647Y-49177800D02*
X124782266Y-49273038D01*
X124782266Y-49273038D02*
X124782266Y-49653990D01*
X124782266Y-49653990D02*
X124734647Y-49749228D01*
X124734647Y-49749228D02*
X124639409Y-49796847D01*
X124639409Y-49796847D02*
X124448933Y-49796847D01*
X124448933Y-49796847D02*
X124353695Y-49749228D01*
X124353695Y-49749228D02*
X124306076Y-49653990D01*
X124306076Y-49653990D02*
X124306076Y-49558752D01*
X124306076Y-49558752D02*
X124782266Y-49463514D01*
X123972742Y-49796847D02*
X123734647Y-49130180D01*
X123734647Y-49130180D02*
X123496552Y-49796847D01*
X122734647Y-49177800D02*
X122829885Y-49130180D01*
X122829885Y-49130180D02*
X123020361Y-49130180D01*
X123020361Y-49130180D02*
X123115599Y-49177800D01*
X123115599Y-49177800D02*
X123163218Y-49273038D01*
X123163218Y-49273038D02*
X123163218Y-49653990D01*
X123163218Y-49653990D02*
X123115599Y-49749228D01*
X123115599Y-49749228D02*
X123020361Y-49796847D01*
X123020361Y-49796847D02*
X122829885Y-49796847D01*
X122829885Y-49796847D02*
X122734647Y-49749228D01*
X122734647Y-49749228D02*
X122687028Y-49653990D01*
X122687028Y-49653990D02*
X122687028Y-49558752D01*
X122687028Y-49558752D02*
X123163218Y-49463514D01*
X121544170Y-49415895D02*
X121067980Y-49415895D01*
X121639408Y-49130180D02*
X121306075Y-50130180D01*
X121306075Y-50130180D02*
X120972742Y-49130180D01*
X120639408Y-49225419D02*
X120591789Y-49177800D01*
X120591789Y-49177800D02*
X120639408Y-49130180D01*
X120639408Y-49130180D02*
X120687027Y-49177800D01*
X120687027Y-49177800D02*
X120639408Y-49225419D01*
X120639408Y-49225419D02*
X120639408Y-49130180D01*
X119401313Y-49130180D02*
X119401313Y-50130180D01*
X119401313Y-50130180D02*
X118829885Y-49130180D01*
X118829885Y-49130180D02*
X118829885Y-50130180D01*
X118353694Y-49130180D02*
X118353694Y-50130180D01*
X118258456Y-49511133D02*
X117972742Y-49130180D01*
X117972742Y-49796847D02*
X118353694Y-49415895D01*
X117163218Y-49177800D02*
X117258456Y-49130180D01*
X117258456Y-49130180D02*
X117448932Y-49130180D01*
X117448932Y-49130180D02*
X117544170Y-49177800D01*
X117544170Y-49177800D02*
X117591789Y-49273038D01*
X117591789Y-49273038D02*
X117591789Y-49653990D01*
X117591789Y-49653990D02*
X117544170Y-49749228D01*
X117544170Y-49749228D02*
X117448932Y-49796847D01*
X117448932Y-49796847D02*
X117258456Y-49796847D01*
X117258456Y-49796847D02*
X117163218Y-49749228D01*
X117163218Y-49749228D02*
X117115599Y-49653990D01*
X117115599Y-49653990D02*
X117115599Y-49558752D01*
X117115599Y-49558752D02*
X117591789Y-49463514D01*
X116829884Y-49796847D02*
X116448932Y-49796847D01*
X116687027Y-50130180D02*
X116687027Y-49273038D01*
X116687027Y-49273038D02*
X116639408Y-49177800D01*
X116639408Y-49177800D02*
X116544170Y-49130180D01*
X116544170Y-49130180D02*
X116448932Y-49130180D01*
X116115598Y-49130180D02*
X116115598Y-49796847D01*
X116115598Y-50130180D02*
X116163217Y-50082561D01*
X116163217Y-50082561D02*
X116115598Y-50034942D01*
X116115598Y-50034942D02*
X116067979Y-50082561D01*
X116067979Y-50082561D02*
X116115598Y-50130180D01*
X116115598Y-50130180D02*
X116115598Y-50034942D01*
X115210837Y-49130180D02*
X115210837Y-49653990D01*
X115210837Y-49653990D02*
X115258456Y-49749228D01*
X115258456Y-49749228D02*
X115353694Y-49796847D01*
X115353694Y-49796847D02*
X115544170Y-49796847D01*
X115544170Y-49796847D02*
X115639408Y-49749228D01*
X115210837Y-49177800D02*
X115306075Y-49130180D01*
X115306075Y-49130180D02*
X115544170Y-49130180D01*
X115544170Y-49130180D02*
X115639408Y-49177800D01*
X115639408Y-49177800D02*
X115687027Y-49273038D01*
X115687027Y-49273038D02*
X115687027Y-49368276D01*
X115687027Y-49368276D02*
X115639408Y-49463514D01*
X115639408Y-49463514D02*
X115544170Y-49511133D01*
X115544170Y-49511133D02*
X115306075Y-49511133D01*
X115306075Y-49511133D02*
X115210837Y-49558752D01*
X114734646Y-49130180D02*
X114734646Y-50130180D01*
X114306075Y-49130180D02*
X114306075Y-49653990D01*
X114306075Y-49653990D02*
X114353694Y-49749228D01*
X114353694Y-49749228D02*
X114448932Y-49796847D01*
X114448932Y-49796847D02*
X114591789Y-49796847D01*
X114591789Y-49796847D02*
X114687027Y-49749228D01*
X114687027Y-49749228D02*
X114734646Y-49701609D01*
X141754819Y-64916666D02*
X141754819Y-65392856D01*
X141754819Y-65392856D02*
X140754819Y-65392856D01*
X141754819Y-64059523D02*
X141754819Y-64630951D01*
X141754819Y-64345237D02*
X140754819Y-64345237D01*
X140754819Y-64345237D02*
X140897676Y-64440475D01*
X140897676Y-64440475D02*
X140992914Y-64535713D01*
X140992914Y-64535713D02*
X141040533Y-64630951D01*
X148338095Y-65254819D02*
X148338095Y-66064342D01*
X148338095Y-66064342D02*
X148385714Y-66159580D01*
X148385714Y-66159580D02*
X148433333Y-66207200D01*
X148433333Y-66207200D02*
X148528571Y-66254819D01*
X148528571Y-66254819D02*
X148719047Y-66254819D01*
X148719047Y-66254819D02*
X148814285Y-66207200D01*
X148814285Y-66207200D02*
X148861904Y-66159580D01*
X148861904Y-66159580D02*
X148909523Y-66064342D01*
X148909523Y-66064342D02*
X148909523Y-65254819D01*
X149338095Y-65350057D02*
X149385714Y-65302438D01*
X149385714Y-65302438D02*
X149480952Y-65254819D01*
X149480952Y-65254819D02*
X149719047Y-65254819D01*
X149719047Y-65254819D02*
X149814285Y-65302438D01*
X149814285Y-65302438D02*
X149861904Y-65350057D01*
X149861904Y-65350057D02*
X149909523Y-65445295D01*
X149909523Y-65445295D02*
X149909523Y-65540533D01*
X149909523Y-65540533D02*
X149861904Y-65683390D01*
X149861904Y-65683390D02*
X149290476Y-66254819D01*
X149290476Y-66254819D02*
X149909523Y-66254819D01*
X130260595Y-73704819D02*
X130260595Y-74514342D01*
X130260595Y-74514342D02*
X130308214Y-74609580D01*
X130308214Y-74609580D02*
X130355833Y-74657200D01*
X130355833Y-74657200D02*
X130451071Y-74704819D01*
X130451071Y-74704819D02*
X130641547Y-74704819D01*
X130641547Y-74704819D02*
X130736785Y-74657200D01*
X130736785Y-74657200D02*
X130784404Y-74609580D01*
X130784404Y-74609580D02*
X130832023Y-74514342D01*
X130832023Y-74514342D02*
X130832023Y-73704819D01*
X131832023Y-74704819D02*
X131260595Y-74704819D01*
X131546309Y-74704819D02*
X131546309Y-73704819D01*
X131546309Y-73704819D02*
X131451071Y-73847676D01*
X131451071Y-73847676D02*
X131355833Y-73942914D01*
X131355833Y-73942914D02*
X131260595Y-73990533D01*
X124554819Y-68355357D02*
X124078628Y-68688690D01*
X124554819Y-68926785D02*
X123554819Y-68926785D01*
X123554819Y-68926785D02*
X123554819Y-68545833D01*
X123554819Y-68545833D02*
X123602438Y-68450595D01*
X123602438Y-68450595D02*
X123650057Y-68402976D01*
X123650057Y-68402976D02*
X123745295Y-68355357D01*
X123745295Y-68355357D02*
X123888152Y-68355357D01*
X123888152Y-68355357D02*
X123983390Y-68402976D01*
X123983390Y-68402976D02*
X124031009Y-68450595D01*
X124031009Y-68450595D02*
X124078628Y-68545833D01*
X124078628Y-68545833D02*
X124078628Y-68926785D01*
X124554819Y-67402976D02*
X124554819Y-67974404D01*
X124554819Y-67688690D02*
X123554819Y-67688690D01*
X123554819Y-67688690D02*
X123697676Y-67783928D01*
X123697676Y-67783928D02*
X123792914Y-67879166D01*
X123792914Y-67879166D02*
X123840533Y-67974404D01*
X123554819Y-66783928D02*
X123554819Y-66688690D01*
X123554819Y-66688690D02*
X123602438Y-66593452D01*
X123602438Y-66593452D02*
X123650057Y-66545833D01*
X123650057Y-66545833D02*
X123745295Y-66498214D01*
X123745295Y-66498214D02*
X123935771Y-66450595D01*
X123935771Y-66450595D02*
X124173866Y-66450595D01*
X124173866Y-66450595D02*
X124364342Y-66498214D01*
X124364342Y-66498214D02*
X124459580Y-66545833D01*
X124459580Y-66545833D02*
X124507200Y-66593452D01*
X124507200Y-66593452D02*
X124554819Y-66688690D01*
X124554819Y-66688690D02*
X124554819Y-66783928D01*
X124554819Y-66783928D02*
X124507200Y-66879166D01*
X124507200Y-66879166D02*
X124459580Y-66926785D01*
X124459580Y-66926785D02*
X124364342Y-66974404D01*
X124364342Y-66974404D02*
X124173866Y-67022023D01*
X124173866Y-67022023D02*
X123935771Y-67022023D01*
X123935771Y-67022023D02*
X123745295Y-66974404D01*
X123745295Y-66974404D02*
X123650057Y-66926785D01*
X123650057Y-66926785D02*
X123602438Y-66879166D01*
X123602438Y-66879166D02*
X123554819Y-66783928D01*
X156654819Y-69916666D02*
X156178628Y-70249999D01*
X156654819Y-70488094D02*
X155654819Y-70488094D01*
X155654819Y-70488094D02*
X155654819Y-70107142D01*
X155654819Y-70107142D02*
X155702438Y-70011904D01*
X155702438Y-70011904D02*
X155750057Y-69964285D01*
X155750057Y-69964285D02*
X155845295Y-69916666D01*
X155845295Y-69916666D02*
X155988152Y-69916666D01*
X155988152Y-69916666D02*
X156083390Y-69964285D01*
X156083390Y-69964285D02*
X156131009Y-70011904D01*
X156131009Y-70011904D02*
X156178628Y-70107142D01*
X156178628Y-70107142D02*
X156178628Y-70488094D01*
X155988152Y-69059523D02*
X156654819Y-69059523D01*
X155607200Y-69297618D02*
X156321485Y-69535713D01*
X156321485Y-69535713D02*
X156321485Y-68916666D01*
X126454819Y-97842857D02*
X125978628Y-98176190D01*
X126454819Y-98414285D02*
X125454819Y-98414285D01*
X125454819Y-98414285D02*
X125454819Y-98033333D01*
X125454819Y-98033333D02*
X125502438Y-97938095D01*
X125502438Y-97938095D02*
X125550057Y-97890476D01*
X125550057Y-97890476D02*
X125645295Y-97842857D01*
X125645295Y-97842857D02*
X125788152Y-97842857D01*
X125788152Y-97842857D02*
X125883390Y-97890476D01*
X125883390Y-97890476D02*
X125931009Y-97938095D01*
X125931009Y-97938095D02*
X125978628Y-98033333D01*
X125978628Y-98033333D02*
X125978628Y-98414285D01*
X126454819Y-96890476D02*
X126454819Y-97461904D01*
X126454819Y-97176190D02*
X125454819Y-97176190D01*
X125454819Y-97176190D02*
X125597676Y-97271428D01*
X125597676Y-97271428D02*
X125692914Y-97366666D01*
X125692914Y-97366666D02*
X125740533Y-97461904D01*
X125454819Y-96557142D02*
X125454819Y-95890476D01*
X125454819Y-95890476D02*
X126454819Y-96319047D01*
X167459580Y-82566666D02*
X167507200Y-82614285D01*
X167507200Y-82614285D02*
X167554819Y-82757142D01*
X167554819Y-82757142D02*
X167554819Y-82852380D01*
X167554819Y-82852380D02*
X167507200Y-82995237D01*
X167507200Y-82995237D02*
X167411961Y-83090475D01*
X167411961Y-83090475D02*
X167316723Y-83138094D01*
X167316723Y-83138094D02*
X167126247Y-83185713D01*
X167126247Y-83185713D02*
X166983390Y-83185713D01*
X166983390Y-83185713D02*
X166792914Y-83138094D01*
X166792914Y-83138094D02*
X166697676Y-83090475D01*
X166697676Y-83090475D02*
X166602438Y-82995237D01*
X166602438Y-82995237D02*
X166554819Y-82852380D01*
X166554819Y-82852380D02*
X166554819Y-82757142D01*
X166554819Y-82757142D02*
X166602438Y-82614285D01*
X166602438Y-82614285D02*
X166650057Y-82566666D01*
X166983390Y-81995237D02*
X166935771Y-82090475D01*
X166935771Y-82090475D02*
X166888152Y-82138094D01*
X166888152Y-82138094D02*
X166792914Y-82185713D01*
X166792914Y-82185713D02*
X166745295Y-82185713D01*
X166745295Y-82185713D02*
X166650057Y-82138094D01*
X166650057Y-82138094D02*
X166602438Y-82090475D01*
X166602438Y-82090475D02*
X166554819Y-81995237D01*
X166554819Y-81995237D02*
X166554819Y-81804761D01*
X166554819Y-81804761D02*
X166602438Y-81709523D01*
X166602438Y-81709523D02*
X166650057Y-81661904D01*
X166650057Y-81661904D02*
X166745295Y-81614285D01*
X166745295Y-81614285D02*
X166792914Y-81614285D01*
X166792914Y-81614285D02*
X166888152Y-81661904D01*
X166888152Y-81661904D02*
X166935771Y-81709523D01*
X166935771Y-81709523D02*
X166983390Y-81804761D01*
X166983390Y-81804761D02*
X166983390Y-81995237D01*
X166983390Y-81995237D02*
X167031009Y-82090475D01*
X167031009Y-82090475D02*
X167078628Y-82138094D01*
X167078628Y-82138094D02*
X167173866Y-82185713D01*
X167173866Y-82185713D02*
X167364342Y-82185713D01*
X167364342Y-82185713D02*
X167459580Y-82138094D01*
X167459580Y-82138094D02*
X167507200Y-82090475D01*
X167507200Y-82090475D02*
X167554819Y-81995237D01*
X167554819Y-81995237D02*
X167554819Y-81804761D01*
X167554819Y-81804761D02*
X167507200Y-81709523D01*
X167507200Y-81709523D02*
X167459580Y-81661904D01*
X167459580Y-81661904D02*
X167364342Y-81614285D01*
X167364342Y-81614285D02*
X167173866Y-81614285D01*
X167173866Y-81614285D02*
X167078628Y-81661904D01*
X167078628Y-81661904D02*
X167031009Y-81709523D01*
X167031009Y-81709523D02*
X166983390Y-81804761D01*
X162233333Y-80259580D02*
X162185714Y-80307200D01*
X162185714Y-80307200D02*
X162042857Y-80354819D01*
X162042857Y-80354819D02*
X161947619Y-80354819D01*
X161947619Y-80354819D02*
X161804762Y-80307200D01*
X161804762Y-80307200D02*
X161709524Y-80211961D01*
X161709524Y-80211961D02*
X161661905Y-80116723D01*
X161661905Y-80116723D02*
X161614286Y-79926247D01*
X161614286Y-79926247D02*
X161614286Y-79783390D01*
X161614286Y-79783390D02*
X161661905Y-79592914D01*
X161661905Y-79592914D02*
X161709524Y-79497676D01*
X161709524Y-79497676D02*
X161804762Y-79402438D01*
X161804762Y-79402438D02*
X161947619Y-79354819D01*
X161947619Y-79354819D02*
X162042857Y-79354819D01*
X162042857Y-79354819D02*
X162185714Y-79402438D01*
X162185714Y-79402438D02*
X162233333Y-79450057D01*
X162566667Y-79354819D02*
X163233333Y-79354819D01*
X163233333Y-79354819D02*
X162804762Y-80354819D01*
X154759580Y-69829166D02*
X154807200Y-69876785D01*
X154807200Y-69876785D02*
X154854819Y-70019642D01*
X154854819Y-70019642D02*
X154854819Y-70114880D01*
X154854819Y-70114880D02*
X154807200Y-70257737D01*
X154807200Y-70257737D02*
X154711961Y-70352975D01*
X154711961Y-70352975D02*
X154616723Y-70400594D01*
X154616723Y-70400594D02*
X154426247Y-70448213D01*
X154426247Y-70448213D02*
X154283390Y-70448213D01*
X154283390Y-70448213D02*
X154092914Y-70400594D01*
X154092914Y-70400594D02*
X153997676Y-70352975D01*
X153997676Y-70352975D02*
X153902438Y-70257737D01*
X153902438Y-70257737D02*
X153854819Y-70114880D01*
X153854819Y-70114880D02*
X153854819Y-70019642D01*
X153854819Y-70019642D02*
X153902438Y-69876785D01*
X153902438Y-69876785D02*
X153950057Y-69829166D01*
X153854819Y-68972023D02*
X153854819Y-69162499D01*
X153854819Y-69162499D02*
X153902438Y-69257737D01*
X153902438Y-69257737D02*
X153950057Y-69305356D01*
X153950057Y-69305356D02*
X154092914Y-69400594D01*
X154092914Y-69400594D02*
X154283390Y-69448213D01*
X154283390Y-69448213D02*
X154664342Y-69448213D01*
X154664342Y-69448213D02*
X154759580Y-69400594D01*
X154759580Y-69400594D02*
X154807200Y-69352975D01*
X154807200Y-69352975D02*
X154854819Y-69257737D01*
X154854819Y-69257737D02*
X154854819Y-69067261D01*
X154854819Y-69067261D02*
X154807200Y-68972023D01*
X154807200Y-68972023D02*
X154759580Y-68924404D01*
X154759580Y-68924404D02*
X154664342Y-68876785D01*
X154664342Y-68876785D02*
X154426247Y-68876785D01*
X154426247Y-68876785D02*
X154331009Y-68924404D01*
X154331009Y-68924404D02*
X154283390Y-68972023D01*
X154283390Y-68972023D02*
X154235771Y-69067261D01*
X154235771Y-69067261D02*
X154235771Y-69257737D01*
X154235771Y-69257737D02*
X154283390Y-69352975D01*
X154283390Y-69352975D02*
X154331009Y-69400594D01*
X154331009Y-69400594D02*
X154426247Y-69448213D01*
X160949819Y-116166666D02*
X160473628Y-116499999D01*
X160949819Y-116738094D02*
X159949819Y-116738094D01*
X159949819Y-116738094D02*
X159949819Y-116357142D01*
X159949819Y-116357142D02*
X159997438Y-116261904D01*
X159997438Y-116261904D02*
X160045057Y-116214285D01*
X160045057Y-116214285D02*
X160140295Y-116166666D01*
X160140295Y-116166666D02*
X160283152Y-116166666D01*
X160283152Y-116166666D02*
X160378390Y-116214285D01*
X160378390Y-116214285D02*
X160426009Y-116261904D01*
X160426009Y-116261904D02*
X160473628Y-116357142D01*
X160473628Y-116357142D02*
X160473628Y-116738094D01*
X159949819Y-115261904D02*
X159949819Y-115738094D01*
X159949819Y-115738094D02*
X160426009Y-115785713D01*
X160426009Y-115785713D02*
X160378390Y-115738094D01*
X160378390Y-115738094D02*
X160330771Y-115642856D01*
X160330771Y-115642856D02*
X160330771Y-115404761D01*
X160330771Y-115404761D02*
X160378390Y-115309523D01*
X160378390Y-115309523D02*
X160426009Y-115261904D01*
X160426009Y-115261904D02*
X160521247Y-115214285D01*
X160521247Y-115214285D02*
X160759342Y-115214285D01*
X160759342Y-115214285D02*
X160854580Y-115261904D01*
X160854580Y-115261904D02*
X160902200Y-115309523D01*
X160902200Y-115309523D02*
X160949819Y-115404761D01*
X160949819Y-115404761D02*
X160949819Y-115642856D01*
X160949819Y-115642856D02*
X160902200Y-115738094D01*
X160902200Y-115738094D02*
X160854580Y-115785713D01*
X126364819Y-68566666D02*
X125888628Y-68899999D01*
X126364819Y-69138094D02*
X125364819Y-69138094D01*
X125364819Y-69138094D02*
X125364819Y-68757142D01*
X125364819Y-68757142D02*
X125412438Y-68661904D01*
X125412438Y-68661904D02*
X125460057Y-68614285D01*
X125460057Y-68614285D02*
X125555295Y-68566666D01*
X125555295Y-68566666D02*
X125698152Y-68566666D01*
X125698152Y-68566666D02*
X125793390Y-68614285D01*
X125793390Y-68614285D02*
X125841009Y-68661904D01*
X125841009Y-68661904D02*
X125888628Y-68757142D01*
X125888628Y-68757142D02*
X125888628Y-69138094D01*
X125460057Y-68185713D02*
X125412438Y-68138094D01*
X125412438Y-68138094D02*
X125364819Y-68042856D01*
X125364819Y-68042856D02*
X125364819Y-67804761D01*
X125364819Y-67804761D02*
X125412438Y-67709523D01*
X125412438Y-67709523D02*
X125460057Y-67661904D01*
X125460057Y-67661904D02*
X125555295Y-67614285D01*
X125555295Y-67614285D02*
X125650533Y-67614285D01*
X125650533Y-67614285D02*
X125793390Y-67661904D01*
X125793390Y-67661904D02*
X126364819Y-68233332D01*
X126364819Y-68233332D02*
X126364819Y-67614285D01*
X120904761Y-73850057D02*
X120809523Y-73802438D01*
X120809523Y-73802438D02*
X120714285Y-73707200D01*
X120714285Y-73707200D02*
X120571428Y-73564342D01*
X120571428Y-73564342D02*
X120476190Y-73516723D01*
X120476190Y-73516723D02*
X120380952Y-73516723D01*
X120428571Y-73754819D02*
X120333333Y-73707200D01*
X120333333Y-73707200D02*
X120238095Y-73611961D01*
X120238095Y-73611961D02*
X120190476Y-73421485D01*
X120190476Y-73421485D02*
X120190476Y-73088152D01*
X120190476Y-73088152D02*
X120238095Y-72897676D01*
X120238095Y-72897676D02*
X120333333Y-72802438D01*
X120333333Y-72802438D02*
X120428571Y-72754819D01*
X120428571Y-72754819D02*
X120619047Y-72754819D01*
X120619047Y-72754819D02*
X120714285Y-72802438D01*
X120714285Y-72802438D02*
X120809523Y-72897676D01*
X120809523Y-72897676D02*
X120857142Y-73088152D01*
X120857142Y-73088152D02*
X120857142Y-73421485D01*
X120857142Y-73421485D02*
X120809523Y-73611961D01*
X120809523Y-73611961D02*
X120714285Y-73707200D01*
X120714285Y-73707200D02*
X120619047Y-73754819D01*
X120619047Y-73754819D02*
X120428571Y-73754819D01*
X121809523Y-73754819D02*
X121238095Y-73754819D01*
X121523809Y-73754819D02*
X121523809Y-72754819D01*
X121523809Y-72754819D02*
X121428571Y-72897676D01*
X121428571Y-72897676D02*
X121333333Y-72992914D01*
X121333333Y-72992914D02*
X121238095Y-73040533D01*
X162949819Y-99530357D02*
X162473628Y-99863690D01*
X162949819Y-100101785D02*
X161949819Y-100101785D01*
X161949819Y-100101785D02*
X161949819Y-99720833D01*
X161949819Y-99720833D02*
X161997438Y-99625595D01*
X161997438Y-99625595D02*
X162045057Y-99577976D01*
X162045057Y-99577976D02*
X162140295Y-99530357D01*
X162140295Y-99530357D02*
X162283152Y-99530357D01*
X162283152Y-99530357D02*
X162378390Y-99577976D01*
X162378390Y-99577976D02*
X162426009Y-99625595D01*
X162426009Y-99625595D02*
X162473628Y-99720833D01*
X162473628Y-99720833D02*
X162473628Y-100101785D01*
X162949819Y-98577976D02*
X162949819Y-99149404D01*
X162949819Y-98863690D02*
X161949819Y-98863690D01*
X161949819Y-98863690D02*
X162092676Y-98958928D01*
X162092676Y-98958928D02*
X162187914Y-99054166D01*
X162187914Y-99054166D02*
X162235533Y-99149404D01*
X162949819Y-97625595D02*
X162949819Y-98197023D01*
X162949819Y-97911309D02*
X161949819Y-97911309D01*
X161949819Y-97911309D02*
X162092676Y-98006547D01*
X162092676Y-98006547D02*
X162187914Y-98101785D01*
X162187914Y-98101785D02*
X162235533Y-98197023D01*
X160454819Y-68142857D02*
X159978628Y-68476190D01*
X160454819Y-68714285D02*
X159454819Y-68714285D01*
X159454819Y-68714285D02*
X159454819Y-68333333D01*
X159454819Y-68333333D02*
X159502438Y-68238095D01*
X159502438Y-68238095D02*
X159550057Y-68190476D01*
X159550057Y-68190476D02*
X159645295Y-68142857D01*
X159645295Y-68142857D02*
X159788152Y-68142857D01*
X159788152Y-68142857D02*
X159883390Y-68190476D01*
X159883390Y-68190476D02*
X159931009Y-68238095D01*
X159931009Y-68238095D02*
X159978628Y-68333333D01*
X159978628Y-68333333D02*
X159978628Y-68714285D01*
X160454819Y-67190476D02*
X160454819Y-67761904D01*
X160454819Y-67476190D02*
X159454819Y-67476190D01*
X159454819Y-67476190D02*
X159597676Y-67571428D01*
X159597676Y-67571428D02*
X159692914Y-67666666D01*
X159692914Y-67666666D02*
X159740533Y-67761904D01*
X159454819Y-66333333D02*
X159454819Y-66523809D01*
X159454819Y-66523809D02*
X159502438Y-66619047D01*
X159502438Y-66619047D02*
X159550057Y-66666666D01*
X159550057Y-66666666D02*
X159692914Y-66761904D01*
X159692914Y-66761904D02*
X159883390Y-66809523D01*
X159883390Y-66809523D02*
X160264342Y-66809523D01*
X160264342Y-66809523D02*
X160359580Y-66761904D01*
X160359580Y-66761904D02*
X160407200Y-66714285D01*
X160407200Y-66714285D02*
X160454819Y-66619047D01*
X160454819Y-66619047D02*
X160454819Y-66428571D01*
X160454819Y-66428571D02*
X160407200Y-66333333D01*
X160407200Y-66333333D02*
X160359580Y-66285714D01*
X160359580Y-66285714D02*
X160264342Y-66238095D01*
X160264342Y-66238095D02*
X160026247Y-66238095D01*
X160026247Y-66238095D02*
X159931009Y-66285714D01*
X159931009Y-66285714D02*
X159883390Y-66333333D01*
X159883390Y-66333333D02*
X159835771Y-66428571D01*
X159835771Y-66428571D02*
X159835771Y-66619047D01*
X159835771Y-66619047D02*
X159883390Y-66714285D01*
X159883390Y-66714285D02*
X159931009Y-66761904D01*
X159931009Y-66761904D02*
X160026247Y-66809523D01*
X156433333Y-63754819D02*
X156100000Y-63278628D01*
X155861905Y-63754819D02*
X155861905Y-62754819D01*
X155861905Y-62754819D02*
X156242857Y-62754819D01*
X156242857Y-62754819D02*
X156338095Y-62802438D01*
X156338095Y-62802438D02*
X156385714Y-62850057D01*
X156385714Y-62850057D02*
X156433333Y-62945295D01*
X156433333Y-62945295D02*
X156433333Y-63088152D01*
X156433333Y-63088152D02*
X156385714Y-63183390D01*
X156385714Y-63183390D02*
X156338095Y-63231009D01*
X156338095Y-63231009D02*
X156242857Y-63278628D01*
X156242857Y-63278628D02*
X155861905Y-63278628D01*
X157385714Y-63754819D02*
X156814286Y-63754819D01*
X157100000Y-63754819D02*
X157100000Y-62754819D01*
X157100000Y-62754819D02*
X157004762Y-62897676D01*
X157004762Y-62897676D02*
X156909524Y-62992914D01*
X156909524Y-62992914D02*
X156814286Y-63040533D01*
X138933333Y-74109580D02*
X138885714Y-74157200D01*
X138885714Y-74157200D02*
X138742857Y-74204819D01*
X138742857Y-74204819D02*
X138647619Y-74204819D01*
X138647619Y-74204819D02*
X138504762Y-74157200D01*
X138504762Y-74157200D02*
X138409524Y-74061961D01*
X138409524Y-74061961D02*
X138361905Y-73966723D01*
X138361905Y-73966723D02*
X138314286Y-73776247D01*
X138314286Y-73776247D02*
X138314286Y-73633390D01*
X138314286Y-73633390D02*
X138361905Y-73442914D01*
X138361905Y-73442914D02*
X138409524Y-73347676D01*
X138409524Y-73347676D02*
X138504762Y-73252438D01*
X138504762Y-73252438D02*
X138647619Y-73204819D01*
X138647619Y-73204819D02*
X138742857Y-73204819D01*
X138742857Y-73204819D02*
X138885714Y-73252438D01*
X138885714Y-73252438D02*
X138933333Y-73300057D01*
X139838095Y-73204819D02*
X139361905Y-73204819D01*
X139361905Y-73204819D02*
X139314286Y-73681009D01*
X139314286Y-73681009D02*
X139361905Y-73633390D01*
X139361905Y-73633390D02*
X139457143Y-73585771D01*
X139457143Y-73585771D02*
X139695238Y-73585771D01*
X139695238Y-73585771D02*
X139790476Y-73633390D01*
X139790476Y-73633390D02*
X139838095Y-73681009D01*
X139838095Y-73681009D02*
X139885714Y-73776247D01*
X139885714Y-73776247D02*
X139885714Y-74014342D01*
X139885714Y-74014342D02*
X139838095Y-74109580D01*
X139838095Y-74109580D02*
X139790476Y-74157200D01*
X139790476Y-74157200D02*
X139695238Y-74204819D01*
X139695238Y-74204819D02*
X139457143Y-74204819D01*
X139457143Y-74204819D02*
X139361905Y-74157200D01*
X139361905Y-74157200D02*
X139314286Y-74109580D01*
X165204761Y-99950057D02*
X165109523Y-99902438D01*
X165109523Y-99902438D02*
X165014285Y-99807200D01*
X165014285Y-99807200D02*
X164871428Y-99664342D01*
X164871428Y-99664342D02*
X164776190Y-99616723D01*
X164776190Y-99616723D02*
X164680952Y-99616723D01*
X164728571Y-99854819D02*
X164633333Y-99807200D01*
X164633333Y-99807200D02*
X164538095Y-99711961D01*
X164538095Y-99711961D02*
X164490476Y-99521485D01*
X164490476Y-99521485D02*
X164490476Y-99188152D01*
X164490476Y-99188152D02*
X164538095Y-98997676D01*
X164538095Y-98997676D02*
X164633333Y-98902438D01*
X164633333Y-98902438D02*
X164728571Y-98854819D01*
X164728571Y-98854819D02*
X164919047Y-98854819D01*
X164919047Y-98854819D02*
X165014285Y-98902438D01*
X165014285Y-98902438D02*
X165109523Y-98997676D01*
X165109523Y-98997676D02*
X165157142Y-99188152D01*
X165157142Y-99188152D02*
X165157142Y-99521485D01*
X165157142Y-99521485D02*
X165109523Y-99711961D01*
X165109523Y-99711961D02*
X165014285Y-99807200D01*
X165014285Y-99807200D02*
X164919047Y-99854819D01*
X164919047Y-99854819D02*
X164728571Y-99854819D01*
X165538095Y-98950057D02*
X165585714Y-98902438D01*
X165585714Y-98902438D02*
X165680952Y-98854819D01*
X165680952Y-98854819D02*
X165919047Y-98854819D01*
X165919047Y-98854819D02*
X166014285Y-98902438D01*
X166014285Y-98902438D02*
X166061904Y-98950057D01*
X166061904Y-98950057D02*
X166109523Y-99045295D01*
X166109523Y-99045295D02*
X166109523Y-99140533D01*
X166109523Y-99140533D02*
X166061904Y-99283390D01*
X166061904Y-99283390D02*
X165490476Y-99854819D01*
X165490476Y-99854819D02*
X166109523Y-99854819D01*
X153054819Y-69829166D02*
X152578628Y-70162499D01*
X153054819Y-70400594D02*
X152054819Y-70400594D01*
X152054819Y-70400594D02*
X152054819Y-70019642D01*
X152054819Y-70019642D02*
X152102438Y-69924404D01*
X152102438Y-69924404D02*
X152150057Y-69876785D01*
X152150057Y-69876785D02*
X152245295Y-69829166D01*
X152245295Y-69829166D02*
X152388152Y-69829166D01*
X152388152Y-69829166D02*
X152483390Y-69876785D01*
X152483390Y-69876785D02*
X152531009Y-69924404D01*
X152531009Y-69924404D02*
X152578628Y-70019642D01*
X152578628Y-70019642D02*
X152578628Y-70400594D01*
X152054819Y-69495832D02*
X152054819Y-68876785D01*
X152054819Y-68876785D02*
X152435771Y-69210118D01*
X152435771Y-69210118D02*
X152435771Y-69067261D01*
X152435771Y-69067261D02*
X152483390Y-68972023D01*
X152483390Y-68972023D02*
X152531009Y-68924404D01*
X152531009Y-68924404D02*
X152626247Y-68876785D01*
X152626247Y-68876785D02*
X152864342Y-68876785D01*
X152864342Y-68876785D02*
X152959580Y-68924404D01*
X152959580Y-68924404D02*
X153007200Y-68972023D01*
X153007200Y-68972023D02*
X153054819Y-69067261D01*
X153054819Y-69067261D02*
X153054819Y-69352975D01*
X153054819Y-69352975D02*
X153007200Y-69448213D01*
X153007200Y-69448213D02*
X152959580Y-69495832D01*
X120854761Y-83150057D02*
X120759523Y-83102438D01*
X120759523Y-83102438D02*
X120664285Y-83007200D01*
X120664285Y-83007200D02*
X120521428Y-82864342D01*
X120521428Y-82864342D02*
X120426190Y-82816723D01*
X120426190Y-82816723D02*
X120330952Y-82816723D01*
X120378571Y-83054819D02*
X120283333Y-83007200D01*
X120283333Y-83007200D02*
X120188095Y-82911961D01*
X120188095Y-82911961D02*
X120140476Y-82721485D01*
X120140476Y-82721485D02*
X120140476Y-82388152D01*
X120140476Y-82388152D02*
X120188095Y-82197676D01*
X120188095Y-82197676D02*
X120283333Y-82102438D01*
X120283333Y-82102438D02*
X120378571Y-82054819D01*
X120378571Y-82054819D02*
X120569047Y-82054819D01*
X120569047Y-82054819D02*
X120664285Y-82102438D01*
X120664285Y-82102438D02*
X120759523Y-82197676D01*
X120759523Y-82197676D02*
X120807142Y-82388152D01*
X120807142Y-82388152D02*
X120807142Y-82721485D01*
X120807142Y-82721485D02*
X120759523Y-82911961D01*
X120759523Y-82911961D02*
X120664285Y-83007200D01*
X120664285Y-83007200D02*
X120569047Y-83054819D01*
X120569047Y-83054819D02*
X120378571Y-83054819D01*
X121711904Y-82054819D02*
X121235714Y-82054819D01*
X121235714Y-82054819D02*
X121188095Y-82531009D01*
X121188095Y-82531009D02*
X121235714Y-82483390D01*
X121235714Y-82483390D02*
X121330952Y-82435771D01*
X121330952Y-82435771D02*
X121569047Y-82435771D01*
X121569047Y-82435771D02*
X121664285Y-82483390D01*
X121664285Y-82483390D02*
X121711904Y-82531009D01*
X121711904Y-82531009D02*
X121759523Y-82626247D01*
X121759523Y-82626247D02*
X121759523Y-82864342D01*
X121759523Y-82864342D02*
X121711904Y-82959580D01*
X121711904Y-82959580D02*
X121664285Y-83007200D01*
X121664285Y-83007200D02*
X121569047Y-83054819D01*
X121569047Y-83054819D02*
X121330952Y-83054819D01*
X121330952Y-83054819D02*
X121235714Y-83007200D01*
X121235714Y-83007200D02*
X121188095Y-82959580D01*
X160949819Y-99554166D02*
X160473628Y-99887499D01*
X160949819Y-100125594D02*
X159949819Y-100125594D01*
X159949819Y-100125594D02*
X159949819Y-99744642D01*
X159949819Y-99744642D02*
X159997438Y-99649404D01*
X159997438Y-99649404D02*
X160045057Y-99601785D01*
X160045057Y-99601785D02*
X160140295Y-99554166D01*
X160140295Y-99554166D02*
X160283152Y-99554166D01*
X160283152Y-99554166D02*
X160378390Y-99601785D01*
X160378390Y-99601785D02*
X160426009Y-99649404D01*
X160426009Y-99649404D02*
X160473628Y-99744642D01*
X160473628Y-99744642D02*
X160473628Y-100125594D01*
X159949819Y-99220832D02*
X159949819Y-98554166D01*
X159949819Y-98554166D02*
X160949819Y-98982737D01*
X124704819Y-97842857D02*
X124228628Y-98176190D01*
X124704819Y-98414285D02*
X123704819Y-98414285D01*
X123704819Y-98414285D02*
X123704819Y-98033333D01*
X123704819Y-98033333D02*
X123752438Y-97938095D01*
X123752438Y-97938095D02*
X123800057Y-97890476D01*
X123800057Y-97890476D02*
X123895295Y-97842857D01*
X123895295Y-97842857D02*
X124038152Y-97842857D01*
X124038152Y-97842857D02*
X124133390Y-97890476D01*
X124133390Y-97890476D02*
X124181009Y-97938095D01*
X124181009Y-97938095D02*
X124228628Y-98033333D01*
X124228628Y-98033333D02*
X124228628Y-98414285D01*
X124704819Y-96890476D02*
X124704819Y-97461904D01*
X124704819Y-97176190D02*
X123704819Y-97176190D01*
X123704819Y-97176190D02*
X123847676Y-97271428D01*
X123847676Y-97271428D02*
X123942914Y-97366666D01*
X123942914Y-97366666D02*
X123990533Y-97461904D01*
X124133390Y-96319047D02*
X124085771Y-96414285D01*
X124085771Y-96414285D02*
X124038152Y-96461904D01*
X124038152Y-96461904D02*
X123942914Y-96509523D01*
X123942914Y-96509523D02*
X123895295Y-96509523D01*
X123895295Y-96509523D02*
X123800057Y-96461904D01*
X123800057Y-96461904D02*
X123752438Y-96414285D01*
X123752438Y-96414285D02*
X123704819Y-96319047D01*
X123704819Y-96319047D02*
X123704819Y-96128571D01*
X123704819Y-96128571D02*
X123752438Y-96033333D01*
X123752438Y-96033333D02*
X123800057Y-95985714D01*
X123800057Y-95985714D02*
X123895295Y-95938095D01*
X123895295Y-95938095D02*
X123942914Y-95938095D01*
X123942914Y-95938095D02*
X124038152Y-95985714D01*
X124038152Y-95985714D02*
X124085771Y-96033333D01*
X124085771Y-96033333D02*
X124133390Y-96128571D01*
X124133390Y-96128571D02*
X124133390Y-96319047D01*
X124133390Y-96319047D02*
X124181009Y-96414285D01*
X124181009Y-96414285D02*
X124228628Y-96461904D01*
X124228628Y-96461904D02*
X124323866Y-96509523D01*
X124323866Y-96509523D02*
X124514342Y-96509523D01*
X124514342Y-96509523D02*
X124609580Y-96461904D01*
X124609580Y-96461904D02*
X124657200Y-96414285D01*
X124657200Y-96414285D02*
X124704819Y-96319047D01*
X124704819Y-96319047D02*
X124704819Y-96128571D01*
X124704819Y-96128571D02*
X124657200Y-96033333D01*
X124657200Y-96033333D02*
X124609580Y-95985714D01*
X124609580Y-95985714D02*
X124514342Y-95938095D01*
X124514342Y-95938095D02*
X124323866Y-95938095D01*
X124323866Y-95938095D02*
X124228628Y-95985714D01*
X124228628Y-95985714D02*
X124181009Y-96033333D01*
X124181009Y-96033333D02*
X124133390Y-96128571D01*
X126147319Y-82830357D02*
X125671128Y-83163690D01*
X126147319Y-83401785D02*
X125147319Y-83401785D01*
X125147319Y-83401785D02*
X125147319Y-83020833D01*
X125147319Y-83020833D02*
X125194938Y-82925595D01*
X125194938Y-82925595D02*
X125242557Y-82877976D01*
X125242557Y-82877976D02*
X125337795Y-82830357D01*
X125337795Y-82830357D02*
X125480652Y-82830357D01*
X125480652Y-82830357D02*
X125575890Y-82877976D01*
X125575890Y-82877976D02*
X125623509Y-82925595D01*
X125623509Y-82925595D02*
X125671128Y-83020833D01*
X125671128Y-83020833D02*
X125671128Y-83401785D01*
X126147319Y-81877976D02*
X126147319Y-82449404D01*
X126147319Y-82163690D02*
X125147319Y-82163690D01*
X125147319Y-82163690D02*
X125290176Y-82258928D01*
X125290176Y-82258928D02*
X125385414Y-82354166D01*
X125385414Y-82354166D02*
X125433033Y-82449404D01*
X125480652Y-81020833D02*
X126147319Y-81020833D01*
X125099700Y-81258928D02*
X125813985Y-81497023D01*
X125813985Y-81497023D02*
X125813985Y-80877976D01*
X162515833Y-121654819D02*
X162182500Y-121178628D01*
X161944405Y-121654819D02*
X161944405Y-120654819D01*
X161944405Y-120654819D02*
X162325357Y-120654819D01*
X162325357Y-120654819D02*
X162420595Y-120702438D01*
X162420595Y-120702438D02*
X162468214Y-120750057D01*
X162468214Y-120750057D02*
X162515833Y-120845295D01*
X162515833Y-120845295D02*
X162515833Y-120988152D01*
X162515833Y-120988152D02*
X162468214Y-121083390D01*
X162468214Y-121083390D02*
X162420595Y-121131009D01*
X162420595Y-121131009D02*
X162325357Y-121178628D01*
X162325357Y-121178628D02*
X161944405Y-121178628D01*
X162992024Y-121654819D02*
X163182500Y-121654819D01*
X163182500Y-121654819D02*
X163277738Y-121607200D01*
X163277738Y-121607200D02*
X163325357Y-121559580D01*
X163325357Y-121559580D02*
X163420595Y-121416723D01*
X163420595Y-121416723D02*
X163468214Y-121226247D01*
X163468214Y-121226247D02*
X163468214Y-120845295D01*
X163468214Y-120845295D02*
X163420595Y-120750057D01*
X163420595Y-120750057D02*
X163372976Y-120702438D01*
X163372976Y-120702438D02*
X163277738Y-120654819D01*
X163277738Y-120654819D02*
X163087262Y-120654819D01*
X163087262Y-120654819D02*
X162992024Y-120702438D01*
X162992024Y-120702438D02*
X162944405Y-120750057D01*
X162944405Y-120750057D02*
X162896786Y-120845295D01*
X162896786Y-120845295D02*
X162896786Y-121083390D01*
X162896786Y-121083390D02*
X162944405Y-121178628D01*
X162944405Y-121178628D02*
X162992024Y-121226247D01*
X162992024Y-121226247D02*
X163087262Y-121273866D01*
X163087262Y-121273866D02*
X163277738Y-121273866D01*
X163277738Y-121273866D02*
X163372976Y-121226247D01*
X163372976Y-121226247D02*
X163420595Y-121178628D01*
X163420595Y-121178628D02*
X163468214Y-121083390D01*
X124342319Y-82742857D02*
X123866128Y-83076190D01*
X124342319Y-83314285D02*
X123342319Y-83314285D01*
X123342319Y-83314285D02*
X123342319Y-82933333D01*
X123342319Y-82933333D02*
X123389938Y-82838095D01*
X123389938Y-82838095D02*
X123437557Y-82790476D01*
X123437557Y-82790476D02*
X123532795Y-82742857D01*
X123532795Y-82742857D02*
X123675652Y-82742857D01*
X123675652Y-82742857D02*
X123770890Y-82790476D01*
X123770890Y-82790476D02*
X123818509Y-82838095D01*
X123818509Y-82838095D02*
X123866128Y-82933333D01*
X123866128Y-82933333D02*
X123866128Y-83314285D01*
X124342319Y-81790476D02*
X124342319Y-82361904D01*
X124342319Y-82076190D02*
X123342319Y-82076190D01*
X123342319Y-82076190D02*
X123485176Y-82171428D01*
X123485176Y-82171428D02*
X123580414Y-82266666D01*
X123580414Y-82266666D02*
X123628033Y-82361904D01*
X123342319Y-80885714D02*
X123342319Y-81361904D01*
X123342319Y-81361904D02*
X123818509Y-81409523D01*
X123818509Y-81409523D02*
X123770890Y-81361904D01*
X123770890Y-81361904D02*
X123723271Y-81266666D01*
X123723271Y-81266666D02*
X123723271Y-81028571D01*
X123723271Y-81028571D02*
X123770890Y-80933333D01*
X123770890Y-80933333D02*
X123818509Y-80885714D01*
X123818509Y-80885714D02*
X123913747Y-80838095D01*
X123913747Y-80838095D02*
X124151842Y-80838095D01*
X124151842Y-80838095D02*
X124247080Y-80885714D01*
X124247080Y-80885714D02*
X124294700Y-80933333D01*
X124294700Y-80933333D02*
X124342319Y-81028571D01*
X124342319Y-81028571D02*
X124342319Y-81266666D01*
X124342319Y-81266666D02*
X124294700Y-81361904D01*
X124294700Y-81361904D02*
X124247080Y-81409523D01*
X121217261Y-103200057D02*
X121122023Y-103152438D01*
X121122023Y-103152438D02*
X121026785Y-103057200D01*
X121026785Y-103057200D02*
X120883928Y-102914342D01*
X120883928Y-102914342D02*
X120788690Y-102866723D01*
X120788690Y-102866723D02*
X120693452Y-102866723D01*
X120741071Y-103104819D02*
X120645833Y-103057200D01*
X120645833Y-103057200D02*
X120550595Y-102961961D01*
X120550595Y-102961961D02*
X120502976Y-102771485D01*
X120502976Y-102771485D02*
X120502976Y-102438152D01*
X120502976Y-102438152D02*
X120550595Y-102247676D01*
X120550595Y-102247676D02*
X120645833Y-102152438D01*
X120645833Y-102152438D02*
X120741071Y-102104819D01*
X120741071Y-102104819D02*
X120931547Y-102104819D01*
X120931547Y-102104819D02*
X121026785Y-102152438D01*
X121026785Y-102152438D02*
X121122023Y-102247676D01*
X121122023Y-102247676D02*
X121169642Y-102438152D01*
X121169642Y-102438152D02*
X121169642Y-102771485D01*
X121169642Y-102771485D02*
X121122023Y-102961961D01*
X121122023Y-102961961D02*
X121026785Y-103057200D01*
X121026785Y-103057200D02*
X120931547Y-103104819D01*
X120931547Y-103104819D02*
X120741071Y-103104819D01*
X122026785Y-102438152D02*
X122026785Y-103104819D01*
X121788690Y-102057200D02*
X121550595Y-102771485D01*
X121550595Y-102771485D02*
X122169642Y-102771485D01*
X120883333Y-66954819D02*
X120550000Y-66478628D01*
X120311905Y-66954819D02*
X120311905Y-65954819D01*
X120311905Y-65954819D02*
X120692857Y-65954819D01*
X120692857Y-65954819D02*
X120788095Y-66002438D01*
X120788095Y-66002438D02*
X120835714Y-66050057D01*
X120835714Y-66050057D02*
X120883333Y-66145295D01*
X120883333Y-66145295D02*
X120883333Y-66288152D01*
X120883333Y-66288152D02*
X120835714Y-66383390D01*
X120835714Y-66383390D02*
X120788095Y-66431009D01*
X120788095Y-66431009D02*
X120692857Y-66478628D01*
X120692857Y-66478628D02*
X120311905Y-66478628D01*
X121454762Y-66383390D02*
X121359524Y-66335771D01*
X121359524Y-66335771D02*
X121311905Y-66288152D01*
X121311905Y-66288152D02*
X121264286Y-66192914D01*
X121264286Y-66192914D02*
X121264286Y-66145295D01*
X121264286Y-66145295D02*
X121311905Y-66050057D01*
X121311905Y-66050057D02*
X121359524Y-66002438D01*
X121359524Y-66002438D02*
X121454762Y-65954819D01*
X121454762Y-65954819D02*
X121645238Y-65954819D01*
X121645238Y-65954819D02*
X121740476Y-66002438D01*
X121740476Y-66002438D02*
X121788095Y-66050057D01*
X121788095Y-66050057D02*
X121835714Y-66145295D01*
X121835714Y-66145295D02*
X121835714Y-66192914D01*
X121835714Y-66192914D02*
X121788095Y-66288152D01*
X121788095Y-66288152D02*
X121740476Y-66335771D01*
X121740476Y-66335771D02*
X121645238Y-66383390D01*
X121645238Y-66383390D02*
X121454762Y-66383390D01*
X121454762Y-66383390D02*
X121359524Y-66431009D01*
X121359524Y-66431009D02*
X121311905Y-66478628D01*
X121311905Y-66478628D02*
X121264286Y-66573866D01*
X121264286Y-66573866D02*
X121264286Y-66764342D01*
X121264286Y-66764342D02*
X121311905Y-66859580D01*
X121311905Y-66859580D02*
X121359524Y-66907200D01*
X121359524Y-66907200D02*
X121454762Y-66954819D01*
X121454762Y-66954819D02*
X121645238Y-66954819D01*
X121645238Y-66954819D02*
X121740476Y-66907200D01*
X121740476Y-66907200D02*
X121788095Y-66859580D01*
X121788095Y-66859580D02*
X121835714Y-66764342D01*
X121835714Y-66764342D02*
X121835714Y-66573866D01*
X121835714Y-66573866D02*
X121788095Y-66478628D01*
X121788095Y-66478628D02*
X121740476Y-66431009D01*
X121740476Y-66431009D02*
X121645238Y-66383390D01*
X151433333Y-60659580D02*
X151385714Y-60707200D01*
X151385714Y-60707200D02*
X151242857Y-60754819D01*
X151242857Y-60754819D02*
X151147619Y-60754819D01*
X151147619Y-60754819D02*
X151004762Y-60707200D01*
X151004762Y-60707200D02*
X150909524Y-60611961D01*
X150909524Y-60611961D02*
X150861905Y-60516723D01*
X150861905Y-60516723D02*
X150814286Y-60326247D01*
X150814286Y-60326247D02*
X150814286Y-60183390D01*
X150814286Y-60183390D02*
X150861905Y-59992914D01*
X150861905Y-59992914D02*
X150909524Y-59897676D01*
X150909524Y-59897676D02*
X151004762Y-59802438D01*
X151004762Y-59802438D02*
X151147619Y-59754819D01*
X151147619Y-59754819D02*
X151242857Y-59754819D01*
X151242857Y-59754819D02*
X151385714Y-59802438D01*
X151385714Y-59802438D02*
X151433333Y-59850057D01*
X151766667Y-59754819D02*
X152385714Y-59754819D01*
X152385714Y-59754819D02*
X152052381Y-60135771D01*
X152052381Y-60135771D02*
X152195238Y-60135771D01*
X152195238Y-60135771D02*
X152290476Y-60183390D01*
X152290476Y-60183390D02*
X152338095Y-60231009D01*
X152338095Y-60231009D02*
X152385714Y-60326247D01*
X152385714Y-60326247D02*
X152385714Y-60564342D01*
X152385714Y-60564342D02*
X152338095Y-60659580D01*
X152338095Y-60659580D02*
X152290476Y-60707200D01*
X152290476Y-60707200D02*
X152195238Y-60754819D01*
X152195238Y-60754819D02*
X151909524Y-60754819D01*
X151909524Y-60754819D02*
X151814286Y-60707200D01*
X151814286Y-60707200D02*
X151766667Y-60659580D01*
X119666666Y-126334819D02*
X119666666Y-127049104D01*
X119666666Y-127049104D02*
X119619047Y-127191961D01*
X119619047Y-127191961D02*
X119523809Y-127287200D01*
X119523809Y-127287200D02*
X119380952Y-127334819D01*
X119380952Y-127334819D02*
X119285714Y-127334819D01*
X120142857Y-127334819D02*
X120142857Y-126334819D01*
X120142857Y-126334819D02*
X120523809Y-126334819D01*
X120523809Y-126334819D02*
X120619047Y-126382438D01*
X120619047Y-126382438D02*
X120666666Y-126430057D01*
X120666666Y-126430057D02*
X120714285Y-126525295D01*
X120714285Y-126525295D02*
X120714285Y-126668152D01*
X120714285Y-126668152D02*
X120666666Y-126763390D01*
X120666666Y-126763390D02*
X120619047Y-126811009D01*
X120619047Y-126811009D02*
X120523809Y-126858628D01*
X120523809Y-126858628D02*
X120142857Y-126858628D01*
X121666666Y-127334819D02*
X121095238Y-127334819D01*
X121380952Y-127334819D02*
X121380952Y-126334819D01*
X121380952Y-126334819D02*
X121285714Y-126477676D01*
X121285714Y-126477676D02*
X121190476Y-126572914D01*
X121190476Y-126572914D02*
X121095238Y-126620533D01*
X162949819Y-116142857D02*
X162473628Y-116476190D01*
X162949819Y-116714285D02*
X161949819Y-116714285D01*
X161949819Y-116714285D02*
X161949819Y-116333333D01*
X161949819Y-116333333D02*
X161997438Y-116238095D01*
X161997438Y-116238095D02*
X162045057Y-116190476D01*
X162045057Y-116190476D02*
X162140295Y-116142857D01*
X162140295Y-116142857D02*
X162283152Y-116142857D01*
X162283152Y-116142857D02*
X162378390Y-116190476D01*
X162378390Y-116190476D02*
X162426009Y-116238095D01*
X162426009Y-116238095D02*
X162473628Y-116333333D01*
X162473628Y-116333333D02*
X162473628Y-116714285D01*
X162949819Y-115190476D02*
X162949819Y-115761904D01*
X162949819Y-115476190D02*
X161949819Y-115476190D01*
X161949819Y-115476190D02*
X162092676Y-115571428D01*
X162092676Y-115571428D02*
X162187914Y-115666666D01*
X162187914Y-115666666D02*
X162235533Y-115761904D01*
X161949819Y-114857142D02*
X161949819Y-114238095D01*
X161949819Y-114238095D02*
X162330771Y-114571428D01*
X162330771Y-114571428D02*
X162330771Y-114428571D01*
X162330771Y-114428571D02*
X162378390Y-114333333D01*
X162378390Y-114333333D02*
X162426009Y-114285714D01*
X162426009Y-114285714D02*
X162521247Y-114238095D01*
X162521247Y-114238095D02*
X162759342Y-114238095D01*
X162759342Y-114238095D02*
X162854580Y-114285714D01*
X162854580Y-114285714D02*
X162902200Y-114333333D01*
X162902200Y-114333333D02*
X162949819Y-114428571D01*
X162949819Y-114428571D02*
X162949819Y-114714285D01*
X162949819Y-114714285D02*
X162902200Y-114809523D01*
X162902200Y-114809523D02*
X162854580Y-114857142D01*
X170269047Y-52193509D02*
X170411904Y-52241128D01*
X170411904Y-52241128D02*
X170459523Y-52288747D01*
X170459523Y-52288747D02*
X170507142Y-52383985D01*
X170507142Y-52383985D02*
X170507142Y-52526842D01*
X170507142Y-52526842D02*
X170459523Y-52622080D01*
X170459523Y-52622080D02*
X170411904Y-52669700D01*
X170411904Y-52669700D02*
X170316666Y-52717319D01*
X170316666Y-52717319D02*
X169935714Y-52717319D01*
X169935714Y-52717319D02*
X169935714Y-51717319D01*
X169935714Y-51717319D02*
X170269047Y-51717319D01*
X170269047Y-51717319D02*
X170364285Y-51764938D01*
X170364285Y-51764938D02*
X170411904Y-51812557D01*
X170411904Y-51812557D02*
X170459523Y-51907795D01*
X170459523Y-51907795D02*
X170459523Y-52003033D01*
X170459523Y-52003033D02*
X170411904Y-52098271D01*
X170411904Y-52098271D02*
X170364285Y-52145890D01*
X170364285Y-52145890D02*
X170269047Y-52193509D01*
X170269047Y-52193509D02*
X169935714Y-52193509D01*
X170840476Y-51717319D02*
X171507142Y-51717319D01*
X171507142Y-51717319D02*
X170840476Y-52717319D01*
X170840476Y-52717319D02*
X171507142Y-52717319D01*
X172411904Y-52717319D02*
X171840476Y-52717319D01*
X172126190Y-52717319D02*
X172126190Y-51717319D01*
X172126190Y-51717319D02*
X172030952Y-51860176D01*
X172030952Y-51860176D02*
X171935714Y-51955414D01*
X171935714Y-51955414D02*
X171840476Y-52003033D01*
X173763866Y-55833451D02*
X173763866Y-55071547D01*
X174144819Y-55452499D02*
X173382914Y-55452499D01*
X152954819Y-53142857D02*
X152478628Y-53476190D01*
X152954819Y-53714285D02*
X151954819Y-53714285D01*
X151954819Y-53714285D02*
X151954819Y-53333333D01*
X151954819Y-53333333D02*
X152002438Y-53238095D01*
X152002438Y-53238095D02*
X152050057Y-53190476D01*
X152050057Y-53190476D02*
X152145295Y-53142857D01*
X152145295Y-53142857D02*
X152288152Y-53142857D01*
X152288152Y-53142857D02*
X152383390Y-53190476D01*
X152383390Y-53190476D02*
X152431009Y-53238095D01*
X152431009Y-53238095D02*
X152478628Y-53333333D01*
X152478628Y-53333333D02*
X152478628Y-53714285D01*
X152954819Y-52190476D02*
X152954819Y-52761904D01*
X152954819Y-52476190D02*
X151954819Y-52476190D01*
X151954819Y-52476190D02*
X152097676Y-52571428D01*
X152097676Y-52571428D02*
X152192914Y-52666666D01*
X152192914Y-52666666D02*
X152240533Y-52761904D01*
X152050057Y-51809523D02*
X152002438Y-51761904D01*
X152002438Y-51761904D02*
X151954819Y-51666666D01*
X151954819Y-51666666D02*
X151954819Y-51428571D01*
X151954819Y-51428571D02*
X152002438Y-51333333D01*
X152002438Y-51333333D02*
X152050057Y-51285714D01*
X152050057Y-51285714D02*
X152145295Y-51238095D01*
X152145295Y-51238095D02*
X152240533Y-51238095D01*
X152240533Y-51238095D02*
X152383390Y-51285714D01*
X152383390Y-51285714D02*
X152954819Y-51857142D01*
X152954819Y-51857142D02*
X152954819Y-51238095D01*
X138933333Y-72109580D02*
X138885714Y-72157200D01*
X138885714Y-72157200D02*
X138742857Y-72204819D01*
X138742857Y-72204819D02*
X138647619Y-72204819D01*
X138647619Y-72204819D02*
X138504762Y-72157200D01*
X138504762Y-72157200D02*
X138409524Y-72061961D01*
X138409524Y-72061961D02*
X138361905Y-71966723D01*
X138361905Y-71966723D02*
X138314286Y-71776247D01*
X138314286Y-71776247D02*
X138314286Y-71633390D01*
X138314286Y-71633390D02*
X138361905Y-71442914D01*
X138361905Y-71442914D02*
X138409524Y-71347676D01*
X138409524Y-71347676D02*
X138504762Y-71252438D01*
X138504762Y-71252438D02*
X138647619Y-71204819D01*
X138647619Y-71204819D02*
X138742857Y-71204819D01*
X138742857Y-71204819D02*
X138885714Y-71252438D01*
X138885714Y-71252438D02*
X138933333Y-71300057D01*
X139790476Y-71538152D02*
X139790476Y-72204819D01*
X139552381Y-71157200D02*
X139314286Y-71871485D01*
X139314286Y-71871485D02*
X139933333Y-71871485D01*
X165404761Y-116650057D02*
X165309523Y-116602438D01*
X165309523Y-116602438D02*
X165214285Y-116507200D01*
X165214285Y-116507200D02*
X165071428Y-116364342D01*
X165071428Y-116364342D02*
X164976190Y-116316723D01*
X164976190Y-116316723D02*
X164880952Y-116316723D01*
X164928571Y-116554819D02*
X164833333Y-116507200D01*
X164833333Y-116507200D02*
X164738095Y-116411961D01*
X164738095Y-116411961D02*
X164690476Y-116221485D01*
X164690476Y-116221485D02*
X164690476Y-115888152D01*
X164690476Y-115888152D02*
X164738095Y-115697676D01*
X164738095Y-115697676D02*
X164833333Y-115602438D01*
X164833333Y-115602438D02*
X164928571Y-115554819D01*
X164928571Y-115554819D02*
X165119047Y-115554819D01*
X165119047Y-115554819D02*
X165214285Y-115602438D01*
X165214285Y-115602438D02*
X165309523Y-115697676D01*
X165309523Y-115697676D02*
X165357142Y-115888152D01*
X165357142Y-115888152D02*
X165357142Y-116221485D01*
X165357142Y-116221485D02*
X165309523Y-116411961D01*
X165309523Y-116411961D02*
X165214285Y-116507200D01*
X165214285Y-116507200D02*
X165119047Y-116554819D01*
X165119047Y-116554819D02*
X164928571Y-116554819D01*
X165690476Y-115554819D02*
X166309523Y-115554819D01*
X166309523Y-115554819D02*
X165976190Y-115935771D01*
X165976190Y-115935771D02*
X166119047Y-115935771D01*
X166119047Y-115935771D02*
X166214285Y-115983390D01*
X166214285Y-115983390D02*
X166261904Y-116031009D01*
X166261904Y-116031009D02*
X166309523Y-116126247D01*
X166309523Y-116126247D02*
X166309523Y-116364342D01*
X166309523Y-116364342D02*
X166261904Y-116459580D01*
X166261904Y-116459580D02*
X166214285Y-116507200D01*
X166214285Y-116507200D02*
X166119047Y-116554819D01*
X166119047Y-116554819D02*
X165833333Y-116554819D01*
X165833333Y-116554819D02*
X165738095Y-116507200D01*
X165738095Y-116507200D02*
X165690476Y-116459580D01*
X145459580Y-60966666D02*
X145507200Y-61014285D01*
X145507200Y-61014285D02*
X145554819Y-61157142D01*
X145554819Y-61157142D02*
X145554819Y-61252380D01*
X145554819Y-61252380D02*
X145507200Y-61395237D01*
X145507200Y-61395237D02*
X145411961Y-61490475D01*
X145411961Y-61490475D02*
X145316723Y-61538094D01*
X145316723Y-61538094D02*
X145126247Y-61585713D01*
X145126247Y-61585713D02*
X144983390Y-61585713D01*
X144983390Y-61585713D02*
X144792914Y-61538094D01*
X144792914Y-61538094D02*
X144697676Y-61490475D01*
X144697676Y-61490475D02*
X144602438Y-61395237D01*
X144602438Y-61395237D02*
X144554819Y-61252380D01*
X144554819Y-61252380D02*
X144554819Y-61157142D01*
X144554819Y-61157142D02*
X144602438Y-61014285D01*
X144602438Y-61014285D02*
X144650057Y-60966666D01*
X144650057Y-60585713D02*
X144602438Y-60538094D01*
X144602438Y-60538094D02*
X144554819Y-60442856D01*
X144554819Y-60442856D02*
X144554819Y-60204761D01*
X144554819Y-60204761D02*
X144602438Y-60109523D01*
X144602438Y-60109523D02*
X144650057Y-60061904D01*
X144650057Y-60061904D02*
X144745295Y-60014285D01*
X144745295Y-60014285D02*
X144840533Y-60014285D01*
X144840533Y-60014285D02*
X144983390Y-60061904D01*
X144983390Y-60061904D02*
X145554819Y-60633332D01*
X145554819Y-60633332D02*
X145554819Y-60014285D01*
X143459580Y-60966666D02*
X143507200Y-61014285D01*
X143507200Y-61014285D02*
X143554819Y-61157142D01*
X143554819Y-61157142D02*
X143554819Y-61252380D01*
X143554819Y-61252380D02*
X143507200Y-61395237D01*
X143507200Y-61395237D02*
X143411961Y-61490475D01*
X143411961Y-61490475D02*
X143316723Y-61538094D01*
X143316723Y-61538094D02*
X143126247Y-61585713D01*
X143126247Y-61585713D02*
X142983390Y-61585713D01*
X142983390Y-61585713D02*
X142792914Y-61538094D01*
X142792914Y-61538094D02*
X142697676Y-61490475D01*
X142697676Y-61490475D02*
X142602438Y-61395237D01*
X142602438Y-61395237D02*
X142554819Y-61252380D01*
X142554819Y-61252380D02*
X142554819Y-61157142D01*
X142554819Y-61157142D02*
X142602438Y-61014285D01*
X142602438Y-61014285D02*
X142650057Y-60966666D01*
X143554819Y-60014285D02*
X143554819Y-60585713D01*
X143554819Y-60299999D02*
X142554819Y-60299999D01*
X142554819Y-60299999D02*
X142697676Y-60395237D01*
X142697676Y-60395237D02*
X142792914Y-60490475D01*
X142792914Y-60490475D02*
X142840533Y-60585713D01*
X121207142Y-96554819D02*
X120873809Y-96078628D01*
X120635714Y-96554819D02*
X120635714Y-95554819D01*
X120635714Y-95554819D02*
X121016666Y-95554819D01*
X121016666Y-95554819D02*
X121111904Y-95602438D01*
X121111904Y-95602438D02*
X121159523Y-95650057D01*
X121159523Y-95650057D02*
X121207142Y-95745295D01*
X121207142Y-95745295D02*
X121207142Y-95888152D01*
X121207142Y-95888152D02*
X121159523Y-95983390D01*
X121159523Y-95983390D02*
X121111904Y-96031009D01*
X121111904Y-96031009D02*
X121016666Y-96078628D01*
X121016666Y-96078628D02*
X120635714Y-96078628D01*
X122159523Y-96554819D02*
X121588095Y-96554819D01*
X121873809Y-96554819D02*
X121873809Y-95554819D01*
X121873809Y-95554819D02*
X121778571Y-95697676D01*
X121778571Y-95697676D02*
X121683333Y-95792914D01*
X121683333Y-95792914D02*
X121588095Y-95840533D01*
X122635714Y-96554819D02*
X122826190Y-96554819D01*
X122826190Y-96554819D02*
X122921428Y-96507200D01*
X122921428Y-96507200D02*
X122969047Y-96459580D01*
X122969047Y-96459580D02*
X123064285Y-96316723D01*
X123064285Y-96316723D02*
X123111904Y-96126247D01*
X123111904Y-96126247D02*
X123111904Y-95745295D01*
X123111904Y-95745295D02*
X123064285Y-95650057D01*
X123064285Y-95650057D02*
X123016666Y-95602438D01*
X123016666Y-95602438D02*
X122921428Y-95554819D01*
X122921428Y-95554819D02*
X122730952Y-95554819D01*
X122730952Y-95554819D02*
X122635714Y-95602438D01*
X122635714Y-95602438D02*
X122588095Y-95650057D01*
X122588095Y-95650057D02*
X122540476Y-95745295D01*
X122540476Y-95745295D02*
X122540476Y-95983390D01*
X122540476Y-95983390D02*
X122588095Y-96078628D01*
X122588095Y-96078628D02*
X122635714Y-96126247D01*
X122635714Y-96126247D02*
X122730952Y-96173866D01*
X122730952Y-96173866D02*
X122921428Y-96173866D01*
X122921428Y-96173866D02*
X123016666Y-96126247D01*
X123016666Y-96126247D02*
X123064285Y-96078628D01*
X123064285Y-96078628D02*
X123111904Y-95983390D01*
X170274819Y-67666666D02*
X169798628Y-67999999D01*
X170274819Y-68238094D02*
X169274819Y-68238094D01*
X169274819Y-68238094D02*
X169274819Y-67857142D01*
X169274819Y-67857142D02*
X169322438Y-67761904D01*
X169322438Y-67761904D02*
X169370057Y-67714285D01*
X169370057Y-67714285D02*
X169465295Y-67666666D01*
X169465295Y-67666666D02*
X169608152Y-67666666D01*
X169608152Y-67666666D02*
X169703390Y-67714285D01*
X169703390Y-67714285D02*
X169751009Y-67761904D01*
X169751009Y-67761904D02*
X169798628Y-67857142D01*
X169798628Y-67857142D02*
X169798628Y-68238094D01*
X169274819Y-66809523D02*
X169274819Y-66999999D01*
X169274819Y-66999999D02*
X169322438Y-67095237D01*
X169322438Y-67095237D02*
X169370057Y-67142856D01*
X169370057Y-67142856D02*
X169512914Y-67238094D01*
X169512914Y-67238094D02*
X169703390Y-67285713D01*
X169703390Y-67285713D02*
X170084342Y-67285713D01*
X170084342Y-67285713D02*
X170179580Y-67238094D01*
X170179580Y-67238094D02*
X170227200Y-67190475D01*
X170227200Y-67190475D02*
X170274819Y-67095237D01*
X170274819Y-67095237D02*
X170274819Y-66904761D01*
X170274819Y-66904761D02*
X170227200Y-66809523D01*
X170227200Y-66809523D02*
X170179580Y-66761904D01*
X170179580Y-66761904D02*
X170084342Y-66714285D01*
X170084342Y-66714285D02*
X169846247Y-66714285D01*
X169846247Y-66714285D02*
X169751009Y-66761904D01*
X169751009Y-66761904D02*
X169703390Y-66809523D01*
X169703390Y-66809523D02*
X169655771Y-66904761D01*
X169655771Y-66904761D02*
X169655771Y-67095237D01*
X169655771Y-67095237D02*
X169703390Y-67190475D01*
X169703390Y-67190475D02*
X169751009Y-67238094D01*
X169751009Y-67238094D02*
X169846247Y-67285713D01*
X161338095Y-87954819D02*
X161338095Y-88764342D01*
X161338095Y-88764342D02*
X161385714Y-88859580D01*
X161385714Y-88859580D02*
X161433333Y-88907200D01*
X161433333Y-88907200D02*
X161528571Y-88954819D01*
X161528571Y-88954819D02*
X161719047Y-88954819D01*
X161719047Y-88954819D02*
X161814285Y-88907200D01*
X161814285Y-88907200D02*
X161861904Y-88859580D01*
X161861904Y-88859580D02*
X161909523Y-88764342D01*
X161909523Y-88764342D02*
X161909523Y-87954819D01*
X162290476Y-87954819D02*
X162909523Y-87954819D01*
X162909523Y-87954819D02*
X162576190Y-88335771D01*
X162576190Y-88335771D02*
X162719047Y-88335771D01*
X162719047Y-88335771D02*
X162814285Y-88383390D01*
X162814285Y-88383390D02*
X162861904Y-88431009D01*
X162861904Y-88431009D02*
X162909523Y-88526247D01*
X162909523Y-88526247D02*
X162909523Y-88764342D01*
X162909523Y-88764342D02*
X162861904Y-88859580D01*
X162861904Y-88859580D02*
X162814285Y-88907200D01*
X162814285Y-88907200D02*
X162719047Y-88954819D01*
X162719047Y-88954819D02*
X162433333Y-88954819D01*
X162433333Y-88954819D02*
X162338095Y-88907200D01*
X162338095Y-88907200D02*
X162290476Y-88859580D01*
D13*
X108890000Y-79800000D02*
X108150000Y-79800000D01*
X108150000Y-79800000D02*
X108150000Y-80300000D01*
X118311000Y-80040000D02*
X108390000Y-80040000D01*
X118311000Y-80040000D02*
X118311000Y-90160000D01*
X115351000Y-80040000D02*
X115351000Y-90160000D01*
X110450000Y-80040000D02*
X110450000Y-90160000D01*
X108950000Y-80040000D02*
X108950000Y-90160000D01*
X108390000Y-80040000D02*
X108390000Y-90160000D01*
X112027000Y-86373000D02*
X111981000Y-86326000D01*
X111811000Y-86566000D02*
X111776000Y-86531000D01*
X114325000Y-88670000D02*
X114289000Y-88635000D01*
X114119000Y-88875000D02*
X114073000Y-88828000D01*
X118311000Y-90160000D02*
X108390000Y-90160000D01*
X113733999Y-81065001D02*
G75*
G03*
X112366958Y-81064574I-684000J-1534992D01*
G01*
X114584999Y-83283999D02*
G75*
G03*
X114585426Y-81916958I-1534992J684000D01*
G01*
X111515001Y-81916000D02*
G75*
G03*
X111369748Y-82628805I1535000J-683999D01*
G01*
X111370001Y-82600000D02*
G75*
G03*
X111515245Y-83283318I1679999J0D01*
G01*
X112366000Y-84135000D02*
G75*
G03*
X113733042Y-84135426I684000J1535000D01*
G01*
X114730000Y-87600000D02*
G75*
G03*
X111370000Y-87600000I-1680000J0D01*
G01*
X111370000Y-87600000D02*
G75*
G03*
X114730000Y-87600000I1680000J0D01*
G01*
X140400000Y-60750000D02*
X140400000Y-68750000D01*
X132200000Y-60750000D02*
X132200000Y-68750000D01*
X148200000Y-64910000D02*
X150000000Y-64910000D01*
X150000000Y-61690000D02*
X147050000Y-61690000D01*
D14*
X129142500Y-76525000D02*
X140211500Y-76525000D01*
X129142500Y-76525000D02*
X157652500Y-76525000D01*
X129142500Y-127475000D02*
X129142500Y-76525000D01*
X129142500Y-127475000D02*
X129142500Y-76525000D01*
X129142500Y-127475000D02*
X134512500Y-127475000D01*
X134512500Y-127475000D02*
X152202500Y-127475000D01*
X140211500Y-76525000D02*
X146922500Y-76525000D01*
X146922500Y-76525000D02*
X157652500Y-76525000D01*
X152202500Y-127475000D02*
X157652500Y-127475000D01*
X157652500Y-76525000D02*
X157652500Y-127475000D01*
X157652500Y-76525000D02*
X157652500Y-127475000D01*
X157652500Y-127475000D02*
X129142500Y-127475000D01*
D15*
X128672500Y-86485000D02*
G75*
G03*
X128472500Y-86485000I-100000J0D01*
G01*
X128472500Y-86485000D02*
G75*
G03*
X128672500Y-86485000I100000J0D01*
G01*
D13*
X123477500Y-71154724D02*
X123477500Y-70645276D01*
X124522500Y-71154724D02*
X124522500Y-70645276D01*
X156722500Y-66995276D02*
X156722500Y-67504724D01*
X155677500Y-66995276D02*
X155677500Y-67504724D01*
X126522500Y-99945276D02*
X126522500Y-100454724D01*
X125477500Y-99945276D02*
X125477500Y-100454724D01*
X167510000Y-84953733D02*
X167510000Y-85246267D01*
X166490000Y-84953733D02*
X166490000Y-85246267D01*
X162546267Y-81910000D02*
X162253733Y-81910000D01*
X162546267Y-80890000D02*
X162253733Y-80890000D01*
X108890000Y-108200000D02*
X108150000Y-108200000D01*
X108150000Y-108200000D02*
X108150000Y-108700000D01*
X118311000Y-108440000D02*
X108390000Y-108440000D01*
X118311000Y-108440000D02*
X118311000Y-123560000D01*
X115351000Y-108440000D02*
X115351000Y-123560000D01*
X110450000Y-108440000D02*
X110450000Y-123560000D01*
X108950000Y-108440000D02*
X108950000Y-123560000D01*
X108390000Y-108440000D02*
X108390000Y-123560000D01*
X112027000Y-114773000D02*
X111981000Y-114726000D01*
X111811000Y-114966000D02*
X111776000Y-114931000D01*
X114325000Y-117070000D02*
X114289000Y-117035000D01*
X114119000Y-117275000D02*
X114073000Y-117228000D01*
X112027000Y-119773000D02*
X111981000Y-119726000D01*
X111811000Y-119966000D02*
X111776000Y-119931000D01*
X114325000Y-122070000D02*
X114289000Y-122035000D01*
X114119000Y-122275000D02*
X114073000Y-122228000D01*
X118311000Y-123560000D02*
X108390000Y-123560000D01*
X113733999Y-109465001D02*
G75*
G03*
X112366958Y-109464574I-684000J-1534992D01*
G01*
X114584999Y-111683999D02*
G75*
G03*
X114585426Y-110316958I-1534992J684000D01*
G01*
X111515001Y-110316000D02*
G75*
G03*
X111369748Y-111028805I1535000J-683999D01*
G01*
X111370001Y-111000000D02*
G75*
G03*
X111515245Y-111683318I1679999J0D01*
G01*
X112366000Y-112535000D02*
G75*
G03*
X113733042Y-112535426I684000J1535000D01*
G01*
X114730000Y-116000000D02*
G75*
G03*
X111370000Y-116000000I-1680000J0D01*
G01*
X111370000Y-116000000D02*
G75*
G03*
X114730000Y-116000000I1680000J0D01*
G01*
X114730000Y-121000000D02*
G75*
G03*
X111370000Y-121000000I-1680000J0D01*
G01*
X111370000Y-121000000D02*
G75*
G03*
X114730000Y-121000000I1680000J0D01*
G01*
X153890000Y-67396267D02*
X153890000Y-67103733D01*
X154910000Y-67396267D02*
X154910000Y-67103733D01*
X159972500Y-118754724D02*
X159972500Y-118245276D01*
X161017500Y-118754724D02*
X161017500Y-118245276D01*
X126432500Y-70645276D02*
X126432500Y-71154724D01*
X125387500Y-70645276D02*
X125387500Y-71154724D01*
X121000000Y-72460000D02*
X122675000Y-72460000D01*
X121000000Y-72460000D02*
X120350000Y-72460000D01*
X121000000Y-69340000D02*
X121650000Y-69340000D01*
X121000000Y-69340000D02*
X120350000Y-69340000D01*
X162822500Y-101545276D02*
X162822500Y-102054724D01*
X161777500Y-101545276D02*
X161777500Y-102054724D01*
X159477500Y-64562258D02*
X159477500Y-64087742D01*
X160522500Y-64562258D02*
X160522500Y-64087742D01*
X154354724Y-63822500D02*
X153845276Y-63822500D01*
X154354724Y-62777500D02*
X153845276Y-62777500D01*
X136453733Y-73240000D02*
X136746267Y-73240000D01*
X136453733Y-74260000D02*
X136746267Y-74260000D01*
X161265000Y-65735000D02*
X162735000Y-65735000D01*
X162735000Y-65735000D02*
X162735000Y-63450000D01*
X161265000Y-63450000D02*
X161265000Y-65735000D01*
X165300000Y-100240000D02*
X163625000Y-100240000D01*
X165300000Y-100240000D02*
X165950000Y-100240000D01*
X165300000Y-103360000D02*
X164650000Y-103360000D01*
X165300000Y-103360000D02*
X165950000Y-103360000D01*
X152077500Y-67504724D02*
X152077500Y-66995276D01*
X153122500Y-67504724D02*
X153122500Y-66995276D01*
X120950000Y-86660000D02*
X122625000Y-86660000D01*
X120950000Y-86660000D02*
X120300000Y-86660000D01*
X120950000Y-83540000D02*
X121600000Y-83540000D01*
X120950000Y-83540000D02*
X120300000Y-83540000D01*
X159877500Y-102054724D02*
X159877500Y-101545276D01*
X160922500Y-102054724D02*
X160922500Y-101545276D01*
X123727500Y-100454724D02*
X123727500Y-99945276D01*
X124772500Y-100454724D02*
X124772500Y-99945276D01*
X143900000Y-74200000D02*
G75*
G03*
X142500000Y-74200000I-700000J0D01*
G01*
X142500000Y-74200000D02*
G75*
G03*
X143900000Y-74200000I700000J0D01*
G01*
X126215000Y-84845276D02*
X126215000Y-85354724D01*
X125170000Y-84845276D02*
X125170000Y-85354724D01*
X165245276Y-120677500D02*
X165754724Y-120677500D01*
X165245276Y-121722500D02*
X165754724Y-121722500D01*
X108890000Y-65600000D02*
X108150000Y-65600000D01*
X108150000Y-65600000D02*
X108150000Y-66100000D01*
X118311000Y-65840000D02*
X108390000Y-65840000D01*
X118311000Y-65840000D02*
X118311000Y-75960000D01*
X115351000Y-65840000D02*
X115351000Y-75960000D01*
X110450000Y-65840000D02*
X110450000Y-75960000D01*
X108950000Y-65840000D02*
X108950000Y-75960000D01*
X108390000Y-65840000D02*
X108390000Y-75960000D01*
X112027000Y-72173000D02*
X111981000Y-72126000D01*
X111811000Y-72366000D02*
X111776000Y-72331000D01*
X114325000Y-74470000D02*
X114289000Y-74435000D01*
X114119000Y-74675000D02*
X114073000Y-74628000D01*
X118311000Y-75960000D02*
X108390000Y-75960000D01*
X113733999Y-66865001D02*
G75*
G03*
X112366958Y-66864574I-684000J-1534992D01*
G01*
X114584999Y-69083999D02*
G75*
G03*
X114585426Y-67716958I-1534992J684000D01*
G01*
X111515001Y-67716000D02*
G75*
G03*
X111369748Y-68428805I1535000J-683999D01*
G01*
X111370001Y-68400000D02*
G75*
G03*
X111515245Y-69083318I1679999J0D01*
G01*
X112366000Y-69935000D02*
G75*
G03*
X113733042Y-69935426I684000J1535000D01*
G01*
X114730000Y-73400000D02*
G75*
G03*
X111370000Y-73400000I-1680000J0D01*
G01*
X111370000Y-73400000D02*
G75*
G03*
X114730000Y-73400000I1680000J0D01*
G01*
X148545000Y-48785000D02*
X148545000Y-48045000D01*
X148545000Y-48045000D02*
X148045000Y-48045000D01*
X148305000Y-58206000D02*
X148305000Y-48285000D01*
X148305000Y-58206000D02*
X138185000Y-58206000D01*
X148305000Y-55246000D02*
X138185000Y-55246000D01*
X148305000Y-50345000D02*
X138185000Y-50345000D01*
X148305000Y-48845000D02*
X138185000Y-48845000D01*
X148305000Y-48285000D02*
X138185000Y-48285000D01*
X141972000Y-51922000D02*
X142019000Y-51876000D01*
X141779000Y-51706000D02*
X141814000Y-51671000D01*
X139675000Y-54220000D02*
X139710000Y-54184000D01*
X139470000Y-54014000D02*
X139517000Y-53968000D01*
X138185000Y-58206000D02*
X138185000Y-48285000D01*
X147279999Y-53628999D02*
G75*
G03*
X147280426Y-52261958I-1534992J684000D01*
G01*
X145061001Y-54479999D02*
G75*
G03*
X146428042Y-54480426I684000J1534992D01*
G01*
X146429000Y-51410001D02*
G75*
G03*
X145716195Y-51264748I-683999J-1535000D01*
G01*
X145745000Y-51265001D02*
G75*
G03*
X145061682Y-51410245I0J-1679999D01*
G01*
X144210000Y-52261000D02*
G75*
G03*
X144209574Y-53628042I1535000J-684000D01*
G01*
X142425000Y-52945000D02*
G75*
G03*
X139065000Y-52945000I-1680000J0D01*
G01*
X139065000Y-52945000D02*
G75*
G03*
X142425000Y-52945000I1680000J0D01*
G01*
X177660000Y-90400000D02*
X178400000Y-90400000D01*
X178400000Y-90400000D02*
X178400000Y-89900000D01*
X168239000Y-90160000D02*
X178160000Y-90160000D01*
X168239000Y-90160000D02*
X168239000Y-80040000D01*
X171199000Y-90160000D02*
X171199000Y-80040000D01*
X176100000Y-90160000D02*
X176100000Y-80040000D01*
X177600000Y-90160000D02*
X177600000Y-80040000D01*
X178160000Y-90160000D02*
X178160000Y-80040000D01*
X174523000Y-83827000D02*
X174569000Y-83874000D01*
X174739000Y-83634000D02*
X174774000Y-83669000D01*
X172225000Y-81530000D02*
X172261000Y-81565000D01*
X172431000Y-81325000D02*
X172477000Y-81372000D01*
X168239000Y-80040000D02*
X178160000Y-80040000D01*
X172816001Y-89134999D02*
G75*
G03*
X174183042Y-89135426I684000J1534992D01*
G01*
X171965001Y-86916001D02*
G75*
G03*
X171964574Y-88283042I1534992J-684000D01*
G01*
X175034999Y-88284000D02*
G75*
G03*
X175180252Y-87571195I-1535000J683999D01*
G01*
X175179999Y-87600000D02*
G75*
G03*
X175034755Y-86916682I-1679999J0D01*
G01*
X174184000Y-86065000D02*
G75*
G03*
X172816958Y-86064574I-684000J-1535000D01*
G01*
X175180000Y-82600000D02*
G75*
G03*
X171820000Y-82600000I-1680000J0D01*
G01*
X171820000Y-82600000D02*
G75*
G03*
X175180000Y-82600000I1680000J0D01*
G01*
X150015000Y-56735000D02*
X151485000Y-56735000D01*
X151485000Y-56735000D02*
X151485000Y-54450000D01*
X150015000Y-54450000D02*
X150015000Y-56735000D01*
X123365000Y-85354724D02*
X123365000Y-84845276D01*
X124410000Y-85354724D02*
X124410000Y-84845276D01*
X121312500Y-101810000D02*
X122987500Y-101810000D01*
X121312500Y-101810000D02*
X120662500Y-101810000D01*
X121312500Y-98690000D02*
X121962500Y-98690000D01*
X121312500Y-98690000D02*
X120662500Y-98690000D01*
X177755000Y-107100000D02*
X178495000Y-107100000D01*
X178495000Y-107100000D02*
X178495000Y-106600000D01*
X168334000Y-106860000D02*
X178255000Y-106860000D01*
X168334000Y-106860000D02*
X168334000Y-96740000D01*
X171294000Y-106860000D02*
X171294000Y-96740000D01*
X176195000Y-106860000D02*
X176195000Y-96740000D01*
X177695000Y-106860000D02*
X177695000Y-96740000D01*
X178255000Y-106860000D02*
X178255000Y-96740000D01*
X174618000Y-100527000D02*
X174664000Y-100574000D01*
X174834000Y-100334000D02*
X174869000Y-100369000D01*
X172320000Y-98230000D02*
X172356000Y-98265000D01*
X172526000Y-98025000D02*
X172572000Y-98072000D01*
X168334000Y-96740000D02*
X178255000Y-96740000D01*
X172911001Y-105834999D02*
G75*
G03*
X174278042Y-105835426I684000J1534992D01*
G01*
X172060001Y-103616001D02*
G75*
G03*
X172059574Y-104983042I1534992J-684000D01*
G01*
X175129999Y-104984000D02*
G75*
G03*
X175275252Y-104271195I-1535000J683999D01*
G01*
X175274999Y-104300000D02*
G75*
G03*
X175129755Y-103616682I-1679999J0D01*
G01*
X174279000Y-102765000D02*
G75*
G03*
X172911958Y-102764574I-684000J-1535000D01*
G01*
X175275000Y-99300000D02*
G75*
G03*
X171915000Y-99300000I-1680000J0D01*
G01*
X171915000Y-99300000D02*
G75*
G03*
X175275000Y-99300000I1680000J0D01*
G01*
X121304724Y-68522500D02*
X120795276Y-68522500D01*
X121304724Y-67477500D02*
X120795276Y-67477500D01*
X149246267Y-60810000D02*
X148953733Y-60810000D01*
X149246267Y-59790000D02*
X148953733Y-59790000D01*
X119170000Y-127880000D02*
X120500000Y-127880000D01*
X119170000Y-129210000D02*
X119170000Y-127880000D01*
X119170000Y-130480000D02*
X119170000Y-133080000D01*
X119170000Y-130480000D02*
X121830000Y-130480000D01*
X119170000Y-133080000D02*
X121830000Y-133080000D01*
X121830000Y-130480000D02*
X121830000Y-133080000D01*
X163017500Y-118245276D02*
X163017500Y-118754724D01*
X161972500Y-118245276D02*
X161972500Y-118754724D01*
X177250000Y-59262500D02*
G75*
G03*
X165050000Y-59262500I-6100000J0D01*
G01*
X165050000Y-59262500D02*
G75*
G03*
X177250000Y-59262500I6100000J0D01*
G01*
X151977500Y-55487258D02*
X151977500Y-55012742D01*
X153022500Y-55487258D02*
X153022500Y-55012742D01*
X136453733Y-71240000D02*
X136746267Y-71240000D01*
X136453733Y-72260000D02*
X136746267Y-72260000D01*
X165500000Y-116940000D02*
X163825000Y-116940000D01*
X165500000Y-116940000D02*
X166150000Y-116940000D01*
X165500000Y-120060000D02*
X164850000Y-120060000D01*
X165500000Y-120060000D02*
X166150000Y-120060000D01*
X144590000Y-63446267D02*
X144590000Y-63153733D01*
X145610000Y-63446267D02*
X145610000Y-63153733D01*
X126950000Y-93750000D02*
G75*
G03*
X125550000Y-93750000I-700000J0D01*
G01*
X125550000Y-93750000D02*
G75*
G03*
X126950000Y-93750000I700000J0D01*
G01*
X142590000Y-63446267D02*
X142590000Y-63153733D01*
X143610000Y-63446267D02*
X143610000Y-63153733D01*
X122067224Y-98022500D02*
X121557776Y-98022500D01*
X122067224Y-96977500D02*
X121557776Y-96977500D01*
X108890000Y-94000000D02*
X108150000Y-94000000D01*
X108150000Y-94000000D02*
X108150000Y-94500000D01*
X118311000Y-94240000D02*
X108390000Y-94240000D01*
X118311000Y-94240000D02*
X118311000Y-104360000D01*
X115351000Y-94240000D02*
X115351000Y-104360000D01*
X110450000Y-94240000D02*
X110450000Y-104360000D01*
X108950000Y-94240000D02*
X108950000Y-104360000D01*
X108390000Y-94240000D02*
X108390000Y-104360000D01*
X112027000Y-100573000D02*
X111981000Y-100526000D01*
X111811000Y-100766000D02*
X111776000Y-100731000D01*
X114325000Y-102870000D02*
X114289000Y-102835000D01*
X114119000Y-103075000D02*
X114073000Y-103028000D01*
X118311000Y-104360000D02*
X108390000Y-104360000D01*
X113733999Y-95265001D02*
G75*
G03*
X112366958Y-95264574I-684000J-1534992D01*
G01*
X114584999Y-97483999D02*
G75*
G03*
X114585426Y-96116958I-1534992J684000D01*
G01*
X111515001Y-96116000D02*
G75*
G03*
X111369748Y-96828805I1535000J-683999D01*
G01*
X111370001Y-96800000D02*
G75*
G03*
X111515245Y-97483318I1679999J0D01*
G01*
X112366000Y-98335000D02*
G75*
G03*
X113733042Y-98335426I684000J1535000D01*
G01*
X114730000Y-101800000D02*
G75*
G03*
X111370000Y-101800000I-1680000J0D01*
G01*
X111370000Y-101800000D02*
G75*
G03*
X114730000Y-101800000I1680000J0D01*
G01*
X170727500Y-67737258D02*
X170727500Y-67262742D01*
X171772500Y-67737258D02*
X171772500Y-67262742D01*
X177660000Y-123800000D02*
X178400000Y-123800000D01*
X178400000Y-123800000D02*
X178400000Y-123300000D01*
X168239000Y-123560000D02*
X178160000Y-123560000D01*
X168239000Y-123560000D02*
X168239000Y-113440000D01*
X171199000Y-123560000D02*
X171199000Y-113440000D01*
X176100000Y-123560000D02*
X176100000Y-113440000D01*
X177600000Y-123560000D02*
X177600000Y-113440000D01*
X178160000Y-123560000D02*
X178160000Y-113440000D01*
X174523000Y-117227000D02*
X174569000Y-117274000D01*
X174739000Y-117034000D02*
X174774000Y-117069000D01*
X172225000Y-114930000D02*
X172261000Y-114965000D01*
X172431000Y-114725000D02*
X172477000Y-114772000D01*
X168239000Y-113440000D02*
X178160000Y-113440000D01*
X172816001Y-122534999D02*
G75*
G03*
X174183042Y-122535426I684000J1534992D01*
G01*
X171965001Y-120316001D02*
G75*
G03*
X171964574Y-121683042I1534992J-684000D01*
G01*
X175034999Y-121684000D02*
G75*
G03*
X175180252Y-120971195I-1535000J683999D01*
G01*
X175179999Y-121000000D02*
G75*
G03*
X175034755Y-120316682I-1679999J0D01*
G01*
X174184000Y-119465000D02*
G75*
G03*
X172816958Y-119464574I-684000J-1535000D01*
G01*
X175180000Y-116000000D02*
G75*
G03*
X171820000Y-116000000I-1680000J0D01*
G01*
X171820000Y-116000000D02*
G75*
G03*
X175180000Y-116000000I1680000J0D01*
G01*
X162100000Y-87660000D02*
X165550000Y-87660000D01*
X162100000Y-87660000D02*
X160150000Y-87660000D01*
X162100000Y-82540000D02*
X164050000Y-82540000D01*
X162100000Y-82540000D02*
X160150000Y-82540000D01*
%LPC*%
D16*
X113050000Y-82600000D03*
D17*
X113050000Y-87600000D03*
D18*
X136300000Y-61950000D03*
X136300000Y-67550000D03*
D19*
X147750000Y-62350000D03*
X147750000Y-63300000D03*
X147750000Y-64250000D03*
X150450000Y-64250000D03*
X150450000Y-63300000D03*
X150450000Y-62350000D03*
D20*
X130722500Y-86485000D03*
D21*
X130722500Y-89025000D03*
X130722500Y-91565000D03*
X130722500Y-94105000D03*
X130722500Y-96645000D03*
X130722500Y-99185000D03*
X130722500Y-101725000D03*
X130722500Y-104265000D03*
X130722500Y-106805000D03*
X130722500Y-109345000D03*
X130722500Y-111885000D03*
X130722500Y-114425000D03*
X130722500Y-116965000D03*
X130722500Y-119505000D03*
X130722500Y-122045000D03*
X156122500Y-122045000D03*
X156122500Y-119505000D03*
X156122500Y-116965000D03*
X156122500Y-114425000D03*
X156122500Y-111885000D03*
X156122500Y-109345000D03*
X156122500Y-106805000D03*
X156122500Y-104265000D03*
X156122500Y-101725000D03*
X156122500Y-99185000D03*
X156122500Y-96645000D03*
X156122500Y-94105000D03*
X156122500Y-91565000D03*
X156122500Y-89025000D03*
X156122500Y-86485000D03*
D22*
X124000000Y-71812500D03*
X124000000Y-69987500D03*
D23*
X156200000Y-66337500D03*
X156200000Y-68162500D03*
X126000000Y-99287500D03*
X126000000Y-101112500D03*
D24*
X167000000Y-84237500D03*
X167000000Y-85962500D03*
D25*
X163262500Y-81400000D03*
X161537500Y-81400000D03*
D16*
X113050000Y-111000000D03*
D17*
X113050000Y-116000000D03*
X113050000Y-121000000D03*
D26*
X154400000Y-68112500D03*
X154400000Y-66387500D03*
D22*
X160495000Y-119412500D03*
X160495000Y-117587500D03*
D23*
X125910000Y-69987500D03*
X125910000Y-71812500D03*
D27*
X121937500Y-71850000D03*
X121937500Y-69950000D03*
X120062500Y-70900000D03*
D23*
X162300000Y-100887500D03*
X162300000Y-102712500D03*
D28*
X160000000Y-65150000D03*
X160000000Y-63500000D03*
D29*
X155012500Y-63300000D03*
X153187500Y-63300000D03*
D30*
X135737500Y-73750000D03*
X137462500Y-73750000D03*
D31*
X162000000Y-65037500D03*
X162000000Y-63462500D03*
D32*
X164362500Y-100850000D03*
X164362500Y-102750000D03*
X166237500Y-101800000D03*
D22*
X152600000Y-68162500D03*
X152600000Y-66337500D03*
D27*
X121887500Y-86050000D03*
X121887500Y-84150000D03*
X120012500Y-85100000D03*
D22*
X160400000Y-102712500D03*
X160400000Y-100887500D03*
X124250000Y-101112500D03*
X124250000Y-99287500D03*
D33*
X143200000Y-74200000D03*
D23*
X125692500Y-84187500D03*
X125692500Y-86012500D03*
D34*
X164587500Y-121200000D03*
X166412500Y-121200000D03*
D16*
X113050000Y-68400000D03*
D17*
X113050000Y-73400000D03*
D16*
X145745000Y-52945000D03*
D17*
X140745000Y-52945000D03*
D16*
X173500000Y-87600000D03*
D17*
X173500000Y-82600000D03*
D31*
X150750000Y-56037500D03*
X150750000Y-54462500D03*
D22*
X123887500Y-86012500D03*
X123887500Y-84187500D03*
D27*
X122250000Y-101200000D03*
X122250000Y-99300000D03*
X120375000Y-100250000D03*
D16*
X173595000Y-104300000D03*
D17*
X173595000Y-99300000D03*
D29*
X121962500Y-68000000D03*
X120137500Y-68000000D03*
D25*
X149962500Y-60300000D03*
X148237500Y-60300000D03*
D35*
X120500000Y-129210000D03*
D36*
X120500000Y-131750000D03*
D23*
X162495000Y-117587500D03*
X162495000Y-119412500D03*
D37*
X171150000Y-55462500D03*
D38*
X171150000Y-63062500D03*
D28*
X152500000Y-56075000D03*
X152500000Y-54425000D03*
D30*
X135737500Y-71750000D03*
X137462500Y-71750000D03*
D32*
X164562500Y-117550000D03*
X164562500Y-119450000D03*
X166437500Y-118500000D03*
D26*
X145100000Y-64162500D03*
X145100000Y-62437500D03*
D33*
X126250000Y-93750000D03*
D26*
X143100000Y-64162500D03*
X143100000Y-62437500D03*
D29*
X122725000Y-97500000D03*
X120900000Y-97500000D03*
D16*
X113050000Y-96800000D03*
D17*
X113050000Y-101800000D03*
D28*
X171250000Y-68325000D03*
X171250000Y-66675000D03*
D16*
X173500000Y-121000000D03*
D17*
X173500000Y-116000000D03*
D39*
X164575000Y-87005000D03*
X164575000Y-85735000D03*
X164575000Y-84465000D03*
X164575000Y-83195000D03*
X159625000Y-83195000D03*
X159625000Y-84465000D03*
X159625000Y-85735000D03*
X159625000Y-87005000D03*
D35*
X126780000Y-131800000D03*
D36*
X129320000Y-131800000D03*
X131860000Y-131800000D03*
X134400000Y-131800000D03*
X136940000Y-131800000D03*
X139480000Y-131800000D03*
X142020000Y-131800000D03*
X144560000Y-131800000D03*
X147100000Y-131800000D03*
X149640000Y-131800000D03*
X152180000Y-131800000D03*
X154720000Y-131800000D03*
X157260000Y-131800000D03*
X159800000Y-131800000D03*
%LPD*%
M02*
