G04 #@! TF.GenerationSoftware,KiCad,Pcbnew,7.0.10*
G04 #@! TF.CreationDate,2024-04-22T09:57:33-04:00*
G04 #@! TF.ProjectId,reflow_oven_board_rev_2,7265666c-6f77-45f6-9f76-656e5f626f61,1.0*
G04 #@! TF.SameCoordinates,Original*
G04 #@! TF.FileFunction,Paste,Top*
G04 #@! TF.FilePolarity,Positive*
%FSLAX46Y46*%
G04 Gerber Fmt 4.6, Leading zero omitted, Abs format (unit mm)*
G04 Created by KiCad (PCBNEW 7.0.10) date 2024-04-22 09:57:33*
%MOMM*%
%LPD*%
G01*
G04 APERTURE LIST*
G04 Aperture macros list*
%AMRoundRect*
0 Rectangle with rounded corners*
0 $1 Rounding radius*
0 $2 $3 $4 $5 $6 $7 $8 $9 X,Y pos of 4 corners*
0 Add a 4 corners polygon primitive as box body*
4,1,4,$2,$3,$4,$5,$6,$7,$8,$9,$2,$3,0*
0 Add four circle primitives for the rounded corners*
1,1,$1+$1,$2,$3*
1,1,$1+$1,$4,$5*
1,1,$1+$1,$6,$7*
1,1,$1+$1,$8,$9*
0 Add four rect primitives between the rounded corners*
20,1,$1+$1,$2,$3,$4,$5,0*
20,1,$1+$1,$4,$5,$6,$7,0*
20,1,$1+$1,$6,$7,$8,$9,0*
20,1,$1+$1,$8,$9,$2,$3,0*%
G04 Aperture macros list end*
%ADD10R,7.500000X1.800000*%
%ADD11R,1.560000X0.650000*%
%ADD12RoundRect,0.237500X0.237500X-0.250000X0.237500X0.250000X-0.237500X0.250000X-0.237500X-0.250000X0*%
%ADD13RoundRect,0.237500X-0.237500X0.250000X-0.237500X-0.250000X0.237500X-0.250000X0.237500X0.250000X0*%
%ADD14RoundRect,0.237500X-0.237500X0.300000X-0.237500X-0.300000X0.237500X-0.300000X0.237500X0.300000X0*%
%ADD15RoundRect,0.237500X0.300000X0.237500X-0.300000X0.237500X-0.300000X-0.237500X0.300000X-0.237500X0*%
%ADD16RoundRect,0.237500X0.237500X-0.300000X0.237500X0.300000X-0.237500X0.300000X-0.237500X-0.300000X0*%
%ADD17RoundRect,0.150000X0.587500X0.150000X-0.587500X0.150000X-0.587500X-0.150000X0.587500X-0.150000X0*%
%ADD18RoundRect,0.200000X0.275000X-0.200000X0.275000X0.200000X-0.275000X0.200000X-0.275000X-0.200000X0*%
%ADD19RoundRect,0.237500X0.250000X0.237500X-0.250000X0.237500X-0.250000X-0.237500X0.250000X-0.237500X0*%
%ADD20RoundRect,0.237500X-0.300000X-0.237500X0.300000X-0.237500X0.300000X0.237500X-0.300000X0.237500X0*%
%ADD21RoundRect,0.218750X0.256250X-0.218750X0.256250X0.218750X-0.256250X0.218750X-0.256250X-0.218750X0*%
%ADD22RoundRect,0.150000X-0.587500X-0.150000X0.587500X-0.150000X0.587500X0.150000X-0.587500X0.150000X0*%
%ADD23RoundRect,0.237500X-0.250000X-0.237500X0.250000X-0.237500X0.250000X0.237500X-0.250000X0.237500X0*%
%ADD24RoundRect,0.150000X0.825000X0.150000X-0.825000X0.150000X-0.825000X-0.150000X0.825000X-0.150000X0*%
G04 APERTURE END LIST*
D10*
X136300000Y-61950000D03*
X136300000Y-67550000D03*
D11*
X147750000Y-62350000D03*
X147750000Y-63300000D03*
X147750000Y-64250000D03*
X150450000Y-64250000D03*
X150450000Y-63300000D03*
X150450000Y-62350000D03*
D12*
X124000000Y-71812500D03*
X124000000Y-69987500D03*
D13*
X156200000Y-66337500D03*
X156200000Y-68162500D03*
X126000000Y-99287500D03*
X126000000Y-101112500D03*
D14*
X167000000Y-84237500D03*
X167000000Y-85962500D03*
D15*
X163262500Y-81400000D03*
X161537500Y-81400000D03*
D16*
X154400000Y-68112500D03*
X154400000Y-66387500D03*
D12*
X160495000Y-119412500D03*
X160495000Y-117587500D03*
D13*
X125910000Y-69987500D03*
X125910000Y-71812500D03*
D17*
X121937500Y-71850000D03*
X121937500Y-69950000D03*
X120062500Y-70900000D03*
D13*
X162300000Y-100887500D03*
X162300000Y-102712500D03*
D18*
X160000000Y-65150000D03*
X160000000Y-63500000D03*
D19*
X155012500Y-63300000D03*
X153187500Y-63300000D03*
D20*
X135737500Y-73750000D03*
X137462500Y-73750000D03*
D21*
X162000000Y-65037500D03*
X162000000Y-63462500D03*
D22*
X164362500Y-100850000D03*
X164362500Y-102750000D03*
X166237500Y-101800000D03*
D12*
X152600000Y-68162500D03*
X152600000Y-66337500D03*
D17*
X121887500Y-86050000D03*
X121887500Y-84150000D03*
X120012500Y-85100000D03*
D12*
X160400000Y-102712500D03*
X160400000Y-100887500D03*
X124250000Y-101112500D03*
X124250000Y-99287500D03*
D13*
X125692500Y-84187500D03*
X125692500Y-86012500D03*
D23*
X164587500Y-121200000D03*
X166412500Y-121200000D03*
D21*
X150750000Y-56037500D03*
X150750000Y-54462500D03*
D12*
X123887500Y-86012500D03*
X123887500Y-84187500D03*
D17*
X122250000Y-101200000D03*
X122250000Y-99300000D03*
X120375000Y-100250000D03*
D19*
X121962500Y-68000000D03*
X120137500Y-68000000D03*
D15*
X149962500Y-60300000D03*
X148237500Y-60300000D03*
D13*
X162495000Y-117587500D03*
X162495000Y-119412500D03*
D18*
X152500000Y-56075000D03*
X152500000Y-54425000D03*
D20*
X135737500Y-71750000D03*
X137462500Y-71750000D03*
D22*
X164562500Y-117550000D03*
X164562500Y-119450000D03*
X166437500Y-118500000D03*
D16*
X145100000Y-64162500D03*
X145100000Y-62437500D03*
X143100000Y-64162500D03*
X143100000Y-62437500D03*
D19*
X122725000Y-97500000D03*
X120900000Y-97500000D03*
D18*
X171250000Y-68325000D03*
X171250000Y-66675000D03*
D24*
X164575000Y-87005000D03*
X164575000Y-85735000D03*
X164575000Y-84465000D03*
X164575000Y-83195000D03*
X159625000Y-83195000D03*
X159625000Y-84465000D03*
X159625000Y-85735000D03*
X159625000Y-87005000D03*
M02*
